<svg width="305" height="38" viewBox="0 0 305 38" fill="none" xmlns="http://www.w3.org/2000/svg">
<path d="M23.5566 26.1759H9.10469L7.09749 31.4068H0L12.9874 0.0439453H19.7317L32.6966 31.4068H25.612L23.5566 26.1759ZM11.4587 20.2435H21.1961L16.3788 7.68685L11.4587 20.2435Z" fill="white"/>
<path d="M35.7898 31.4068V0.0439453H51.8121C54.5965 0.0439453 56.5234 0.546852 58.0907 1.50782C60.737 3.08381 62.4487 5.86422 62.4487 9.43261C62.4748 11.0167 62.0811 12.5796 61.3074 13.9633C60.5337 15.3469 59.4075 16.5023 58.0425 17.3126C56.4913 18.2575 54.5965 18.7796 51.8121 18.7796H42.6143V31.4068H35.7898ZM50.9225 12.7608C52.2232 12.7608 52.8494 12.6711 53.4115 12.4404C54.6961 11.9375 55.7141 10.9285 55.7141 9.4198C55.7141 7.91108 54.7507 6.90206 53.4115 6.39915C52.8623 6.18133 52.2457 6.07883 50.9001 6.07883H42.6143V12.7608H50.9225Z" fill="white"/>
<path d="M89.3137 31.4077V11.5316L70.3335 31.4077H66.5568V0.0224226H73.3813V19.86L92.3935 0H96.1382V31.3917L89.3137 31.4077Z" fill="white"/>
<path d="M126.743 12.8136C125.375 8.54692 121.997 5.98434 117.385 5.98434C111.656 5.98434 107.728 10.2318 107.728 15.7254C107.728 20.9562 111.566 25.4215 117.385 25.4215C121.974 25.4215 125.353 22.9038 126.766 18.4833L133.272 20.4053C131.31 26.9943 124.871 31.4148 117.385 31.4148C108.277 31.4148 100.685 24.688 100.685 15.719C100.685 6.91968 107.921 0.00390827 117.385 0.00390827C124.608 0.000705039 131.012 3.80935 133.205 10.7924L126.743 12.8136Z" fill="white"/>
<path d="M162.533 0.0224609V6.08618H151.758V31.4077H144.911V6.08618H134.159V0.0224609H162.533Z" fill="white"/>
<path d="M180.471 31.4092C170.884 31.4092 163.809 24.5383 163.809 15.7134C163.809 6.88851 170.875 0.0175781 180.471 0.0175781C190.067 0.0175781 197.171 6.91093 197.171 15.7134C197.171 24.5159 190.083 31.4092 180.471 31.4092ZM180.471 6.04285C174.607 6.04285 170.817 10.3096 170.817 15.7166C170.817 21.1237 174.607 25.3679 180.471 25.3679C186.335 25.3679 190.15 21.1429 190.15 15.7166C190.15 10.2903 186.361 6.04285 180.471 6.04285Z" fill="white"/>
<path d="M205.438 0.0224609L219.43 15.5838L233.423 0.0224609H237.142V31.4141H230.317V12.1243L219.43 24.4055L208.54 12.1243V31.4077H201.715V0.0224609H205.438Z" fill="white"/>
<path d="M266.335 0V6.04129H250.149V11.2049H262.497V17.1821H250.149V25.344H266.335V31.3853H243.302V0H266.335Z" fill="white"/>
<path d="M300.526 25.3446H305V37.866H298.176V31.4083H276.337V37.866H269.48V25.3446H273.334C275.136 22.1414 276.119 18.5185 276.665 14.7739C277.397 9.8922 277.374 4.79266 277.487 0.0390625H300.52L300.526 25.3446ZM284.183 6.08676C284.191 9.2225 283.953 12.3541 283.473 15.453C282.929 18.8509 281.979 22.1716 280.644 25.3446H293.676V6.08676H284.183Z" fill="white"/>
</svg>
