<svg width="285" height="342" viewBox="0 0 285 342" fill="none" xmlns="http://www.w3.org/2000/svg">
<g filter="url(#filter0_d_0_446)">
<rect x="13" y="50" width="251" height="264" rx="20" fill="#DEDEDE"/>
<rect x="66" y="6" width="144" height="144" rx="15" fill="white"/>
<path d="M55.336 220.072C55.336 220.712 55.1707 221.251 54.84 221.688C54.5093 222.115 54.0613 222.44 53.496 222.664C52.9413 222.888 52.3333 223 51.672 223H46.184V211.64H52.264C52.7973 211.64 53.256 211.784 53.64 212.072C54.0347 212.349 54.3333 212.712 54.536 213.16C54.7493 213.597 54.856 214.056 54.856 214.536C54.856 215.08 54.7173 215.597 54.44 216.088C54.1627 216.579 53.7573 216.941 53.224 217.176C53.8747 217.368 54.3867 217.715 54.76 218.216C55.144 218.717 55.336 219.336 55.336 220.072ZM53.112 219.656C53.112 219.368 53.0533 219.112 52.936 218.888C52.8187 218.653 52.6587 218.472 52.456 218.344C52.264 218.205 52.04 218.136 51.784 218.136H48.392V221.128H51.672C51.9387 221.128 52.1787 221.064 52.392 220.936C52.616 220.797 52.792 220.616 52.92 220.392C53.048 220.168 53.112 219.923 53.112 219.656ZM48.392 213.528V216.392H51.336C51.5813 216.392 51.8053 216.333 52.008 216.216C52.2107 216.099 52.3707 215.933 52.488 215.72C52.616 215.507 52.68 215.251 52.68 214.952C52.68 214.664 52.6213 214.413 52.504 214.2C52.3973 213.987 52.248 213.821 52.056 213.704C51.8747 213.587 51.6667 213.528 51.432 213.528H48.392ZM61.875 223.16C61.2243 223.16 60.6483 223.016 60.147 222.728C59.6563 222.429 59.2723 222.029 58.995 221.528V226.408H56.851V214.616H58.723V216.056C59.043 215.565 59.4483 215.181 59.939 214.904C60.4297 214.616 60.9897 214.472 61.619 214.472C62.1843 214.472 62.7017 214.584 63.171 214.808C63.651 215.032 64.067 215.347 64.419 215.752C64.771 216.147 65.043 216.605 65.235 217.128C65.4377 217.64 65.539 218.195 65.539 218.792C65.539 219.603 65.379 220.339 65.059 221C64.7497 221.661 64.3177 222.189 63.763 222.584C63.219 222.968 62.5897 223.16 61.875 223.16ZM61.155 221.336C61.4857 221.336 61.7843 221.267 62.051 221.128C62.3177 220.989 62.547 220.803 62.739 220.568C62.9417 220.323 63.091 220.051 63.187 219.752C63.2937 219.443 63.347 219.123 63.347 218.792C63.347 218.44 63.2883 218.115 63.171 217.816C63.0643 217.517 62.9043 217.256 62.691 217.032C62.4777 216.797 62.227 216.616 61.939 216.488C61.6617 216.36 61.3577 216.296 61.027 216.296C60.8243 216.296 60.6163 216.333 60.403 216.408C60.2003 216.472 60.003 216.568 59.811 216.696C59.619 216.824 59.4483 216.973 59.299 217.144C59.1603 217.315 59.059 217.501 58.995 217.704V219.672C59.123 219.981 59.2937 220.264 59.507 220.52C59.731 220.776 59.987 220.979 60.275 221.128C60.563 221.267 60.8563 221.336 61.155 221.336ZM66.4156 220.52C66.4156 219.976 66.565 219.501 66.8636 219.096C67.173 218.68 67.5996 218.36 68.1436 218.136C68.6876 217.912 69.3116 217.8 70.0156 217.8C70.3676 217.8 70.725 217.827 71.0876 217.88C71.4503 217.933 71.765 218.019 72.0316 218.136V217.688C72.0316 217.155 71.8716 216.744 71.5516 216.456C71.2423 216.168 70.7783 216.024 70.1596 216.024C69.701 216.024 69.2636 216.104 68.8476 216.264C68.4316 216.424 67.9943 216.659 67.5356 216.968L66.8476 215.56C67.4023 215.197 67.9676 214.925 68.5436 214.744C69.1303 214.563 69.7436 214.472 70.3836 214.472C71.5783 214.472 72.5063 214.771 73.1676 215.368C73.8396 215.965 74.1756 216.819 74.1756 217.928V220.6C74.1756 220.824 74.213 220.984 74.2876 221.08C74.373 221.176 74.5063 221.235 74.6876 221.256V223C74.4956 223.032 74.3196 223.059 74.1596 223.08C74.0103 223.101 73.8823 223.112 73.7756 223.112C73.349 223.112 73.0236 223.016 72.7996 222.824C72.5863 222.632 72.453 222.397 72.3996 222.12L72.3516 221.688C71.989 222.157 71.5356 222.52 70.9916 222.776C70.4476 223.032 69.893 223.16 69.3276 223.16C68.773 223.16 68.2716 223.048 67.8236 222.824C67.3863 222.589 67.0396 222.275 66.7836 221.88C66.5383 221.475 66.4156 221.021 66.4156 220.52ZM71.6316 220.952C71.749 220.824 71.845 220.696 71.9196 220.568C71.9943 220.44 72.0316 220.323 72.0316 220.216V219.368C71.7756 219.261 71.4983 219.181 71.1996 219.128C70.901 219.064 70.6183 219.032 70.3516 219.032C69.797 219.032 69.3383 219.155 68.9756 219.4C68.6236 219.635 68.4476 219.949 68.4476 220.344C68.4476 220.557 68.5063 220.76 68.6236 220.952C68.741 221.144 68.9116 221.299 69.1356 221.416C69.3596 221.533 69.6263 221.592 69.9356 221.592C70.2556 221.592 70.5703 221.533 70.8796 221.416C71.189 221.288 71.4396 221.133 71.6316 220.952ZM80.8511 223V219.992C80.5311 220.131 80.2058 220.232 79.8751 220.296C79.5551 220.36 79.1871 220.392 78.7711 220.392C77.8858 220.392 77.1925 220.157 76.6911 219.688C76.1898 219.208 75.9391 218.509 75.9391 217.592V214.616H78.0831V217.304C78.0831 217.805 78.1898 218.173 78.4031 218.408C78.6271 218.643 78.9685 218.76 79.4271 218.76C79.6831 218.76 79.9391 218.733 80.1951 218.68C80.4511 218.627 80.6698 218.552 80.8511 218.456V214.616H83.0111V223H80.8511ZM84.9604 223V214.632H87.1044V220.136L90.8644 214.616H92.8164V223H90.6724V217.624L86.9604 223H84.9604Z" fill="#85A080"/>
<path d="M46.12 242V233.648H50.44C50.9413 233.648 51.3573 233.749 51.688 233.952C52.0187 234.144 52.264 234.395 52.424 234.704C52.5947 235.013 52.68 235.344 52.68 235.696C52.68 236.144 52.5733 236.549 52.36 236.912C52.1467 237.264 51.8373 237.531 51.432 237.712C51.912 237.851 52.3013 238.101 52.6 238.464C52.8987 238.816 53.048 239.253 53.048 239.776C53.048 240.245 52.936 240.645 52.712 240.976C52.488 241.307 52.1733 241.563 51.768 241.744C51.3627 241.915 50.8933 242 50.36 242H46.12ZM47.464 241.008H50.328C50.584 241.008 50.8133 240.944 51.016 240.816C51.2293 240.688 51.3947 240.517 51.512 240.304C51.6293 240.091 51.688 239.867 51.688 239.632C51.688 239.376 51.6293 239.147 51.512 238.944C51.4053 238.731 51.2507 238.565 51.048 238.448C50.856 238.32 50.632 238.256 50.376 238.256H47.464V241.008ZM47.464 237.328H50.072C50.328 237.328 50.552 237.264 50.744 237.136C50.936 236.997 51.0853 236.821 51.192 236.608C51.2987 236.395 51.352 236.171 51.352 235.936C51.352 235.584 51.2347 235.28 51 235.024C50.776 234.768 50.4827 234.64 50.12 234.64H47.464V237.328ZM54.8231 242V233.648H56.2311V236.496H57.9271C58.9085 236.496 59.6498 236.747 60.1511 237.248C60.6631 237.739 60.9191 238.384 60.9191 239.184C60.9191 239.717 60.8071 240.197 60.5831 240.624C60.3698 241.051 60.0498 241.387 59.6231 241.632C59.1965 241.877 58.6631 242 58.0231 242H54.8231ZM56.2311 240.896H57.8311C58.2258 240.896 58.5405 240.821 58.7751 240.672C59.0205 240.512 59.2018 240.304 59.3191 240.048C59.4365 239.792 59.4951 239.515 59.4951 239.216C59.4951 238.928 59.4418 238.661 59.3351 238.416C59.2285 238.171 59.0525 237.973 58.8071 237.824C58.5618 237.675 58.2258 237.6 57.7991 237.6H56.2311V240.896ZM62.3591 242V233.664H63.7671V242H62.3591ZM69.7383 242.16C69.1089 242.16 68.5329 242.048 68.0103 241.824C67.4983 241.589 67.0503 241.269 66.6663 240.864C66.2929 240.459 65.9996 239.995 65.7863 239.472C65.5836 238.949 65.4823 238.395 65.4823 237.808C65.4823 237.019 65.6583 236.299 66.0103 235.648C66.3623 234.997 66.8583 234.48 67.4983 234.096C68.1383 233.701 68.8796 233.504 69.7223 233.504C70.5436 233.504 71.2583 233.691 71.8663 234.064C72.4849 234.427 72.9436 234.917 73.2423 235.536L71.8663 235.968C71.6529 235.573 71.3543 235.269 70.9703 235.056C70.5863 234.832 70.1596 234.72 69.6903 234.72C69.1783 234.72 68.7089 234.853 68.2823 235.12C67.8663 235.387 67.5356 235.755 67.2903 236.224C67.0449 236.683 66.9223 237.211 66.9223 237.808C66.9223 238.395 67.0449 238.928 67.2903 239.408C67.5463 239.877 67.8823 240.251 68.2983 240.528C68.7249 240.805 69.1943 240.944 69.7063 240.944C70.0369 240.944 70.3516 240.885 70.6503 240.768C70.9596 240.651 71.2263 240.496 71.4503 240.304C71.6849 240.101 71.8449 239.883 71.9303 239.648L73.3063 240.064C73.1356 240.469 72.8743 240.832 72.5223 241.152C72.1809 241.461 71.7703 241.707 71.2903 241.888C70.8209 242.069 70.3036 242.16 69.7383 242.16ZM74.8856 242V233.648H76.2936V240.768H79.5896V233.648H81.0136V240.768H84.2936V233.648H85.7016V242H74.8856ZM91.6758 242.16C91.0464 242.16 90.4704 242.048 89.9478 241.824C89.4358 241.589 88.9878 241.275 88.6038 240.88C88.2304 240.475 87.9371 240.011 87.7238 239.488C87.5211 238.965 87.4198 238.411 87.4198 237.824C87.4198 237.035 87.6011 236.315 87.9638 235.664C88.3264 235.013 88.8278 234.491 89.4678 234.096C90.1184 233.701 90.8598 233.504 91.6918 233.504C92.5344 233.504 93.2651 233.707 93.8838 234.112C94.5131 234.507 94.9984 235.029 95.3398 235.68C95.6918 236.32 95.8678 237.013 95.8678 237.76C95.8678 237.867 95.8624 237.973 95.8518 238.08C95.8518 238.176 95.8464 238.251 95.8358 238.304H88.9078C88.9504 238.848 89.0998 239.333 89.3558 239.76C89.6224 240.176 89.9638 240.507 90.3798 240.752C90.7958 240.987 91.2438 241.104 91.7238 241.104C92.2358 241.104 92.7158 240.976 93.1638 240.72C93.6224 240.464 93.9371 240.128 94.1078 239.712L95.3238 240.048C95.1424 240.453 94.8704 240.816 94.5078 241.136C94.1558 241.456 93.7344 241.707 93.2438 241.888C92.7638 242.069 92.2411 242.16 91.6758 242.16ZM88.8598 237.328H94.5558C94.5131 236.784 94.3584 236.304 94.0918 235.888C93.8251 235.472 93.4838 235.147 93.0678 234.912C92.6518 234.677 92.1931 234.56 91.6918 234.56C91.2011 234.56 90.7478 234.677 90.3318 234.912C89.9158 235.147 89.5744 235.472 89.3078 235.888C89.0518 236.304 88.9024 236.784 88.8598 237.328ZM97.4169 242V233.664H98.8249V240.112L103.497 233.648H104.777V242H103.369V235.68L98.7609 242H97.4169ZM101.113 232.704C100.345 232.704 99.7635 232.523 99.3689 232.16C98.9742 231.787 98.7769 231.328 98.7769 230.784H99.7689C99.7689 231.083 99.8702 231.333 100.073 231.536C100.286 231.728 100.633 231.824 101.113 231.824C101.582 231.824 101.913 231.733 102.105 231.552C102.297 231.36 102.414 231.104 102.457 230.784H103.449C103.449 231.328 103.252 231.787 102.857 232.16C102.462 232.523 101.881 232.704 101.113 232.704ZM111.058 242V233.648H112.466V237.088H113.394L116.018 233.648H117.618L114.498 237.696L117.986 242H116.354L113.394 238.384H112.466V242H111.058ZM118.714 239.584C118.714 239.051 118.864 238.592 119.162 238.208C119.472 237.813 119.893 237.509 120.426 237.296C120.96 237.083 121.578 236.976 122.282 236.976C122.656 236.976 123.05 237.008 123.466 237.072C123.882 237.125 124.25 237.211 124.57 237.328V236.72C124.57 236.08 124.378 235.579 123.994 235.216C123.61 234.843 123.066 234.656 122.362 234.656C121.904 234.656 121.461 234.741 121.034 234.912C120.618 235.072 120.176 235.307 119.706 235.616L119.194 234.624C119.738 234.251 120.282 233.973 120.826 233.792C121.37 233.6 121.936 233.504 122.522 233.504C123.589 233.504 124.432 233.803 125.05 234.4C125.669 234.987 125.978 235.808 125.978 236.864V240.4C125.978 240.571 126.01 240.699 126.074 240.784C126.149 240.859 126.266 240.901 126.426 240.912V242C126.288 242.021 126.165 242.037 126.058 242.048C125.962 242.059 125.882 242.064 125.818 242.064C125.488 242.064 125.237 241.973 125.066 241.792C124.906 241.611 124.816 241.419 124.794 241.216L124.762 240.688C124.4 241.157 123.925 241.52 123.338 241.776C122.752 242.032 122.17 242.16 121.594 242.16C121.04 242.16 120.544 242.048 120.106 241.824C119.669 241.589 119.328 241.28 119.082 240.896C118.837 240.501 118.714 240.064 118.714 239.584ZM124.154 240.176C124.282 240.027 124.384 239.877 124.458 239.728C124.533 239.568 124.57 239.435 124.57 239.328V238.288C124.24 238.16 123.893 238.064 123.53 238C123.168 237.925 122.81 237.888 122.458 237.888C121.744 237.888 121.162 238.032 120.714 238.32C120.277 238.597 120.058 238.981 120.058 239.472C120.058 239.739 120.128 240 120.266 240.256C120.416 240.501 120.629 240.704 120.906 240.864C121.194 241.024 121.546 241.104 121.962 241.104C122.4 241.104 122.816 241.019 123.21 240.848C123.605 240.667 123.92 240.443 124.154 240.176ZM130.168 242V234.896H127.288V233.648H134.456V234.896H131.576V242H130.168ZM139.566 242.16C138.937 242.16 138.361 242.048 137.838 241.824C137.326 241.589 136.878 241.275 136.494 240.88C136.121 240.475 135.828 240.011 135.614 239.488C135.412 238.965 135.31 238.411 135.31 237.824C135.31 237.035 135.492 236.315 135.854 235.664C136.217 235.013 136.718 234.491 137.358 234.096C138.009 233.701 138.75 233.504 139.582 233.504C140.425 233.504 141.156 233.707 141.774 234.112C142.404 234.507 142.889 235.029 143.23 235.68C143.582 236.32 143.758 237.013 143.758 237.76C143.758 237.867 143.753 237.973 143.742 238.08C143.742 238.176 143.737 238.251 143.726 238.304H136.798C136.841 238.848 136.99 239.333 137.246 239.76C137.513 240.176 137.854 240.507 138.27 240.752C138.686 240.987 139.134 241.104 139.614 241.104C140.126 241.104 140.606 240.976 141.054 240.72C141.513 240.464 141.828 240.128 141.998 239.712L143.214 240.048C143.033 240.453 142.761 240.816 142.398 241.136C142.046 241.456 141.625 241.707 141.134 241.888C140.654 242.069 140.132 242.16 139.566 242.16ZM136.75 237.328H142.446C142.404 236.784 142.249 236.304 141.982 235.888C141.716 235.472 141.374 235.147 140.958 234.912C140.542 234.677 140.084 234.56 139.582 234.56C139.092 234.56 138.638 234.677 138.222 234.912C137.806 235.147 137.465 235.472 137.198 235.888C136.942 236.304 136.793 236.784 136.75 237.328ZM145.308 242V233.648H150.46V234.896H146.716V242H145.308ZM155.55 242.16C154.92 242.16 154.35 242.048 153.838 241.824C153.326 241.589 152.883 241.275 152.51 240.88C152.136 240.475 151.848 240.011 151.646 239.488C151.443 238.965 151.342 238.416 151.342 237.84C151.342 237.253 151.443 236.699 151.646 236.176C151.848 235.653 152.136 235.195 152.51 234.8C152.883 234.395 153.326 234.08 153.838 233.856C154.36 233.621 154.936 233.504 155.566 233.504C156.184 233.504 156.75 233.621 157.262 233.856C157.774 234.08 158.216 234.395 158.59 234.8C158.974 235.195 159.267 235.653 159.47 236.176C159.672 236.699 159.774 237.253 159.774 237.84C159.774 238.416 159.672 238.965 159.47 239.488C159.267 240.011 158.979 240.475 158.606 240.88C158.232 241.275 157.784 241.589 157.262 241.824C156.75 242.048 156.179 242.16 155.55 242.16ZM152.782 237.856C152.782 238.432 152.904 238.955 153.15 239.424C153.406 239.893 153.742 240.267 154.158 240.544C154.574 240.811 155.038 240.944 155.55 240.944C156.062 240.944 156.526 240.805 156.942 240.528C157.368 240.251 157.704 239.877 157.95 239.408C158.206 238.928 158.334 238.4 158.334 237.824C158.334 237.248 158.206 236.725 157.95 236.256C157.704 235.787 157.368 235.413 156.942 235.136C156.526 234.859 156.062 234.72 155.55 234.72C155.038 234.72 154.574 234.864 154.158 235.152C153.742 235.429 153.406 235.803 153.15 236.272C152.904 236.741 152.782 237.269 152.782 237.856ZM165.976 242.16C165.293 242.16 164.685 241.989 164.152 241.648C163.618 241.307 163.197 240.875 162.888 240.352V245.408H161.48V233.648H162.728V235.216C163.058 234.704 163.49 234.293 164.024 233.984C164.557 233.664 165.138 233.504 165.768 233.504C166.344 233.504 166.872 233.621 167.352 233.856C167.832 234.091 168.248 234.411 168.6 234.816C168.952 235.221 169.224 235.685 169.416 236.208C169.618 236.72 169.72 237.259 169.72 237.824C169.72 238.613 169.56 239.339 169.24 240C168.93 240.661 168.493 241.189 167.928 241.584C167.362 241.968 166.712 242.16 165.976 242.16ZM165.544 240.944C165.96 240.944 166.333 240.859 166.664 240.688C167.005 240.507 167.293 240.272 167.528 239.984C167.773 239.685 167.96 239.349 168.088 238.976C168.216 238.603 168.28 238.219 168.28 237.824C168.28 237.408 168.205 237.013 168.056 236.64C167.917 236.267 167.714 235.936 167.448 235.648C167.192 235.36 166.888 235.136 166.536 234.976C166.194 234.805 165.821 234.72 165.416 234.72C165.16 234.72 164.893 234.768 164.616 234.864C164.349 234.96 164.093 235.099 163.848 235.28C163.602 235.451 163.394 235.648 163.224 235.872C163.053 236.096 162.941 236.336 162.888 236.592V238.976C163.048 239.339 163.261 239.669 163.528 239.968C163.794 240.267 164.104 240.507 164.456 240.688C164.808 240.859 165.17 240.944 165.544 240.944ZM171.433 242V233.664H172.841V240.112L177.513 233.648H178.793V242H177.385V235.68L172.777 242H171.433ZM181.026 242V233.664H182.434V240.112L187.106 233.648H188.386V242H186.978V235.68L182.37 242H181.026ZM46.12 261V252.664H47.528V259.112L52.2 252.648H53.48V261H52.072V254.68L47.464 261H46.12ZM59.7606 261V252.648H61.1686V256.088H62.0966L64.7206 252.648H66.3206L63.2006 256.696L66.6886 261H65.0566L62.0966 257.384H61.1686V261H59.7606ZM67.4175 258.584C67.4175 258.051 67.5668 257.592 67.8655 257.208C68.1748 256.813 68.5962 256.509 69.1295 256.296C69.6628 256.083 70.2815 255.976 70.9855 255.976C71.3588 255.976 71.7535 256.008 72.1695 256.072C72.5855 256.125 72.9535 256.211 73.2735 256.328V255.72C73.2735 255.08 73.0815 254.579 72.6975 254.216C72.3135 253.843 71.7695 253.656 71.0655 253.656C70.6068 253.656 70.1642 253.741 69.7375 253.912C69.3215 254.072 68.8788 254.307 68.4095 254.616L67.8975 253.624C68.4415 253.251 68.9855 252.973 69.5295 252.792C70.0735 252.6 70.6388 252.504 71.2255 252.504C72.2922 252.504 73.1348 252.803 73.7535 253.4C74.3722 253.987 74.6815 254.808 74.6815 255.864V259.4C74.6815 259.571 74.7135 259.699 74.7775 259.784C74.8522 259.859 74.9695 259.901 75.1295 259.912V261C74.9908 261.021 74.8682 261.037 74.7615 261.048C74.6655 261.059 74.5855 261.064 74.5215 261.064C74.1908 261.064 73.9402 260.973 73.7695 260.792C73.6095 260.611 73.5188 260.419 73.4975 260.216L73.4655 259.688C73.1028 260.157 72.6282 260.52 72.0415 260.776C71.4548 261.032 70.8735 261.16 70.2975 261.16C69.7428 261.16 69.2468 261.048 68.8095 260.824C68.3722 260.589 68.0308 260.28 67.7855 259.896C67.5402 259.501 67.4175 259.064 67.4175 258.584ZM72.8575 259.176C72.9855 259.027 73.0868 258.877 73.1615 258.728C73.2362 258.568 73.2735 258.435 73.2735 258.328V257.288C72.9428 257.16 72.5962 257.064 72.2335 257C71.8708 256.925 71.5135 256.888 71.1615 256.888C70.4468 256.888 69.8655 257.032 69.4175 257.32C68.9802 257.597 68.7615 257.981 68.7615 258.472C68.7615 258.739 68.8308 259 68.9695 259.256C69.1188 259.501 69.3322 259.704 69.6095 259.864C69.8975 260.024 70.2495 260.104 70.6655 260.104C71.1028 260.104 71.5188 260.019 71.9135 259.848C72.3082 259.667 72.6228 259.443 72.8575 259.176ZM76.9169 261V252.648H78.3249V256.104H82.6769V252.648H84.0849V261H82.6769V257.352H78.3249V261H76.9169ZM85.4268 262.968V259.752H85.6028C85.8374 259.752 86.0508 259.683 86.2428 259.544C86.4454 259.405 86.6214 259.165 86.7708 258.824C86.9308 258.472 87.0588 257.992 87.1548 257.384C87.2508 256.776 87.3148 256.003 87.3468 255.064L87.4268 252.648H93.1068V259.752H94.2428V262.968H92.9948V261H86.6748V262.968H85.4268ZM87.5707 259.752H91.6988V253.896H88.6748L88.6268 255.192C88.5948 256.099 88.5308 256.861 88.4348 257.48C88.3494 258.088 88.2321 258.573 88.0828 258.936C87.9441 259.299 87.7734 259.571 87.5707 259.752ZM95.7919 261V252.664H97.1999V259.112L101.872 252.648H103.152V261H101.744V254.68L97.1359 261H95.7919ZM104.474 262.968V259.752H104.65C104.884 259.752 105.098 259.683 105.29 259.544C105.492 259.405 105.668 259.165 105.818 258.824C105.978 258.472 106.106 257.992 106.202 257.384C106.298 256.776 106.362 256.003 106.394 255.064L106.474 252.648H112.154V259.752H113.29V262.968H112.042V261H105.722V262.968H104.474ZM106.618 259.752H110.746V253.896H107.722L107.674 255.192C107.642 256.099 107.578 256.861 107.482 257.48C107.396 258.088 107.279 258.573 107.13 258.936C106.991 259.299 106.82 259.571 106.618 259.752ZM114.199 258.584C114.199 258.051 114.348 257.592 114.647 257.208C114.956 256.813 115.377 256.509 115.911 256.296C116.444 256.083 117.063 255.976 117.767 255.976C118.14 255.976 118.535 256.008 118.951 256.072C119.367 256.125 119.735 256.211 120.055 256.328V255.72C120.055 255.08 119.863 254.579 119.479 254.216C119.095 253.843 118.551 253.656 117.847 253.656C117.388 253.656 116.945 253.741 116.519 253.912C116.103 254.072 115.66 254.307 115.191 254.616L114.679 253.624C115.223 253.251 115.767 252.973 116.311 252.792C116.855 252.6 117.42 252.504 118.007 252.504C119.073 252.504 119.916 252.803 120.535 253.4C121.153 253.987 121.463 254.808 121.463 255.864V259.4C121.463 259.571 121.495 259.699 121.559 259.784C121.633 259.859 121.751 259.901 121.911 259.912V261C121.772 261.021 121.649 261.037 121.543 261.048C121.447 261.059 121.367 261.064 121.303 261.064C120.972 261.064 120.721 260.973 120.551 260.792C120.391 260.611 120.3 260.419 120.279 260.216L120.247 259.688C119.884 260.157 119.409 260.52 118.823 260.776C118.236 261.032 117.655 261.16 117.079 261.16C116.524 261.16 116.028 261.048 115.591 260.824C115.153 260.589 114.812 260.28 114.567 259.896C114.321 259.501 114.199 259.064 114.199 258.584ZM119.639 259.176C119.767 259.027 119.868 258.877 119.943 258.728C120.017 258.568 120.055 258.435 120.055 258.328V257.288C119.724 257.16 119.377 257.064 119.015 257C118.652 256.925 118.295 256.888 117.943 256.888C117.228 256.888 116.647 257.032 116.199 257.32C115.761 257.597 115.543 257.981 115.543 258.472C115.543 258.739 115.612 259 115.751 259.256C115.9 259.501 116.113 259.704 116.391 259.864C116.679 260.024 117.031 260.104 117.447 260.104C117.884 260.104 118.3 260.019 118.695 259.848C119.089 259.667 119.404 259.443 119.639 259.176ZM125.652 261V253.896H122.772V252.648H129.94V253.896H127.06V261H125.652ZM131.339 261V252.648H132.747V255.496H134.443C135.424 255.496 136.165 255.747 136.667 256.248C137.179 256.739 137.435 257.384 137.435 258.184C137.435 258.717 137.323 259.197 137.099 259.624C136.885 260.051 136.565 260.387 136.139 260.632C135.712 260.877 135.179 261 134.539 261H131.339ZM132.747 259.896H134.347C134.741 259.896 135.056 259.821 135.291 259.672C135.536 259.512 135.717 259.304 135.835 259.048C135.952 258.792 136.011 258.515 136.011 258.216C136.011 257.928 135.957 257.661 135.851 257.416C135.744 257.171 135.568 256.973 135.323 256.824C135.077 256.675 134.741 256.6 134.315 256.6H132.747V259.896ZM138.875 261V252.664H140.283V261H138.875ZM46.12 280V271.648H47.576L50.68 277.12L53.8 271.648H55.224V280H53.88V273.68L51.128 278.512H50.232L47.464 273.68V280H46.12ZM61.1914 280.16C60.562 280.16 59.986 280.048 59.4634 279.824C58.9514 279.589 58.5034 279.275 58.1194 278.88C57.746 278.475 57.4527 278.011 57.2394 277.488C57.0367 276.965 56.9354 276.411 56.9354 275.824C56.9354 275.035 57.1167 274.315 57.4794 273.664C57.842 273.013 58.3434 272.491 58.9834 272.096C59.634 271.701 60.3754 271.504 61.2074 271.504C62.05 271.504 62.7807 271.707 63.3994 272.112C64.0287 272.507 64.514 273.029 64.8554 273.68C65.2074 274.32 65.3834 275.013 65.3834 275.76C65.3834 275.867 65.378 275.973 65.3674 276.08C65.3674 276.176 65.362 276.251 65.3514 276.304H58.4234C58.466 276.848 58.6154 277.333 58.8714 277.76C59.138 278.176 59.4794 278.507 59.8954 278.752C60.3114 278.987 60.7594 279.104 61.2394 279.104C61.7514 279.104 62.2314 278.976 62.6794 278.72C63.138 278.464 63.4527 278.128 63.6234 277.712L64.8394 278.048C64.658 278.453 64.386 278.816 64.0234 279.136C63.6714 279.456 63.25 279.707 62.7594 279.888C62.2794 280.069 61.7567 280.16 61.1914 280.16ZM58.3754 275.328H64.0714C64.0287 274.784 63.874 274.304 63.6074 273.888C63.3407 273.472 62.9994 273.147 62.5834 272.912C62.1674 272.677 61.7087 272.56 61.2074 272.56C60.7167 272.56 60.2634 272.677 59.8474 272.912C59.4314 273.147 59.09 273.472 58.8234 273.888C58.5674 274.304 58.418 274.784 58.3754 275.328ZM66.0205 281.968V278.752H66.1965C66.4312 278.752 66.6445 278.683 66.8365 278.544C67.0392 278.405 67.2152 278.165 67.3645 277.824C67.5245 277.472 67.6525 276.992 67.7485 276.384C67.8445 275.776 67.9085 275.003 67.9405 274.064L68.0205 271.648H73.7005V278.752H74.8365V281.968H73.5885V280H67.2685V281.968H66.0205ZM68.1645 278.752H72.2925V272.896H69.2685L69.2205 274.192C69.1885 275.099 69.1245 275.861 69.0285 276.48C68.9432 277.088 68.8258 277.573 68.6765 277.936C68.5378 278.299 68.3672 278.571 68.1645 278.752ZM76.3856 280V271.664H77.7936V278.112L82.4656 271.648H83.7456V280H82.3376V273.68L77.7296 280H76.3856ZM92.5714 281.968V280H85.9794V271.648H87.3874V278.768H91.2594V271.648H92.6674V278.768H93.8194V281.968H92.5714ZM95.37 280V271.664H96.778V278.112L101.45 271.648H102.73V280H101.322V273.68L96.714 280H95.37ZM104.964 280V271.648H106.372V275.104H110.724V271.648H112.132V280H110.724V276.352H106.372V280H104.964ZM118.098 280.16C117.468 280.16 116.892 280.048 116.37 279.824C115.858 279.589 115.41 279.269 115.026 278.864C114.652 278.459 114.359 277.995 114.146 277.472C113.943 276.949 113.842 276.395 113.842 275.808C113.842 275.019 114.018 274.299 114.37 273.648C114.722 272.997 115.218 272.48 115.858 272.096C116.498 271.701 117.239 271.504 118.082 271.504C118.903 271.504 119.618 271.691 120.226 272.064C120.844 272.427 121.303 272.917 121.602 273.536L120.226 273.968C120.012 273.573 119.714 273.269 119.33 273.056C118.946 272.832 118.519 272.72 118.05 272.72C117.538 272.72 117.068 272.853 116.642 273.12C116.226 273.387 115.895 273.755 115.65 274.224C115.404 274.683 115.282 275.211 115.282 275.808C115.282 276.395 115.404 276.928 115.65 277.408C115.906 277.877 116.242 278.251 116.658 278.528C117.084 278.805 117.554 278.944 118.066 278.944C118.396 278.944 118.711 278.885 119.01 278.768C119.319 278.651 119.586 278.496 119.81 278.304C120.044 278.101 120.204 277.883 120.29 277.648L121.666 278.064C121.495 278.469 121.234 278.832 120.882 279.152C120.54 279.461 120.13 279.707 119.65 279.888C119.18 280.069 118.663 280.16 118.098 280.16ZM123.245 280V271.648H124.653V275.088H125.581L128.205 271.648H129.805L126.685 275.696L130.173 280H128.541L125.581 276.384H124.653V280H123.245ZM131.542 280V271.664H132.95V278.112L137.622 271.648H138.902V280H137.494V273.68L132.886 280H131.542ZM141.776 271.648L143.984 274.72L144.112 274.976L144.256 274.72L146.448 271.648H148.016L144.928 275.84L148.032 280H146.464L144.256 276.944L144.112 276.704L143.984 276.944L141.776 280H140.208L143.312 275.84L140.224 271.648H141.776ZM153.386 280V271.648H154.794V275.104H159.146V271.648H160.554V280H159.146V276.352H154.794V280H153.386ZM162.168 277.584C162.168 277.051 162.317 276.592 162.616 276.208C162.925 275.813 163.346 275.509 163.88 275.296C164.413 275.083 165.032 274.976 165.736 274.976C166.109 274.976 166.504 275.008 166.92 275.072C167.336 275.125 167.704 275.211 168.024 275.328V274.72C168.024 274.08 167.832 273.579 167.448 273.216C167.064 272.843 166.52 272.656 165.816 272.656C165.357 272.656 164.914 272.741 164.488 272.912C164.072 273.072 163.629 273.307 163.16 273.616L162.648 272.624C163.192 272.251 163.736 271.973 164.28 271.792C164.824 271.6 165.389 271.504 165.976 271.504C167.042 271.504 167.885 271.803 168.504 272.4C169.122 272.987 169.432 273.808 169.432 274.864V278.4C169.432 278.571 169.464 278.699 169.528 278.784C169.602 278.859 169.72 278.901 169.88 278.912V280C169.741 280.021 169.618 280.037 169.512 280.048C169.416 280.059 169.336 280.064 169.272 280.064C168.941 280.064 168.69 279.973 168.52 279.792C168.36 279.611 168.269 279.419 168.248 279.216L168.216 278.688C167.853 279.157 167.378 279.52 166.792 279.776C166.205 280.032 165.624 280.16 165.048 280.16C164.493 280.16 163.997 280.048 163.56 279.824C163.122 279.589 162.781 279.28 162.536 278.896C162.29 278.501 162.168 278.064 162.168 277.584ZM167.608 278.176C167.736 278.027 167.837 277.877 167.912 277.728C167.986 277.568 168.024 277.435 168.024 277.328V276.288C167.693 276.16 167.346 276.064 166.984 276C166.621 275.925 166.264 275.888 165.911 275.888C165.197 275.888 164.616 276.032 164.168 276.32C163.73 276.597 163.512 276.981 163.512 277.472C163.512 277.739 163.581 278 163.72 278.256C163.869 278.501 164.082 278.704 164.36 278.864C164.648 279.024 165 279.104 165.416 279.104C165.853 279.104 166.269 279.019 166.664 278.848C167.058 278.667 167.373 278.443 167.608 278.176ZM172.457 283.504C172.276 283.504 172.089 283.477 171.897 283.424C171.716 283.371 171.529 283.291 171.337 283.184L171.817 282.224C171.913 282.277 172.004 282.315 172.089 282.336C172.185 282.368 172.276 282.384 172.361 282.384C172.617 282.384 172.857 282.261 173.081 282.016C173.316 281.781 173.535 281.419 173.737 280.928L174.137 279.92L170.473 271.648H171.961L174.777 278.576L177.321 271.648H178.713L174.809 281.36C174.617 281.84 174.399 282.235 174.153 282.544C173.908 282.864 173.641 283.104 173.353 283.264C173.065 283.424 172.767 283.504 172.457 283.504ZM180.12 280V271.648H181.528V275.088H182.456L185.08 271.648H186.68L183.56 275.696L187.048 280H185.416L182.456 276.384H181.528V280H180.12Z" fill="#262626"/>
<path d="M46.44 194C46.44 192.992 46.524 192.068 46.692 191.228C46.86 190.364 47.148 189.548 47.556 188.78C47.988 188.012 48.576 187.292 49.32 186.62C50.088 185.924 51.06 185.264 52.236 184.64C53.076 184.16 53.868 183.74 54.612 183.38C55.356 182.996 56.016 182.624 56.592 182.264C57.168 181.88 57.612 181.472 57.924 181.04C58.26 180.608 58.428 180.116 58.428 179.564C58.428 179.036 58.284 178.544 57.996 178.088C57.708 177.632 57.276 177.272 56.7 177.008C56.124 176.72 55.428 176.576 54.612 176.576C53.964 176.576 53.364 176.66 52.812 176.828C52.284 176.996 51.792 177.224 51.336 177.512C50.904 177.776 50.508 178.076 50.148 178.412C49.788 178.724 49.476 179.036 49.212 179.348L46.728 176.504C46.968 176.216 47.34 175.892 47.844 175.532C48.372 175.148 48.996 174.776 49.716 174.416C50.46 174.032 51.3 173.72 52.236 173.48C53.172 173.216 54.192 173.084 55.296 173.084C56.856 173.084 58.188 173.348 59.292 173.876C60.396 174.38 61.236 175.088 61.812 176C62.412 176.888 62.712 177.896 62.712 179.024C62.712 179.912 62.532 180.692 62.172 181.364C61.836 182.036 61.392 182.636 60.84 183.164C60.288 183.668 59.7 184.112 59.076 184.496C58.476 184.856 57.912 185.18 57.384 185.468C56.448 185.924 55.632 186.344 54.936 186.728C54.264 187.112 53.688 187.496 53.208 187.88C52.728 188.24 52.332 188.624 52.02 189.032C51.708 189.416 51.444 189.884 51.228 190.436H63.108V194H46.44ZM66.9538 194V189.392H70.2298V194H66.9538Z" fill="#B16BF7" fill-opacity="0.4"/>
</g>
<path d="M83 61.0323L138.138 39L193.277 61.0323L138.138 83.0646L83 61.0323Z" stroke="#85A080" stroke-width="3" stroke-linejoin="round"/>
<path d="M102.399 62.7593L135.101 75.2405" stroke="#85A080" stroke-width="3" stroke-linecap="round"/>
<path d="M162.65 88L162.678 104.407" stroke="#85A080" stroke-width="3" stroke-linecap="round"/>
<path d="M193.277 61.3208V85.5117M108.064 72.6386V105.273C108.064 105.273 120.68 117.687 138.138 117.687C155.599 117.687 168.215 105.273 168.215 105.273V72.6386" stroke="#85A080" stroke-width="3" stroke-linecap="round" stroke-linejoin="round"/>
<defs>
<filter id="filter0_d_0_446" x="0" y="0" width="285" height="342" filterUnits="userSpaceOnUse" color-interpolation-filters="sRGB">
<feFlood flood-opacity="0" result="BackgroundImageFix"/>
<feColorMatrix in="SourceAlpha" type="matrix" values="0 0 0 0 0 0 0 0 0 0 0 0 0 0 0 0 0 0 127 0" result="hardAlpha"/>
<feOffset dx="4" dy="11"/>
<feGaussianBlur stdDeviation="8.5"/>
<feComposite in2="hardAlpha" operator="out"/>
<feColorMatrix type="matrix" values="0 0 0 0 0.300245 0 0 0 0 0.580139 0 0 0 0 0.248412 0 0 0 0.2 0"/>
<feBlend mode="normal" in2="BackgroundImageFix" result="effect1_dropShadow_0_446"/>
<feBlend mode="normal" in="SourceGraphic" in2="effect1_dropShadow_0_446" result="shape"/>
</filter>
</defs>
</svg>
