<svg width="285" height="342" viewBox="0 0 285 342" fill="none" xmlns="http://www.w3.org/2000/svg">
<g filter="url(#filter0_d_0_434)">
<rect x="13" y="50" width="251" height="264" rx="20" fill="#DEDEDE"/>
<rect x="66" y="6" width="144" height="144" rx="15" fill="white"/>
<path d="M53.88 223V212.92H49.64L49.576 215.176C49.5227 216.723 49.4053 218.008 49.224 219.032C49.0533 220.045 48.8027 220.845 48.472 221.432C48.152 222.008 47.752 222.419 47.272 222.664C46.792 222.909 46.2213 223.032 45.56 223.032V221.768C45.9653 221.768 46.3227 221.667 46.632 221.464C46.9413 221.261 47.2027 220.909 47.416 220.408C47.64 219.896 47.816 219.187 47.944 218.28C48.072 217.373 48.1573 216.216 48.2 214.808L48.296 211.64H55.32V223H53.88ZM61.5195 223.16C60.8902 223.16 60.3142 223.048 59.7915 222.824C59.2795 222.589 58.8315 222.275 58.4475 221.88C58.0742 221.475 57.7808 221.011 57.5675 220.488C57.3648 219.965 57.2635 219.411 57.2635 218.824C57.2635 218.035 57.4448 217.315 57.8075 216.664C58.1702 216.013 58.6715 215.491 59.3115 215.096C59.9622 214.701 60.7035 214.504 61.5355 214.504C62.3782 214.504 63.1088 214.707 63.7275 215.112C64.3568 215.507 64.8422 216.029 65.1835 216.68C65.5355 217.32 65.7115 218.013 65.7115 218.76C65.7115 218.867 65.7062 218.973 65.6955 219.08C65.6955 219.176 65.6902 219.251 65.6795 219.304H58.7515C58.7942 219.848 58.9435 220.333 59.1995 220.76C59.4662 221.176 59.8075 221.507 60.2235 221.752C60.6395 221.987 61.0875 222.104 61.5675 222.104C62.0795 222.104 62.5595 221.976 63.0075 221.72C63.4662 221.464 63.7808 221.128 63.9515 220.712L65.1675 221.048C64.9862 221.453 64.7142 221.816 64.3515 222.136C63.9995 222.456 63.5782 222.707 63.0875 222.888C62.6075 223.069 62.0848 223.16 61.5195 223.16ZM58.7035 218.328H64.3995C64.3568 217.784 64.2022 217.304 63.9355 216.888C63.6688 216.472 63.3275 216.147 62.9115 215.912C62.4955 215.677 62.0368 215.56 61.5355 215.56C61.0448 215.56 60.5915 215.677 60.1755 215.912C59.7595 216.147 59.4182 216.472 59.1515 216.888C58.8955 217.304 58.7462 217.784 58.7035 218.328ZM72.0126 223V219.656C71.682 219.816 71.3353 219.933 70.9726 220.008C70.6206 220.083 70.2313 220.12 69.8046 220.12C68.898 220.12 68.2046 219.885 67.7246 219.416C67.2553 218.936 67.0206 218.221 67.0206 217.272V214.648H68.4286V217.08C68.4286 217.752 68.5673 218.243 68.8446 218.552C69.122 218.861 69.5646 219.016 70.1726 219.016C70.514 219.016 70.85 218.979 71.1806 218.904C71.522 218.829 71.7993 218.728 72.0126 218.6V214.648H73.4366V223H72.0126ZM79.4101 223.16C78.7808 223.16 78.2048 223.048 77.6821 222.824C77.1701 222.589 76.7221 222.275 76.3381 221.88C75.9648 221.475 75.6715 221.011 75.4581 220.488C75.2555 219.965 75.1541 219.411 75.1541 218.824C75.1541 218.035 75.3355 217.315 75.6981 216.664C76.0608 216.013 76.5621 215.491 77.2021 215.096C77.8528 214.701 78.5941 214.504 79.4261 214.504C80.2688 214.504 80.9995 214.707 81.6181 215.112C82.2475 215.507 82.7328 216.029 83.0741 216.68C83.4261 217.32 83.6021 218.013 83.6021 218.76C83.6021 218.867 83.5968 218.973 83.5861 219.08C83.5861 219.176 83.5808 219.251 83.5701 219.304H76.6421C76.6848 219.848 76.8341 220.333 77.0901 220.76C77.3568 221.176 77.6981 221.507 78.1141 221.752C78.5301 221.987 78.9781 222.104 79.4581 222.104C79.9701 222.104 80.4501 221.976 80.8981 221.72C81.3568 221.464 81.6715 221.128 81.8421 220.712L83.0581 221.048C82.8768 221.453 82.6048 221.816 82.2421 222.136C81.8901 222.456 81.4688 222.707 80.9781 222.888C80.4981 223.069 79.9755 223.16 79.4101 223.16ZM76.5941 218.328H82.2901C82.2475 217.784 82.0928 217.304 81.8261 216.888C81.5595 216.472 81.2181 216.147 80.8021 215.912C80.3861 215.677 79.9275 215.56 79.4261 215.56C78.9355 215.56 78.4821 215.677 78.0661 215.912C77.6501 216.147 77.3088 216.472 77.0421 216.888C76.7861 217.304 76.6368 217.784 76.5941 218.328ZM85.1513 223V214.648H86.5593V218.104H90.9113V214.648H92.3193V223H90.9113V219.352H86.5593V223H85.1513ZM94.5731 223V214.664H95.9811V221.112L100.653 214.648H101.933V223H100.525V216.68L95.9171 223H94.5731ZM107.879 223.16C107.25 223.16 106.674 223.048 106.151 222.824C105.639 222.589 105.191 222.275 104.807 221.88C104.434 221.475 104.14 221.011 103.927 220.488C103.724 219.965 103.623 219.411 103.623 218.824C103.623 218.035 103.804 217.315 104.167 216.664C104.53 216.013 105.031 215.491 105.671 215.096C106.322 214.701 107.063 214.504 107.895 214.504C108.738 214.504 109.468 214.707 110.087 215.112C110.716 215.507 111.202 216.029 111.543 216.68C111.895 217.32 112.071 218.013 112.071 218.76C112.071 218.867 112.066 218.973 112.055 219.08C112.055 219.176 112.05 219.251 112.039 219.304H105.111C105.154 219.848 105.303 220.333 105.559 220.76C105.826 221.176 106.167 221.507 106.583 221.752C106.999 221.987 107.447 222.104 107.927 222.104C108.439 222.104 108.919 221.976 109.367 221.72C109.826 221.464 110.14 221.128 110.311 220.712L111.527 221.048C111.346 221.453 111.074 221.816 110.711 222.136C110.359 222.456 109.938 222.707 109.447 222.888C108.967 223.069 108.444 223.16 107.879 223.16ZM105.063 218.328H110.759C110.716 217.784 110.562 217.304 110.295 216.888C110.028 216.472 109.687 216.147 109.271 215.912C108.855 215.677 108.396 215.56 107.895 215.56C107.404 215.56 106.951 215.677 106.535 215.912C106.119 216.147 105.778 216.472 105.511 216.888C105.255 217.304 105.106 217.784 105.063 218.328ZM192.821 224.968V223H186.229V214.648H187.637V221.768H191.509V214.648H192.917V221.768H194.069V224.968H192.821ZM195.62 223V214.664H197.028V221.112L201.7 214.648H202.98V223H201.572V216.68L196.964 223H195.62ZM205.214 223V214.648H206.622V218.088H207.55L210.174 214.648H211.774L208.654 218.696L212.142 223H210.51L207.55 219.384H206.622V223H205.214ZM212.791 223.064V221.8C213.068 221.8 213.313 221.731 213.527 221.592C213.751 221.443 213.948 221.197 214.119 220.856C214.289 220.504 214.423 220.024 214.519 219.416C214.625 218.797 214.695 218.013 214.727 217.064L214.823 214.648H220.503V223H219.095V215.896H216.071L216.039 217.192C215.996 218.333 215.9 219.283 215.751 220.04C215.601 220.797 215.393 221.395 215.127 221.832C214.86 222.269 214.529 222.584 214.135 222.776C213.751 222.968 213.303 223.064 212.791 223.064ZM222.121 220.584C222.121 220.051 222.27 219.592 222.569 219.208C222.878 218.813 223.299 218.509 223.833 218.296C224.366 218.083 224.985 217.976 225.689 217.976C226.062 217.976 226.457 218.008 226.873 218.072C227.289 218.125 227.657 218.211 227.977 218.328V217.72C227.977 217.08 227.785 216.579 227.401 216.216C227.017 215.843 226.473 215.656 225.769 215.656C225.31 215.656 224.867 215.741 224.441 215.912C224.025 216.072 223.582 216.307 223.113 216.616L222.601 215.624C223.145 215.251 223.689 214.973 224.233 214.792C224.777 214.6 225.342 214.504 225.929 214.504C226.995 214.504 227.838 214.803 228.457 215.4C229.075 215.987 229.385 216.808 229.385 217.864V221.4C229.385 221.571 229.417 221.699 229.481 221.784C229.555 221.859 229.673 221.901 229.833 221.912V223C229.694 223.021 229.571 223.037 229.465 223.048C229.369 223.059 229.289 223.064 229.225 223.064C228.894 223.064 228.643 222.973 228.473 222.792C228.313 222.611 228.222 222.419 228.201 222.216L228.169 221.688C227.806 222.157 227.331 222.52 226.745 222.776C226.158 223.032 225.577 223.16 225.001 223.16C224.446 223.16 223.95 223.048 223.513 222.824C223.075 222.589 222.734 222.28 222.489 221.896C222.243 221.501 222.121 221.064 222.121 220.584ZM227.561 221.176C227.689 221.027 227.79 220.877 227.865 220.728C227.939 220.568 227.977 220.435 227.977 220.328V219.288C227.646 219.16 227.299 219.064 226.937 219C226.574 218.925 226.217 218.888 225.865 218.888C225.15 218.888 224.569 219.032 224.121 219.32C223.683 219.597 223.465 219.981 223.465 220.472C223.465 220.739 223.534 221 223.673 221.256C223.822 221.501 224.035 221.704 224.313 221.864C224.601 222.024 224.953 222.104 225.369 222.104C225.806 222.104 226.222 222.019 226.617 221.848C227.011 221.667 227.326 221.443 227.561 221.176ZM46.12 242V233.664H47.528V240.112L52.2 233.648H53.48V242H52.072V235.68L47.464 242H46.12ZM124.573 261V252.648H125.981V256.104H130.333V252.648H131.741V261H130.333V257.352H125.981V261H124.573ZM133.355 258.584C133.355 258.051 133.504 257.592 133.803 257.208C134.112 256.813 134.534 256.509 135.067 256.296C135.6 256.083 136.219 255.976 136.923 255.976C137.296 255.976 137.691 256.008 138.107 256.072C138.523 256.125 138.891 256.211 139.211 256.328V255.72C139.211 255.08 139.019 254.579 138.635 254.216C138.251 253.843 137.707 253.656 137.003 253.656C136.544 253.656 136.102 253.741 135.675 253.912C135.259 254.072 134.816 254.307 134.347 254.616L133.835 253.624C134.379 253.251 134.923 252.973 135.467 252.792C136.011 252.6 136.576 252.504 137.163 252.504C138.23 252.504 139.072 252.803 139.691 253.4C140.31 253.987 140.619 254.808 140.619 255.864V259.4C140.619 259.571 140.651 259.699 140.715 259.784C140.79 259.859 140.907 259.901 141.067 259.912V261C140.928 261.021 140.806 261.037 140.699 261.048C140.603 261.059 140.523 261.064 140.459 261.064C140.128 261.064 139.878 260.973 139.707 260.792C139.547 260.611 139.456 260.419 139.435 260.216L139.403 259.688C139.04 260.157 138.566 260.52 137.979 260.776C137.392 261.032 136.811 261.16 136.235 261.16C135.68 261.16 135.184 261.048 134.747 260.824C134.31 260.589 133.968 260.28 133.723 259.896C133.478 259.501 133.355 259.064 133.355 258.584ZM138.795 259.176C138.923 259.027 139.024 258.877 139.099 258.728C139.174 258.568 139.211 258.435 139.211 258.328V257.288C138.88 257.16 138.534 257.064 138.171 257C137.808 256.925 137.451 256.888 137.099 256.888C136.384 256.888 135.803 257.032 135.355 257.32C134.918 257.597 134.699 257.981 134.699 258.472C134.699 258.739 134.768 259 134.907 259.256C135.056 259.501 135.27 259.704 135.547 259.864C135.835 260.024 136.187 260.104 136.603 260.104C137.04 260.104 137.456 260.019 137.851 259.848C138.246 259.667 138.56 259.443 138.795 259.176ZM146.901 261V252.648H151.221C151.723 252.648 152.139 252.749 152.469 252.952C152.8 253.144 153.045 253.395 153.205 253.704C153.376 254.013 153.461 254.344 153.461 254.696C153.461 255.144 153.355 255.549 153.141 255.912C152.928 256.264 152.619 256.531 152.213 256.712C152.693 256.851 153.083 257.101 153.381 257.464C153.68 257.816 153.829 258.253 153.829 258.776C153.829 259.245 153.717 259.645 153.493 259.976C153.269 260.307 152.955 260.563 152.549 260.744C152.144 260.915 151.675 261 151.141 261H146.901ZM148.245 260.008H151.109C151.365 260.008 151.595 259.944 151.797 259.816C152.011 259.688 152.176 259.517 152.293 259.304C152.411 259.091 152.469 258.867 152.469 258.632C152.469 258.376 152.411 258.147 152.293 257.944C152.187 257.731 152.032 257.565 151.829 257.448C151.637 257.32 151.413 257.256 151.157 257.256H148.245V260.008ZM148.245 256.328H150.853C151.109 256.328 151.333 256.264 151.525 256.136C151.717 255.997 151.867 255.821 151.973 255.608C152.08 255.395 152.133 255.171 152.133 254.936C152.133 254.584 152.016 254.28 151.781 254.024C151.557 253.768 151.264 253.64 150.901 253.64H148.245V256.328ZM159.316 261.16C158.687 261.16 158.111 261.048 157.588 260.824C157.076 260.589 156.628 260.269 156.244 259.864C155.871 259.459 155.578 258.995 155.364 258.472C155.162 257.949 155.06 257.395 155.06 256.808C155.06 256.019 155.236 255.299 155.588 254.648C155.94 253.997 156.436 253.48 157.076 253.096C157.716 252.701 158.458 252.504 159.3 252.504C160.122 252.504 160.836 252.691 161.444 253.064C162.063 253.427 162.522 253.917 162.82 254.536L161.444 254.968C161.231 254.573 160.932 254.269 160.548 254.056C160.164 253.832 159.738 253.72 159.268 253.72C158.756 253.72 158.287 253.853 157.86 254.12C157.444 254.387 157.114 254.755 156.868 255.224C156.623 255.683 156.5 256.211 156.5 256.808C156.5 257.395 156.623 257.928 156.868 258.408C157.124 258.877 157.46 259.251 157.876 259.528C158.303 259.805 158.772 259.944 159.284 259.944C159.615 259.944 159.93 259.885 160.228 259.768C160.538 259.651 160.804 259.496 161.028 259.304C161.263 259.101 161.423 258.883 161.508 258.648L162.884 259.064C162.714 259.469 162.452 259.832 162.1 260.152C161.759 260.461 161.348 260.707 160.868 260.888C160.399 261.069 159.882 261.16 159.316 261.16ZM168.098 261.16C167.468 261.16 166.892 261.048 166.37 260.824C165.858 260.589 165.41 260.275 165.026 259.88C164.652 259.475 164.359 259.011 164.146 258.488C163.943 257.965 163.842 257.411 163.842 256.824C163.842 256.035 164.023 255.315 164.386 254.664C164.748 254.013 165.25 253.491 165.89 253.096C166.54 252.701 167.282 252.504 168.114 252.504C168.956 252.504 169.687 252.707 170.306 253.112C170.935 253.507 171.42 254.029 171.762 254.68C172.114 255.32 172.29 256.013 172.29 256.76C172.29 256.867 172.284 256.973 172.274 257.08C172.274 257.176 172.268 257.251 172.258 257.304H165.33C165.372 257.848 165.522 258.333 165.778 258.76C166.044 259.176 166.386 259.507 166.802 259.752C167.218 259.987 167.666 260.104 168.146 260.104C168.658 260.104 169.138 259.976 169.586 259.72C170.044 259.464 170.359 259.128 170.53 258.712L171.746 259.048C171.564 259.453 171.292 259.816 170.93 260.136C170.578 260.456 170.156 260.707 169.666 260.888C169.186 261.069 168.663 261.16 168.098 261.16ZM165.282 256.328H170.978C170.935 255.784 170.78 255.304 170.514 254.888C170.247 254.472 169.906 254.147 169.49 253.912C169.074 253.677 168.615 253.56 168.114 253.56C167.623 253.56 167.17 253.677 166.754 253.912C166.338 254.147 165.996 254.472 165.73 254.888C165.474 255.304 165.324 255.784 165.282 256.328ZM174.479 252.648L176.687 255.72L176.815 255.976L176.959 255.72L179.151 252.648H180.719L177.631 256.84L180.735 261H179.167L176.959 257.944L176.815 257.704L176.687 257.944L174.479 261H172.911L176.015 256.84L172.927 252.648H174.479ZM49.192 280.144C48.68 280.144 48.184 280.064 47.704 279.904C47.2347 279.744 46.8133 279.515 46.44 279.216C46.0667 278.917 45.7733 278.555 45.56 278.128L46.696 277.6C46.952 278.08 47.2933 278.437 47.72 278.672C48.1573 278.896 48.616 279.008 49.096 279.008C49.608 279.008 50.0667 278.885 50.472 278.64C50.888 278.384 51.2293 278.048 51.496 277.632C51.7627 277.205 51.9173 276.741 51.96 276.24H48.36V275.28H51.944C51.8907 274.832 51.7413 274.411 51.496 274.016C51.2613 273.611 50.9413 273.285 50.536 273.04C50.1413 272.784 49.6667 272.656 49.112 272.656C48.6533 272.656 48.216 272.757 47.8 272.96C47.3947 273.163 47.0587 273.504 46.792 273.984L45.704 273.424C46.0133 272.848 46.4613 272.384 47.048 272.032C47.6347 271.68 48.3387 271.504 49.16 271.504C49.8427 271.504 50.4453 271.627 50.968 271.872C51.5013 272.107 51.944 272.432 52.296 272.848C52.6587 273.253 52.9307 273.712 53.112 274.224C53.304 274.736 53.4 275.259 53.4 275.792C53.4 276.347 53.304 276.885 53.112 277.408C52.92 277.92 52.6373 278.384 52.264 278.8C51.9013 279.205 51.4587 279.531 50.936 279.776C50.424 280.021 49.8427 280.144 49.192 280.144ZM57.1368 280V272.896H54.2568V271.648H61.4248V272.896H58.5448V280H57.1368ZM62.1831 277.584C62.1831 277.051 62.3325 276.592 62.6311 276.208C62.9405 275.813 63.3618 275.509 63.8951 275.296C64.4285 275.083 65.0471 274.976 65.7511 274.976C66.1245 274.976 66.5191 275.008 66.9351 275.072C67.3511 275.125 67.7191 275.211 68.0391 275.328V274.72C68.0391 274.08 67.8471 273.579 67.4631 273.216C67.0791 272.843 66.5351 272.656 65.8311 272.656C65.3725 272.656 64.9298 272.741 64.5031 272.912C64.0871 273.072 63.6445 273.307 63.1751 273.616L62.6631 272.624C63.2071 272.251 63.7511 271.973 64.2951 271.792C64.8391 271.6 65.4045 271.504 65.9911 271.504C67.0578 271.504 67.9005 271.803 68.5191 272.4C69.1378 272.987 69.4471 273.808 69.4471 274.864V278.4C69.4471 278.571 69.4791 278.699 69.5431 278.784C69.6178 278.859 69.7351 278.901 69.8951 278.912V280C69.7565 280.021 69.6338 280.037 69.5271 280.048C69.4311 280.059 69.3511 280.064 69.2871 280.064C68.9565 280.064 68.7058 279.973 68.5351 279.792C68.3751 279.611 68.2845 279.419 68.2631 279.216L68.2311 278.688C67.8685 279.157 67.3938 279.52 66.8071 279.776C66.2205 280.032 65.6391 280.16 65.0631 280.16C64.5085 280.16 64.0125 280.048 63.5751 279.824C63.1378 279.589 62.7965 279.28 62.5511 278.896C62.3058 278.501 62.1831 278.064 62.1831 277.584ZM67.6231 278.176C67.7511 278.027 67.8525 277.877 67.9271 277.728C68.0018 277.568 68.0391 277.435 68.0391 277.328V276.288C67.7085 276.16 67.3618 276.064 66.9991 276C66.6365 275.925 66.2791 275.888 65.9271 275.888C65.2125 275.888 64.6311 276.032 64.1831 276.32C63.7458 276.597 63.5271 276.981 63.5271 277.472C63.5271 277.739 63.5965 278 63.7351 278.256C63.8845 278.501 64.0978 278.704 64.3751 278.864C64.6631 279.024 65.0151 279.104 65.4311 279.104C65.8685 279.104 66.2845 279.019 66.6791 278.848C67.0738 278.667 67.3885 278.443 67.6231 278.176ZM71.6825 280V271.648H78.6105V280H77.2025V272.896H73.0905V280H71.6825ZM80.23 277.584C80.23 277.051 80.3793 276.592 80.678 276.208C80.9873 275.813 81.4087 275.509 81.942 275.296C82.4753 275.083 83.094 274.976 83.798 274.976C84.1713 274.976 84.566 275.008 84.982 275.072C85.398 275.125 85.766 275.211 86.086 275.328V274.72C86.086 274.08 85.894 273.579 85.51 273.216C85.126 272.843 84.582 272.656 83.878 272.656C83.4193 272.656 82.9767 272.741 82.55 272.912C82.134 273.072 81.6913 273.307 81.222 273.616L80.71 272.624C81.254 272.251 81.798 271.973 82.342 271.792C82.886 271.6 83.4513 271.504 84.038 271.504C85.1047 271.504 85.9473 271.803 86.566 272.4C87.1847 272.987 87.494 273.808 87.494 274.864V278.4C87.494 278.571 87.526 278.699 87.59 278.784C87.6647 278.859 87.782 278.901 87.942 278.912V280C87.8033 280.021 87.6807 280.037 87.574 280.048C87.478 280.059 87.398 280.064 87.334 280.064C87.0033 280.064 86.7527 279.973 86.582 279.792C86.422 279.611 86.3313 279.419 86.31 279.216L86.278 278.688C85.9153 279.157 85.4407 279.52 84.854 279.776C84.2673 280.032 83.686 280.16 83.11 280.16C82.5553 280.16 82.0593 280.048 81.622 279.824C81.1847 279.589 80.8433 279.28 80.598 278.896C80.3527 278.501 80.23 278.064 80.23 277.584ZM85.67 278.176C85.798 278.027 85.8993 277.877 85.974 277.728C86.0487 277.568 86.086 277.435 86.086 277.328V276.288C85.7553 276.16 85.4087 276.064 85.046 276C84.6833 275.925 84.326 275.888 83.974 275.888C83.2593 275.888 82.678 276.032 82.23 276.32C81.7927 276.597 81.574 276.981 81.574 277.472C81.574 277.739 81.6433 278 81.782 278.256C81.9313 278.501 82.1447 278.704 82.422 278.864C82.71 279.024 83.062 279.104 83.478 279.104C83.9153 279.104 84.3313 279.019 84.726 278.848C85.1207 278.667 85.4353 278.443 85.67 278.176ZM90.3694 271.648L92.5774 274.72L92.7054 274.976L92.8494 274.72L95.0414 271.648H96.6094L93.5214 275.84L96.6254 280H95.0574L92.8494 276.944L92.7054 276.704L92.5774 276.944L90.3694 280H88.8014L91.9054 275.84L88.8174 271.648H90.3694ZM101.259 280.064V278.8C101.537 278.8 101.782 278.731 101.995 278.592C102.219 278.443 102.417 278.197 102.587 277.856C102.758 277.504 102.891 277.024 102.987 276.416C103.094 275.797 103.163 275.013 103.195 274.064L103.291 271.648H108.971V280H107.563V272.896H104.539L104.507 274.192C104.465 275.333 104.369 276.283 104.219 277.04C104.07 277.797 103.862 278.395 103.595 278.832C103.329 279.269 102.998 279.584 102.603 279.776C102.219 279.968 101.771 280.064 101.259 280.064ZM114.941 280.16C114.312 280.16 113.736 280.048 113.213 279.824C112.701 279.589 112.253 279.275 111.869 278.88C111.496 278.475 111.203 278.011 110.989 277.488C110.787 276.965 110.685 276.411 110.685 275.824C110.685 275.035 110.867 274.315 111.229 273.664C111.592 273.013 112.093 272.491 112.733 272.096C113.384 271.701 114.125 271.504 114.957 271.504C115.8 271.504 116.531 271.707 117.149 272.112C117.779 272.507 118.264 273.029 118.605 273.68C118.957 274.32 119.133 275.013 119.133 275.76C119.133 275.867 119.128 275.973 119.117 276.08C119.117 276.176 119.112 276.251 119.101 276.304H112.173C112.216 276.848 112.365 277.333 112.621 277.76C112.888 278.176 113.229 278.507 113.645 278.752C114.061 278.987 114.509 279.104 114.989 279.104C115.501 279.104 115.981 278.976 116.429 278.72C116.888 278.464 117.203 278.128 117.373 277.712L118.589 278.048C118.408 278.453 118.136 278.816 117.773 279.136C117.421 279.456 117 279.707 116.509 279.888C116.029 280.069 115.507 280.16 114.941 280.16ZM112.125 275.328H117.821C117.779 274.784 117.624 274.304 117.357 273.888C117.091 273.472 116.749 273.147 116.333 272.912C115.917 272.677 115.459 272.56 114.957 272.56C114.467 272.56 114.013 272.677 113.597 272.912C113.181 273.147 112.84 273.472 112.573 273.888C112.317 274.304 112.168 274.784 112.125 275.328ZM125.435 280V276.656C125.104 276.816 124.757 276.933 124.395 277.008C124.043 277.083 123.653 277.12 123.227 277.12C122.32 277.12 121.627 276.885 121.147 276.416C120.677 275.936 120.443 275.221 120.443 274.272V271.648H121.851V274.08C121.851 274.752 121.989 275.243 122.267 275.552C122.544 275.861 122.987 276.016 123.595 276.016C123.936 276.016 124.272 275.979 124.603 275.904C124.944 275.829 125.221 275.728 125.435 275.6V271.648H126.859V280H125.435ZM132.832 280.16C132.203 280.16 131.627 280.048 131.104 279.824C130.592 279.589 130.144 279.275 129.76 278.88C129.387 278.475 129.093 278.011 128.88 277.488C128.677 276.965 128.576 276.411 128.576 275.824C128.576 275.035 128.757 274.315 129.12 273.664C129.483 273.013 129.984 272.491 130.624 272.096C131.275 271.701 132.016 271.504 132.848 271.504C133.691 271.504 134.421 271.707 135.04 272.112C135.669 272.507 136.155 273.029 136.496 273.68C136.848 274.32 137.024 275.013 137.024 275.76C137.024 275.867 137.019 275.973 137.008 276.08C137.008 276.176 137.003 276.251 136.992 276.304H130.064C130.107 276.848 130.256 277.333 130.512 277.76C130.779 278.176 131.12 278.507 131.536 278.752C131.952 278.987 132.4 279.104 132.88 279.104C133.392 279.104 133.872 278.976 134.32 278.72C134.779 278.464 135.093 278.128 135.264 277.712L136.48 278.048C136.299 278.453 136.027 278.816 135.664 279.136C135.312 279.456 134.891 279.707 134.4 279.888C133.92 280.069 133.397 280.16 132.832 280.16ZM130.016 275.328H135.712C135.669 274.784 135.515 274.304 135.248 273.888C134.981 273.472 134.64 273.147 134.224 272.912C133.808 272.677 133.349 272.56 132.848 272.56C132.357 272.56 131.904 272.677 131.488 272.912C131.072 273.147 130.731 273.472 130.464 273.888C130.208 274.304 130.059 274.784 130.016 275.328ZM138.573 280V271.648H139.981V275.104H144.333V271.648H145.741V280H144.333V276.352H139.981V280H138.573ZM147.995 280V271.664H149.403V278.112L154.075 271.648H155.355V280H153.947V273.68L149.339 280H147.995ZM156.981 280L159.349 276.64C158.805 276.533 158.367 276.277 158.037 275.872C157.706 275.456 157.541 274.901 157.541 274.208C157.541 273.707 157.658 273.264 157.893 272.88C158.127 272.496 158.453 272.192 158.869 271.968C159.295 271.744 159.791 271.632 160.357 271.632H163.781V280H162.373V276.864H160.741L158.533 280H156.981ZM160.453 275.824H162.373V272.736H160.613C160.111 272.736 159.711 272.88 159.413 273.168C159.114 273.445 158.965 273.803 158.965 274.24C158.965 274.677 159.087 275.051 159.333 275.36C159.589 275.669 159.962 275.824 160.453 275.824Z" fill="#262626"/>
<path d="M117.523 223V214.616H125.043V223H122.899V216.488H119.667V223H117.523ZM130.864 223.16C130.181 223.16 129.568 223.048 129.024 222.824C128.48 222.589 128.016 222.269 127.632 221.864C127.258 221.459 126.97 220.995 126.768 220.472C126.565 219.949 126.464 219.4 126.464 218.824C126.464 218.237 126.565 217.683 126.768 217.16C126.97 216.637 127.258 216.173 127.632 215.768C128.016 215.363 128.48 215.048 129.024 214.824C129.568 214.589 130.181 214.472 130.864 214.472C131.546 214.472 132.154 214.589 132.688 214.824C133.232 215.048 133.696 215.363 134.08 215.768C134.464 216.173 134.752 216.637 134.944 217.16C135.146 217.683 135.248 218.237 135.248 218.824C135.248 219.4 135.146 219.949 134.944 220.472C134.752 220.995 134.464 221.459 134.08 221.864C133.706 222.269 133.248 222.589 132.704 222.824C132.16 223.048 131.546 223.16 130.864 223.16ZM128.672 218.824C128.672 219.315 128.768 219.752 128.96 220.136C129.152 220.509 129.413 220.803 129.744 221.016C130.074 221.229 130.448 221.336 130.864 221.336C131.269 221.336 131.637 221.229 131.968 221.016C132.298 220.792 132.56 220.493 132.752 220.12C132.954 219.736 133.056 219.299 133.056 218.808C133.056 218.328 132.954 217.896 132.752 217.512C132.56 217.128 132.298 216.829 131.968 216.616C131.637 216.403 131.269 216.296 130.864 216.296C130.448 216.296 130.074 216.408 129.744 216.632C129.413 216.845 129.152 217.144 128.96 217.528C128.768 217.901 128.672 218.333 128.672 218.824ZM136.087 223.112V221.208C136.343 221.197 136.572 221.133 136.775 221.016C136.977 220.899 137.153 220.701 137.303 220.424C137.463 220.136 137.585 219.736 137.671 219.224C137.767 218.712 137.831 218.056 137.863 217.256L137.975 214.616H144.263V223H142.119V216.488H139.863L139.831 217.464C139.788 218.563 139.681 219.475 139.511 220.2C139.34 220.925 139.1 221.501 138.791 221.928C138.492 222.344 138.119 222.643 137.671 222.824C137.223 223.005 136.695 223.101 136.087 223.112ZM146.21 223V214.616H148.354V217.816H151.746V214.616H153.89V223H151.746V219.608H148.354V223H146.21ZM159.723 223.16C159.04 223.16 158.427 223.048 157.883 222.824C157.339 222.589 156.875 222.269 156.491 221.864C156.118 221.459 155.83 220.995 155.627 220.472C155.424 219.949 155.323 219.4 155.323 218.824C155.323 218.237 155.424 217.683 155.627 217.16C155.83 216.637 156.118 216.173 156.491 215.768C156.875 215.363 157.339 215.048 157.883 214.824C158.427 214.589 159.04 214.472 159.723 214.472C160.406 214.472 161.014 214.589 161.547 214.824C162.091 215.048 162.555 215.363 162.939 215.768C163.323 216.173 163.611 216.637 163.803 217.16C164.006 217.683 164.107 218.237 164.107 218.824C164.107 219.4 164.006 219.949 163.803 220.472C163.611 220.995 163.323 221.459 162.939 221.864C162.566 222.269 162.107 222.589 161.563 222.824C161.019 223.048 160.406 223.16 159.723 223.16ZM157.531 218.824C157.531 219.315 157.627 219.752 157.819 220.136C158.011 220.509 158.272 220.803 158.603 221.016C158.934 221.229 159.307 221.336 159.723 221.336C160.128 221.336 160.496 221.229 160.827 221.016C161.158 220.792 161.419 220.493 161.611 220.12C161.814 219.736 161.915 219.299 161.915 218.808C161.915 218.328 161.814 217.896 161.611 217.512C161.419 217.128 161.158 216.829 160.827 216.616C160.496 216.403 160.128 216.296 159.723 216.296C159.307 216.296 158.934 216.408 158.603 216.632C158.272 216.845 158.011 217.144 157.819 217.528C157.627 217.901 157.531 218.333 157.531 218.824ZM165.554 223V214.616H171.106V216.488H167.698V223H165.554ZM176.207 223.16C175.525 223.16 174.911 223.048 174.367 222.824C173.823 222.589 173.359 222.269 172.975 221.864C172.602 221.459 172.314 220.995 172.111 220.472C171.909 219.949 171.807 219.4 171.807 218.824C171.807 218.237 171.909 217.683 172.111 217.16C172.314 216.637 172.602 216.173 172.975 215.768C173.359 215.363 173.823 215.048 174.367 214.824C174.911 214.589 175.525 214.472 176.207 214.472C176.89 214.472 177.498 214.589 178.031 214.824C178.575 215.048 179.039 215.363 179.423 215.768C179.807 216.173 180.095 216.637 180.287 217.16C180.49 217.683 180.591 218.237 180.591 218.824C180.591 219.4 180.49 219.949 180.287 220.472C180.095 220.995 179.807 221.459 179.423 221.864C179.05 222.269 178.591 222.589 178.047 222.824C177.503 223.048 176.89 223.16 176.207 223.16ZM174.015 218.824C174.015 219.315 174.111 219.752 174.303 220.136C174.495 220.509 174.757 220.803 175.087 221.016C175.418 221.229 175.791 221.336 176.207 221.336C176.613 221.336 176.981 221.229 177.311 221.016C177.642 220.792 177.903 220.493 178.095 220.12C178.298 219.736 178.399 219.299 178.399 218.808C178.399 218.328 178.298 217.896 178.095 217.512C177.903 217.128 177.642 216.829 177.311 216.616C176.981 216.403 176.613 216.296 176.207 216.296C175.791 216.296 175.418 216.408 175.087 216.632C174.757 216.845 174.495 217.144 174.303 217.528C174.111 217.901 174.015 218.333 174.015 218.824Z" fill="#8BA486"/>
<path d="M63.5206 242.16C62.838 242.16 62.2246 242.048 61.6806 241.824C61.1366 241.589 60.6726 241.269 60.2886 240.864C59.9046 240.448 59.606 239.979 59.3926 239.456C59.19 238.933 59.0886 238.384 59.0886 237.808C59.0886 237.019 59.2646 236.299 59.6166 235.648C59.9793 234.987 60.4913 234.459 61.1526 234.064C61.814 233.669 62.598 233.472 63.5046 233.472C64.4113 233.472 65.19 233.669 65.8406 234.064C66.4913 234.459 66.9766 234.976 67.2966 235.616L65.2006 236.256C65.0193 235.947 64.7793 235.712 64.4806 235.552C64.182 235.381 63.8513 235.296 63.4886 235.296C63.0833 235.296 62.71 235.403 62.3686 235.616C62.038 235.819 61.7766 236.112 61.5846 236.496C61.3926 236.869 61.2966 237.307 61.2966 237.808C61.2966 238.299 61.3926 238.736 61.5846 239.12C61.7873 239.493 62.054 239.792 62.3846 240.016C62.7153 240.229 63.0833 240.336 63.4886 240.336C63.7446 240.336 63.9846 240.293 64.2086 240.208C64.4433 240.123 64.6513 240.005 64.8326 239.856C65.014 239.707 65.1473 239.536 65.2326 239.344L67.3286 239.984C67.1366 240.4 66.854 240.773 66.4806 241.104C66.118 241.435 65.686 241.696 65.1846 241.888C64.694 242.069 64.1393 242.16 63.5206 242.16ZM72.4418 242.16C71.7591 242.16 71.1458 242.048 70.6018 241.824C70.0578 241.589 69.5938 241.269 69.2098 240.864C68.8364 240.459 68.5484 239.995 68.3458 239.472C68.1431 238.949 68.0418 238.4 68.0418 237.824C68.0418 237.237 68.1431 236.683 68.3458 236.16C68.5484 235.637 68.8364 235.173 69.2098 234.768C69.5938 234.363 70.0578 234.048 70.6018 233.824C71.1458 233.589 71.7591 233.472 72.4418 233.472C73.1244 233.472 73.7324 233.589 74.2658 233.824C74.8098 234.048 75.2738 234.363 75.6578 234.768C76.0418 235.173 76.3298 235.637 76.5218 236.16C76.7244 236.683 76.8258 237.237 76.8258 237.824C76.8258 238.4 76.7244 238.949 76.5218 239.472C76.3298 239.995 76.0418 240.459 75.6578 240.864C75.2844 241.269 74.8258 241.589 74.2818 241.824C73.7378 242.048 73.1244 242.16 72.4418 242.16ZM70.2498 237.824C70.2498 238.315 70.3458 238.752 70.5378 239.136C70.7298 239.509 70.9911 239.803 71.3218 240.016C71.6524 240.229 72.0258 240.336 72.4418 240.336C72.8471 240.336 73.2151 240.229 73.5458 240.016C73.8764 239.792 74.1378 239.493 74.3298 239.12C74.5324 238.736 74.6338 238.299 74.6338 237.808C74.6338 237.328 74.5324 236.896 74.3298 236.512C74.1378 236.128 73.8764 235.829 73.5458 235.616C73.2151 235.403 72.8471 235.296 72.4418 235.296C72.0258 235.296 71.6524 235.408 71.3218 235.632C70.9911 235.845 70.7298 236.144 70.5378 236.528C70.3458 236.901 70.2498 237.333 70.2498 237.824ZM78.2729 242V233.616H85.7929V242H83.6489V235.488H80.4169V242H78.2729ZM92.7656 242.16C92.115 242.16 91.539 242.016 91.0376 241.728C90.547 241.429 90.163 241.029 89.8856 240.528V245.408H87.7416V233.616H89.6136V235.056C89.9336 234.565 90.339 234.181 90.8296 233.904C91.3203 233.616 91.8803 233.472 92.5096 233.472C93.075 233.472 93.5923 233.584 94.0616 233.808C94.5416 234.032 94.9576 234.347 95.3096 234.752C95.6616 235.147 95.9336 235.605 96.1256 236.128C96.3283 236.64 96.4296 237.195 96.4296 237.792C96.4296 238.603 96.2696 239.339 95.9496 240C95.6403 240.661 95.2083 241.189 94.6536 241.584C94.1096 241.968 93.4803 242.16 92.7656 242.16ZM92.0456 240.336C92.3763 240.336 92.675 240.267 92.9416 240.128C93.2083 239.989 93.4376 239.803 93.6296 239.568C93.8323 239.323 93.9816 239.051 94.0776 238.752C94.1843 238.443 94.2376 238.123 94.2376 237.792C94.2376 237.44 94.179 237.115 94.0616 236.816C93.955 236.517 93.795 236.256 93.5816 236.032C93.3683 235.797 93.1176 235.616 92.8296 235.488C92.5523 235.36 92.2483 235.296 91.9176 235.296C91.715 235.296 91.507 235.333 91.2936 235.408C91.091 235.472 90.8936 235.568 90.7016 235.696C90.5096 235.824 90.339 235.973 90.1896 236.144C90.051 236.315 89.9496 236.501 89.8856 236.704V238.672C90.0136 238.981 90.1843 239.264 90.3976 239.52C90.6216 239.776 90.8776 239.979 91.1656 240.128C91.4536 240.267 91.747 240.336 92.0456 240.336ZM101.754 242.16C101.072 242.16 100.458 242.048 99.9143 241.824C99.3703 241.589 98.9063 241.269 98.5223 240.864C98.1489 240.459 97.8609 239.995 97.6583 239.472C97.4556 238.949 97.3543 238.4 97.3543 237.824C97.3543 237.237 97.4556 236.683 97.6583 236.16C97.8609 235.637 98.1489 235.173 98.5223 234.768C98.9063 234.363 99.3703 234.048 99.9143 233.824C100.458 233.589 101.072 233.472 101.754 233.472C102.437 233.472 103.045 233.589 103.578 233.824C104.122 234.048 104.586 234.363 104.97 234.768C105.354 235.173 105.642 235.637 105.834 236.16C106.037 236.683 106.138 237.237 106.138 237.824C106.138 238.4 106.037 238.949 105.834 239.472C105.642 239.995 105.354 240.459 104.97 240.864C104.597 241.269 104.138 241.589 103.594 241.824C103.05 242.048 102.437 242.16 101.754 242.16ZM99.5623 237.824C99.5623 238.315 99.6583 238.752 99.8503 239.136C100.042 239.509 100.304 239.803 100.634 240.016C100.965 240.229 101.338 240.336 101.754 240.336C102.16 240.336 102.528 240.229 102.858 240.016C103.189 239.792 103.45 239.493 103.642 239.12C103.845 238.736 103.946 238.299 103.946 237.808C103.946 237.328 103.845 236.896 103.642 236.512C103.45 236.128 103.189 235.829 102.858 235.616C102.528 235.403 102.16 235.296 101.754 235.296C101.338 235.296 100.965 235.408 100.634 235.632C100.304 235.845 100.042 236.144 99.8503 236.528C99.6583 236.901 99.5623 237.333 99.5623 237.824ZM107.585 242V233.616H112.257C112.833 233.616 113.297 233.712 113.649 233.904C114.012 234.096 114.279 234.347 114.449 234.656C114.62 234.965 114.705 235.296 114.705 235.648C114.705 236.117 114.599 236.528 114.385 236.88C114.183 237.232 113.863 237.504 113.425 237.696C113.916 237.835 114.316 238.075 114.625 238.416C114.935 238.747 115.089 239.184 115.089 239.728C115.089 240.251 114.967 240.683 114.721 241.024C114.476 241.355 114.124 241.6 113.665 241.76C113.207 241.92 112.663 242 112.033 242H107.585ZM109.617 240.544H111.969C112.161 240.544 112.337 240.496 112.497 240.4C112.657 240.304 112.78 240.176 112.865 240.016C112.961 239.856 113.009 239.68 113.009 239.488C113.009 239.285 112.967 239.109 112.881 238.96C112.796 238.8 112.673 238.677 112.513 238.592C112.364 238.496 112.188 238.448 111.985 238.448H109.617V240.544ZM109.617 237.104H111.713C111.905 237.104 112.076 237.056 112.225 236.96C112.375 236.864 112.487 236.736 112.561 236.576C112.647 236.416 112.689 236.24 112.689 236.048C112.689 235.771 112.599 235.541 112.417 235.36C112.247 235.168 112.017 235.072 111.729 235.072H109.617V237.104ZM120.52 242.16C119.837 242.16 119.224 242.048 118.68 241.824C118.136 241.589 117.672 241.269 117.288 240.864C116.915 240.459 116.627 239.995 116.424 239.472C116.221 238.949 116.12 238.4 116.12 237.824C116.12 237.237 116.221 236.683 116.424 236.16C116.627 235.637 116.915 235.173 117.288 234.768C117.672 234.363 118.136 234.048 118.68 233.824C119.224 233.589 119.837 233.472 120.52 233.472C121.203 233.472 121.811 233.589 122.344 233.824C122.888 234.048 123.352 234.363 123.736 234.768C124.12 235.173 124.408 235.637 124.6 236.16C124.803 236.683 124.904 237.237 124.904 237.824C124.904 238.4 124.803 238.949 124.6 239.472C124.408 239.995 124.12 240.459 123.736 240.864C123.363 241.269 122.904 241.589 122.36 241.824C121.816 242.048 121.203 242.16 120.52 242.16ZM118.328 237.824C118.328 238.315 118.424 238.752 118.616 239.136C118.808 239.509 119.069 239.803 119.4 240.016C119.731 240.229 120.104 240.336 120.52 240.336C120.925 240.336 121.293 240.229 121.624 240.016C121.955 239.792 122.216 239.493 122.408 239.12C122.611 238.736 122.712 238.299 122.712 237.808C122.712 237.328 122.611 236.896 122.408 236.512C122.216 236.128 121.955 235.829 121.624 235.616C121.293 235.403 120.925 235.296 120.52 235.296C120.104 235.296 119.731 235.408 119.4 235.632C119.069 235.845 118.808 236.144 118.616 236.528C118.424 236.901 118.328 237.333 118.328 237.824ZM125.727 242L128.671 237.664L125.935 233.616H128.319L130.463 236.8H131.119V233.616H133.327V236.8H134.031L136.127 233.616H138.527L135.791 237.664L138.751 242H136.303L134.031 238.656H133.327V242H131.135V238.656H130.463L128.159 242H125.727ZM139.366 244.032V240.128H139.59C139.803 240.128 140.001 240.069 140.182 239.952C140.374 239.835 140.539 239.637 140.678 239.36C140.827 239.072 140.945 238.677 141.03 238.176C141.126 237.675 141.19 237.035 141.222 236.256L141.318 233.616H147.606V240.128H148.774V244.032H146.902V242H141.254V244.032H139.366ZM142.294 240.128H145.462V235.424H143.19L143.142 236.464C143.11 237.168 143.057 237.765 142.982 238.256C142.918 238.736 142.827 239.131 142.71 239.44C142.603 239.739 142.465 239.968 142.294 240.128ZM154.052 242.16C153.38 242.16 152.772 242.048 152.228 241.824C151.684 241.589 151.22 241.275 150.836 240.88C150.452 240.475 150.153 240.016 149.94 239.504C149.737 238.981 149.636 238.432 149.636 237.856C149.636 237.056 149.812 236.325 150.164 235.664C150.526 235.003 151.038 234.475 151.7 234.08C152.372 233.675 153.161 233.472 154.068 233.472C154.985 233.472 155.769 233.675 156.42 234.08C157.07 234.475 157.566 235.003 157.908 235.664C158.26 236.315 158.436 237.019 158.436 237.776C158.436 237.904 158.43 238.037 158.42 238.176C158.409 238.304 158.398 238.411 158.388 238.496H151.908C151.95 238.923 152.073 239.296 152.276 239.616C152.489 239.936 152.756 240.181 153.076 240.352C153.406 240.512 153.758 240.592 154.132 240.592C154.558 240.592 154.958 240.491 155.332 240.288C155.716 240.075 155.977 239.797 156.116 239.456L157.956 239.968C157.753 240.395 157.46 240.773 157.076 241.104C156.702 241.435 156.26 241.696 155.748 241.888C155.236 242.069 154.67 242.16 154.052 242.16ZM151.86 237.136H156.244C156.201 236.709 156.078 236.341 155.876 236.032C155.684 235.712 155.428 235.467 155.108 235.296C154.788 235.115 154.43 235.024 154.036 235.024C153.652 235.024 153.3 235.115 152.98 235.296C152.67 235.467 152.414 235.712 152.212 236.032C152.02 236.341 151.902 236.709 151.86 237.136ZM159.742 242V233.616H161.886V236.816H165.278V233.616H167.422V242H165.278V238.608H161.886V242H159.742ZM169.382 242V233.632H171.526V239.136L175.286 233.616H177.238V242H175.094V236.624L171.382 242H169.382ZM183.083 242.16C182.411 242.16 181.803 242.048 181.259 241.824C180.715 241.589 180.251 241.275 179.867 240.88C179.483 240.475 179.184 240.016 178.971 239.504C178.768 238.981 178.667 238.432 178.667 237.856C178.667 237.056 178.843 236.325 179.195 235.664C179.557 235.003 180.069 234.475 180.731 234.08C181.403 233.675 182.192 233.472 183.099 233.472C184.016 233.472 184.8 233.675 185.451 234.08C186.101 234.475 186.597 235.003 186.939 235.664C187.291 236.315 187.467 237.019 187.467 237.776C187.467 237.904 187.461 238.037 187.451 238.176C187.44 238.304 187.429 238.411 187.419 238.496H180.939C180.981 238.923 181.104 239.296 181.307 239.616C181.52 239.936 181.787 240.181 182.107 240.352C182.437 240.512 182.789 240.592 183.163 240.592C183.589 240.592 183.989 240.491 184.363 240.288C184.747 240.075 185.008 239.797 185.147 239.456L186.987 239.968C186.784 240.395 186.491 240.773 186.107 241.104C185.733 241.435 185.291 241.696 184.779 241.888C184.267 242.069 183.701 242.16 183.083 242.16ZM180.891 237.136H185.275C185.232 236.709 185.109 236.341 184.907 236.032C184.715 235.712 184.459 235.467 184.139 235.296C183.819 235.115 183.461 235.024 183.067 235.024C182.683 235.024 182.331 235.115 182.011 235.296C181.701 235.467 181.445 235.712 181.243 236.032C181.051 236.341 180.933 236.709 180.891 237.136ZM45.976 261V252.616H53.496V261H51.352V254.488H48.12V261H45.976ZM54.8688 258.52C54.8688 257.976 55.0181 257.501 55.3168 257.096C55.6261 256.68 56.0528 256.36 56.5968 256.136C57.1408 255.912 57.7648 255.8 58.4688 255.8C58.8208 255.8 59.1781 255.827 59.5408 255.88C59.9034 255.933 60.2181 256.019 60.4848 256.136V255.688C60.4848 255.155 60.3248 254.744 60.0048 254.456C59.6954 254.168 59.2314 254.024 58.6128 254.024C58.1541 254.024 57.7168 254.104 57.3008 254.264C56.8848 254.424 56.4474 254.659 55.9888 254.968L55.3008 253.56C55.8554 253.197 56.4208 252.925 56.9968 252.744C57.5834 252.563 58.1968 252.472 58.8368 252.472C60.0314 252.472 60.9594 252.771 61.6208 253.368C62.2928 253.965 62.6288 254.819 62.6288 255.928V258.6C62.6288 258.824 62.6661 258.984 62.7408 259.08C62.8261 259.176 62.9594 259.235 63.1408 259.256V261C62.9488 261.032 62.7728 261.059 62.6128 261.08C62.4634 261.101 62.3354 261.112 62.2288 261.112C61.8021 261.112 61.4768 261.016 61.2528 260.824C61.0394 260.632 60.9061 260.397 60.8528 260.12L60.8048 259.688C60.4421 260.157 59.9888 260.52 59.4448 260.776C58.9008 261.032 58.3461 261.16 57.7808 261.16C57.2261 261.16 56.7248 261.048 56.2768 260.824C55.8394 260.589 55.4928 260.275 55.2368 259.88C54.9914 259.475 54.8688 259.021 54.8688 258.52ZM60.0848 258.952C60.2021 258.824 60.2981 258.696 60.3728 258.568C60.4474 258.44 60.4848 258.323 60.4848 258.216V257.368C60.2288 257.261 59.9514 257.181 59.6528 257.128C59.3541 257.064 59.0714 257.032 58.8048 257.032C58.2501 257.032 57.7914 257.155 57.4288 257.4C57.0768 257.635 56.9008 257.949 56.9008 258.344C56.9008 258.557 56.9594 258.76 57.0768 258.952C57.1941 259.144 57.3648 259.299 57.5888 259.416C57.8128 259.533 58.0794 259.592 58.3888 259.592C58.7088 259.592 59.0234 259.533 59.3328 259.416C59.6421 259.288 59.8928 259.133 60.0848 258.952ZM71.1603 263.032V261H64.6323V252.616H66.7763V259.128H69.7203V252.616H71.8643V259.128H73.0483V263.032H71.1603ZM74.4448 261V252.632H76.5888V258.136L80.3488 252.616H82.3008V261H80.1568V255.624L76.4448 261H74.4448ZM88.1453 261.16C87.4733 261.16 86.8653 261.048 86.3213 260.824C85.7773 260.589 85.3133 260.275 84.9293 259.88C84.5453 259.475 84.2466 259.016 84.0333 258.504C83.8306 257.981 83.7293 257.432 83.7293 256.856C83.7293 256.056 83.9053 255.325 84.2573 254.664C84.6199 254.003 85.1319 253.475 85.7933 253.08C86.4653 252.675 87.2546 252.472 88.1613 252.472C89.0786 252.472 89.8626 252.675 90.5133 253.08C91.1639 253.475 91.6599 254.003 92.0013 254.664C92.3533 255.315 92.5293 256.019 92.5293 256.776C92.5293 256.904 92.5239 257.037 92.5133 257.176C92.5026 257.304 92.4919 257.411 92.4813 257.496H86.0013C86.0439 257.923 86.1666 258.296 86.3693 258.616C86.5826 258.936 86.8493 259.181 87.1693 259.352C87.4999 259.512 87.8519 259.592 88.2253 259.592C88.6519 259.592 89.0519 259.491 89.4253 259.288C89.8093 259.075 90.0706 258.797 90.2093 258.456L92.0493 258.968C91.8466 259.395 91.5533 259.773 91.1693 260.104C90.7959 260.435 90.3533 260.696 89.8413 260.888C89.3293 261.069 88.7639 261.16 88.1453 261.16ZM85.9533 256.136H90.3373C90.2946 255.709 90.1719 255.341 89.9693 255.032C89.7773 254.712 89.5213 254.467 89.2013 254.296C88.8813 254.115 88.5239 254.024 88.1293 254.024C87.7453 254.024 87.3933 254.115 87.0733 254.296C86.7639 254.467 86.5079 254.712 86.3053 255.032C86.1133 255.341 85.9959 255.709 85.9533 256.136ZM93.8354 261V252.616H95.9794V255.816H99.3714V252.616H101.515V261H99.3714V257.608H95.9794V261H93.8354ZM105.412 261V254.488H102.756V252.616H110.228V254.488H107.556V261H105.412ZM110.822 258.52C110.822 257.976 110.971 257.501 111.27 257.096C111.579 256.68 112.006 256.36 112.55 256.136C113.094 255.912 113.718 255.8 114.422 255.8C114.774 255.8 115.131 255.827 115.494 255.88C115.857 255.933 116.171 256.019 116.438 256.136V255.688C116.438 255.155 116.278 254.744 115.958 254.456C115.649 254.168 115.185 254.024 114.566 254.024C114.107 254.024 113.67 254.104 113.254 254.264C112.838 254.424 112.401 254.659 111.942 254.968L111.254 253.56C111.809 253.197 112.374 252.925 112.95 252.744C113.537 252.563 114.15 252.472 114.79 252.472C115.985 252.472 116.913 252.771 117.574 253.368C118.246 253.965 118.582 254.819 118.582 255.928V258.6C118.582 258.824 118.619 258.984 118.694 259.08C118.779 259.176 118.913 259.235 119.094 259.256V261C118.902 261.032 118.726 261.059 118.566 261.08C118.417 261.101 118.289 261.112 118.182 261.112C117.755 261.112 117.43 261.016 117.206 260.824C116.993 260.632 116.859 260.397 116.806 260.12L116.758 259.688C116.395 260.157 115.942 260.52 115.398 260.776C114.854 261.032 114.299 261.16 113.734 261.16C113.179 261.16 112.678 261.048 112.23 260.824C111.793 260.589 111.446 260.275 111.19 259.88C110.945 259.475 110.822 259.021 110.822 258.52ZM116.038 258.952C116.155 258.824 116.251 258.696 116.326 258.568C116.401 258.44 116.438 258.323 116.438 258.216V257.368C116.182 257.261 115.905 257.181 115.606 257.128C115.307 257.064 115.025 257.032 114.758 257.032C114.203 257.032 113.745 257.155 113.382 257.4C113.03 257.635 112.854 257.949 112.854 258.344C112.854 258.557 112.913 258.76 113.03 258.952C113.147 259.144 113.318 259.299 113.542 259.416C113.766 259.533 114.033 259.592 114.342 259.592C114.662 259.592 114.977 259.533 115.286 259.416C115.595 259.288 115.846 259.133 116.038 258.952Z" fill="#85A080"/>
<path d="M61.092 190.436V194H47.34V190.436H52.452V177.872C52.236 178.16 51.9 178.46 51.444 178.772C50.988 179.084 50.472 179.384 49.896 179.672C49.344 179.936 48.78 180.152 48.204 180.32C47.628 180.488 47.1 180.572 46.62 180.572V176.864C47.1 176.864 47.652 176.72 48.276 176.432C48.9 176.144 49.512 175.808 50.112 175.424C50.736 175.016 51.264 174.632 51.696 174.272C52.128 173.888 52.38 173.612 52.452 173.444H56.52V190.436H61.092ZM64.1413 194V189.392H67.4173V194H64.1413Z" fill="#B16BF7" fill-opacity="0.4"/>
</g>
<path d="M131.215 55.6554H137.126C137.807 55.6554 138.363 55.1029 138.363 54.4184V48.508H141.661V54.4184C141.661 55.1029 142.217 55.6554 142.898 55.6554H148.809V58.9543H142.898C142.217 58.9543 141.661 59.5096 141.661 60.1913V66.1017H138.363V60.1913C138.363 59.5096 137.807 58.9543 137.126 58.9543H131.215V55.6554ZM129.978 61.4284H135.888V67.3387C135.888 68.0232 136.444 68.5758 137.126 68.5758H142.898C143.58 68.5758 144.136 68.0232 144.136 67.3387V61.4284H150.046C150.728 61.4284 151.283 60.8758 151.283 60.1913V54.4184C151.283 53.7366 150.728 53.1813 150.046 53.1813H144.136V47.271C144.136 46.5892 143.58 46.0339 142.898 46.0339H137.126C136.444 46.0339 135.888 46.5892 135.888 47.271V53.1813H129.978C129.296 53.1813 128.741 53.7366 128.741 54.4184V60.1913C128.741 60.8758 129.296 61.4284 129.978 61.4284Z" fill="#85A080"/>
<path d="M119.394 76.6853H160.629V80.259H119.394V76.6853ZM116.92 75.4482V81.496C116.92 82.1805 117.476 82.7331 118.157 82.7331H161.867C162.548 82.7331 163.104 82.1805 163.104 81.496V75.4482C163.104 74.7665 162.548 74.2112 161.867 74.2112H118.157C117.476 74.2112 116.92 74.7665 116.92 75.4482Z" fill="#85A080"/>
<path d="M160.629 94.4162H119.394V90.8425H160.629V94.4162ZM161.867 88.3684H118.157C117.476 88.3684 116.92 88.921 116.92 89.6055V95.6533C116.92 96.3378 117.476 96.8903 118.157 96.8903H161.867C162.548 96.8903 163.104 96.3378 163.104 95.6533V89.6055C163.104 88.921 162.548 88.3684 161.867 88.3684Z" fill="#85A080"/>
<path d="M138.775 108.574H119.394V105H138.775V108.574ZM140.012 102.526H118.157C117.476 102.526 116.92 103.078 116.92 103.763V109.811C116.92 110.495 117.476 111.048 118.157 111.048H140.012C140.694 111.048 141.249 110.495 141.249 109.811V103.763C141.249 103.078 140.694 102.526 140.012 102.526Z" fill="#85A080"/>
<path d="M108.222 52.494L120.494 40.2225V52.494H108.222ZM170.526 38.4741V118.47H106.474V54.9681H121.731C122.413 54.9681 122.968 54.4156 122.968 53.7311V38.4741H170.526ZM105.237 120.944H171.763C172.445 120.944 173 120.392 173 119.707V37.2371C173 36.5525 172.445 36 171.763 36H121.731C121.649 36 121.566 36.0083 121.486 36.0247C121.434 36.0357 121.387 36.0522 121.338 36.0715C121.31 36.0797 121.283 36.0852 121.256 36.0962C121.201 36.1182 121.151 36.1485 121.102 36.1787C121.082 36.1897 121.063 36.1979 121.044 36.2089C120.978 36.2529 120.915 36.3051 120.857 36.3629L104.363 52.8569C104.305 52.9146 104.256 52.9778 104.209 53.0438C104.195 53.0631 104.187 53.0851 104.176 53.107C104.148 53.1565 104.118 53.2033 104.096 53.2555C104.085 53.283 104.08 53.3132 104.069 53.3407C104.052 53.3874 104.036 53.4342 104.025 53.4864C104.008 53.5661 104 53.6486 104 53.7311V119.707C104 120.392 104.555 120.944 105.237 120.944Z" fill="#85A080"/>
<defs>
<filter id="filter0_d_0_434" x="0" y="0" width="285" height="342" filterUnits="userSpaceOnUse" color-interpolation-filters="sRGB">
<feFlood flood-opacity="0" result="BackgroundImageFix"/>
<feColorMatrix in="SourceAlpha" type="matrix" values="0 0 0 0 0 0 0 0 0 0 0 0 0 0 0 0 0 0 127 0" result="hardAlpha"/>
<feOffset dx="4" dy="11"/>
<feGaussianBlur stdDeviation="8.5"/>
<feComposite in2="hardAlpha" operator="out"/>
<feColorMatrix type="matrix" values="0 0 0 0 0.300245 0 0 0 0 0.580139 0 0 0 0 0.248412 0 0 0 0.2 0"/>
<feBlend mode="normal" in2="BackgroundImageFix" result="effect1_dropShadow_0_434"/>
<feBlend mode="normal" in="SourceGraphic" in2="effect1_dropShadow_0_434" result="shape"/>
</filter>
</defs>
</svg>
