<svg width="69" height="85" viewBox="0 0 69 85" fill="none" xmlns="http://www.w3.org/2000/svg">
<path d="M27.2152 19.6554H33.1256C33.8073 19.6554 34.3626 19.1029 34.3626 18.4184V12.508H37.6614V18.4184C37.6614 19.1029 38.2167 19.6554 38.8985 19.6554H44.8088V22.9543H38.8985C38.2167 22.9543 37.6614 23.5096 37.6614 24.1913V30.1017H34.3626V24.1913C34.3626 23.5096 33.8073 22.9543 33.1256 22.9543H27.2152V19.6554ZM25.9781 25.4284H31.8885V31.3387C31.8885 32.0232 32.4438 32.5758 33.1256 32.5758H38.8985C39.5802 32.5758 40.1355 32.0232 40.1355 31.3387V25.4284H46.0459C46.7276 25.4284 47.2829 24.8758 47.2829 24.1913V18.4184C47.2829 17.7366 46.7276 17.1813 46.0459 17.1813H40.1355V11.271C40.1355 10.5892 39.5802 10.0339 38.8985 10.0339H33.1256C32.4438 10.0339 31.8885 10.5892 31.8885 11.271V17.1813H25.9781C25.2964 17.1813 24.7411 17.7366 24.7411 18.4184V24.1913C24.7411 24.8758 25.2964 25.4284 25.9781 25.4284Z" fill="#85A080"/>
<path d="M15.3944 40.6853H56.6294V44.259H15.3944V40.6853ZM12.9203 39.4482V45.496C12.9203 46.1805 13.4756 46.7331 14.1573 46.7331H57.8665C58.5483 46.7331 59.1035 46.1805 59.1035 45.496V39.4482C59.1035 38.7665 58.5483 38.2112 57.8665 38.2112H14.1573C13.4756 38.2112 12.9203 38.7665 12.9203 39.4482Z" fill="#85A080"/>
<path d="M56.6294 58.4162H15.3944V54.8425H56.6294V58.4162ZM57.8665 52.3684H14.1573C13.4756 52.3684 12.9203 52.921 12.9203 53.6055V59.6533C12.9203 60.3378 13.4756 60.8903 14.1573 60.8903H57.8665C58.5483 60.8903 59.1035 60.3378 59.1035 59.6533V53.6055C59.1035 52.921 58.5483 52.3684 57.8665 52.3684Z" fill="#85A080"/>
<path d="M34.7749 72.5737H15.3944V69H34.7749V72.5737ZM36.0119 66.5259H14.1573C13.4756 66.5259 12.9203 67.0784 12.9203 67.7629V73.8107C12.9203 74.4952 13.4756 75.0478 14.1573 75.0478H36.0119C36.6937 75.0478 37.249 74.4952 37.249 73.8107V67.7629C37.249 67.0784 36.6937 66.5259 36.0119 66.5259Z" fill="#85A080"/>
<path d="M4.22247 16.494L16.494 4.22247V16.494H4.22247ZM66.5259 2.4741V82.4701H2.4741V18.9681H17.7311C18.4128 18.9681 18.9681 18.4156 18.9681 17.7311V2.4741H66.5259ZM1.23705 84.9442H67.7629C68.4447 84.9442 69 84.3917 69 83.7072V1.23705C69 0.55255 68.4447 0 67.7629 0H17.7311C17.6486 0 17.5661 0.00825439 17.4864 0.0247484C17.4342 0.0357444 17.3875 0.0522338 17.338 0.0714768C17.3105 0.0797238 17.283 0.0852124 17.2555 0.0962084C17.2005 0.1182 17.151 0.148453 17.1016 0.178692C17.0823 0.189688 17.0631 0.197931 17.0438 0.208927C16.9778 0.252911 16.9146 0.305141 16.8569 0.362871L0.362871 16.8569C0.305141 16.9146 0.25566 16.9778 0.208927 17.0438C0.195182 17.0631 0.186936 17.0851 0.17594 17.107C0.14845 17.1565 0.1182 17.2033 0.0962084 17.2555C0.0852124 17.283 0.0797211 17.3132 0.0687251 17.3407C0.0522311 17.3874 0.0357444 17.4342 0.0247484 17.4864C0.00825439 17.5661 0 17.6486 0 17.7311V83.7072C0 84.3917 0.555299 84.9442 1.23705 84.9442Z" fill="#85A080"/>
</svg>
