<svg width="95" height="85" viewBox="0 0 95 85" fill="none" xmlns="http://www.w3.org/2000/svg">
<path d="M41.6646 46.2822H29.0202C28.2567 46.2822 27.6404 46.9016 27.6404 47.662C27.6404 48.4223 28.2567 49.0417 29.0202 49.0417H41.6646C42.428 49.0417 43.0443 48.4254 43.0443 47.662C43.0443 46.8985 42.428 46.2822 41.6646 46.2822Z" fill="#85A080"/>
<path d="M63.8965 46.2822H51.2521C50.4917 46.2822 49.8724 46.9016 49.8724 47.662C49.8724 48.4223 50.4917 49.0417 51.2521 49.0417H63.8965C64.66 49.0417 65.2762 48.4254 65.2762 47.662C65.2762 46.8985 64.66 46.2822 63.8965 46.2822Z" fill="#85A080"/>
<path d="M8.17113 52.1751V49.0416H19.4358C20.1962 49.0416 20.8155 48.4253 20.8155 47.6618C20.8155 46.8984 20.1962 46.2821 19.4358 46.2821H8.17113V34.5483H16.7959C17.3356 34.5483 17.8261 34.2325 18.05 33.7419L19.3837 30.8292L21.3 37.8781C21.4379 38.3901 21.858 38.7764 22.3792 38.8715C22.4651 38.8868 22.5479 38.896 22.6337 38.896C23.066 38.896 23.483 38.6906 23.7436 38.3318L26.5245 34.5453H35.83C36.3696 34.5453 36.8602 34.2295 37.084 33.7389L38.4178 30.8261L40.334 37.8719C40.472 38.384 40.8921 38.7703 41.4133 38.8653C41.4991 38.8807 41.5819 38.8899 41.6678 38.8899C42.1001 38.8899 42.5171 38.6844 42.7777 38.3257L45.5586 34.5391H54.8641C55.4037 34.5391 55.8943 34.2233 56.1181 33.7327L57.4518 30.82L59.3681 37.8689C59.5061 38.3809 59.9261 38.7672 60.4474 38.8623C60.5332 38.8776 60.616 38.8868 60.7018 38.8868C61.1342 38.8868 61.5511 38.6814 61.8117 38.3226L64.5927 34.5361H73.8981C74.4378 34.5361 74.9283 34.2203 75.1522 33.7297L76.4859 30.8169L78.4022 37.8658C78.5402 38.3778 78.9602 38.7642 79.4814 38.8592C79.5673 38.8745 79.6501 38.8837 79.7359 38.8837C80.1682 38.8837 80.5852 38.6783 80.8458 38.3196L83.6267 34.533H86.5701V46.3465C86.4291 46.2974 86.2819 46.2668 86.1256 46.2668H73.4811C72.7208 46.2668 72.1014 46.8861 72.1014 47.6465C72.1014 48.4069 72.7208 49.0262 73.4811 49.0262H86.1256C86.2819 49.0262 86.4291 48.9956 86.5701 48.9465V52.1597H8.16806L8.17113 52.1751ZM86.5732 9.03875V13.8617C84.1725 14.0916 82.8173 15.177 81.6062 16.1489C80.4074 17.1117 79.463 17.8721 77.4241 17.8721C75.3852 17.8721 74.4408 17.1117 73.242 16.1489C71.8807 15.0543 70.3415 13.8157 67.3306 13.8157C64.3198 13.8157 62.7806 15.0543 61.4193 16.1489C60.2205 17.1117 59.2761 17.8721 57.2372 17.8721C55.1983 17.8721 54.2539 17.1117 53.0551 16.1489C51.6938 15.0543 50.1546 13.8157 47.1437 13.8157C44.1329 13.8157 42.5937 15.0543 41.2324 16.1489C40.0336 17.1117 39.0892 17.8721 37.0503 17.8721C35.0114 17.8721 34.067 17.1117 32.8713 16.1489C31.5099 15.0543 29.9708 13.8157 26.9599 13.8157C23.949 13.8157 22.4099 15.0543 21.0516 16.1489C19.8528 17.1117 18.9085 17.8721 16.8726 17.8721C14.8367 17.8721 13.8893 17.1117 12.6936 16.1489C11.5591 15.2352 10.2959 14.2265 8.16499 13.9138V9.03875H86.5671H86.5732ZM63.8967 31.7858C63.866 31.7858 63.8353 31.7919 63.8047 31.795C63.7526 31.7981 63.7035 31.8011 63.6514 31.8103C63.6085 31.8195 63.5655 31.8318 63.5257 31.841C63.4828 31.8533 63.4398 31.8655 63.3969 31.8809C63.354 31.8962 63.3172 31.9176 63.2773 31.936C63.2375 31.9575 63.1976 31.9759 63.1577 32.0004C63.121 32.025 63.0842 32.0526 63.0504 32.0801C63.0167 32.1077 62.9799 32.1323 62.9493 32.1629C62.9125 32.1967 62.8787 32.2365 62.8481 32.2764C62.8266 32.3009 62.8052 32.3193 62.7868 32.3438L61.2844 34.3889L59.1167 26.4233C58.9634 25.8622 58.4759 25.4575 57.8964 25.4115C57.3231 25.3624 56.7712 25.6844 56.5289 26.2117L53.981 31.7827H44.8626C44.8319 31.7827 44.8013 31.7889 44.7706 31.7919C44.7185 31.795 44.6694 31.7981 44.6204 31.8073C44.5775 31.8165 44.5345 31.8287 44.4947 31.8379C44.4518 31.8502 44.4088 31.8625 44.3659 31.8778C44.323 31.8931 44.2862 31.9146 44.2463 31.933C44.2065 31.9544 44.1666 31.9728 44.1267 31.9974C44.09 32.0219 44.0532 32.0495 44.0194 32.0771C43.9857 32.1047 43.9489 32.1292 43.9183 32.1599C43.8815 32.1936 43.8508 32.2335 43.8171 32.2733C43.7956 32.2978 43.7742 32.3162 43.7558 32.3408L42.2534 34.3858L40.0857 26.4202C39.9324 25.8591 39.4449 25.4544 38.8685 25.4084C38.2951 25.3594 37.7432 25.6813 37.501 26.2087L34.9531 31.7797H25.8347C25.804 31.7797 25.7734 31.7858 25.7427 31.7889C25.6906 31.7919 25.6415 31.795 25.5924 31.8042C25.5495 31.8134 25.5066 31.8257 25.4667 31.8349C25.4238 31.8471 25.3778 31.8594 25.338 31.8747C25.295 31.8901 25.2582 31.9115 25.2184 31.9299C25.1785 31.9514 25.1387 31.9698 25.0988 31.9943C25.062 32.0188 25.0283 32.0464 24.9915 32.074C24.9547 32.1016 24.921 32.1292 24.8873 32.1599C24.8505 32.1936 24.8198 32.2335 24.7861 32.2702C24.7646 32.2948 24.7432 32.3132 24.7248 32.3377L23.2224 34.3828L21.0547 26.4171C20.9014 25.8561 20.4139 25.4513 19.8375 25.4053C19.261 25.3563 18.7122 25.6782 18.47 26.2056L15.9221 31.7766H8.18339V16.7069C9.34236 16.9706 10.0935 17.5746 10.9827 18.289C12.341 19.3836 13.8832 20.6223 16.891 20.6223C19.8988 20.6223 21.441 19.3836 22.7993 18.289C23.9981 17.3263 24.9424 16.5659 26.9783 16.5659C29.0142 16.5659 29.9616 17.3263 31.1604 18.289C32.5217 19.3836 34.0609 20.6223 37.0687 20.6223C40.0765 20.6223 41.6187 19.3836 42.98 18.289C44.1789 17.3263 45.1232 16.5659 47.1591 16.5659C49.1949 16.5659 50.1424 17.3263 51.3412 18.289C52.7025 19.3836 54.2417 20.6223 57.2525 20.6223C60.2634 20.6223 61.8026 19.3836 63.1639 18.289C64.3627 17.3263 65.3071 16.5659 67.346 16.5659C69.3849 16.5659 70.3292 17.3263 71.5281 18.289C72.8894 19.3836 74.4286 20.6223 77.4394 20.6223C80.4503 20.6223 81.9895 19.3836 83.3508 18.289C84.3473 17.4888 85.169 16.8296 86.5885 16.6272V31.7735H82.9491C82.5107 31.7735 82.0968 31.982 81.8362 32.3377L80.3338 34.3828L78.1661 26.4171C78.0128 25.8561 77.5253 25.4513 76.9489 25.4053C76.3755 25.3563 75.8236 25.6782 75.5814 26.2056L73.0335 31.7766H63.9151L63.8967 31.7858ZM87.9529 6.2793H6.79141C6.03103 6.2793 5.41168 6.89864 5.41168 7.65902V53.5548C5.41168 54.3152 6.03103 54.9345 6.79141 54.9345H87.9529C88.7133 54.9345 89.3327 54.3152 89.3327 53.5548V7.65902C89.3327 6.89864 88.7133 6.2793 87.9529 6.2793Z" fill="#85A080"/>
<path d="M91.9816 62.7345C91.9816 64.1572 90.8227 65.3162 89.4 65.3162H5.34106C3.91841 65.3162 2.75945 64.1572 2.75945 62.7345V5.34107C2.75945 3.91842 3.91841 2.75945 5.34106 2.75945H89.4C90.8227 2.75945 91.9816 3.91842 91.9816 5.34107V62.7315V62.7345ZM58.5831 74.4867C58.7272 74.9221 59.0798 75.2563 59.5182 75.379C63.0503 76.3724 63.8169 77.4455 63.8169 77.6601C63.8169 77.8747 63.0657 78.9325 59.598 79.9198C56.351 80.8427 52.0064 81.3516 47.3705 81.3516C42.7347 81.3516 38.3901 80.8427 35.1431 79.9198C31.6754 78.9325 30.9242 77.8717 30.9242 77.6601C30.9242 77.4485 31.6877 76.3724 35.2228 75.379C35.6643 75.2563 36.0139 74.919 36.158 74.4867L38.2858 68.0756H56.4522L58.58 74.4867H58.5831ZM89.4 0H5.34106C2.39458 0 0 2.39459 0 5.34107V62.7315C0 65.678 2.39458 68.0725 5.34106 68.0725H35.3792L33.7665 72.9322C30.0473 74.0943 28.1648 75.6825 28.1648 77.6601C28.1648 82.0936 38.1203 84.1111 47.3705 84.1111C56.6208 84.1111 66.5763 82.0905 66.5763 77.6601C66.5763 75.6825 64.6937 74.0943 60.9746 72.9322L59.3619 68.0725H89.4C92.3465 68.0725 94.7411 65.678 94.7411 62.7315V5.34107C94.7411 2.39459 92.3465 0 89.4 0Z" fill="#85A080"/>
</svg>
