<svg width="264" height="342" viewBox="0 0 264 342" fill="none" xmlns="http://www.w3.org/2000/svg">
<g filter="url(#filter0_d_0_457)">
<rect x="13" y="50" width="251" height="264" rx="20" fill="#DEDEDE"/>
<rect x="66" y="6" width="144" height="144" rx="15" fill="white"/>
<path d="M50.968 223.08C50.168 223.08 49.4427 222.92 48.792 222.6C48.1413 222.28 47.576 221.848 47.096 221.304C46.6267 220.749 46.264 220.131 46.008 219.448C45.752 218.755 45.624 218.045 45.624 217.32C45.624 216.563 45.7573 215.843 46.024 215.16C46.3013 214.467 46.68 213.853 47.16 213.32C47.6507 212.776 48.2213 212.349 48.872 212.04C49.5227 211.72 50.232 211.56 51 211.56C51.8 211.56 52.5253 211.725 53.176 212.056C53.8267 212.387 54.3867 212.829 54.856 213.384C55.3253 213.939 55.688 214.557 55.944 215.24C56.2 215.923 56.328 216.621 56.328 217.336C56.328 218.093 56.1947 218.819 55.928 219.512C55.6613 220.195 55.2827 220.808 54.792 221.352C54.312 221.885 53.7467 222.307 53.096 222.616C52.4453 222.925 51.736 223.08 50.968 223.08ZM47.08 217.32C47.08 217.896 47.1707 218.456 47.352 219C47.544 219.533 47.8107 220.008 48.152 220.424C48.4933 220.84 48.904 221.171 49.384 221.416C49.864 221.661 50.3973 221.784 50.984 221.784C51.592 221.784 52.136 221.656 52.616 221.4C53.096 221.144 53.5013 220.803 53.832 220.376C54.1733 219.949 54.4293 219.469 54.6 218.936C54.7813 218.403 54.872 217.864 54.872 217.32C54.872 216.744 54.776 216.189 54.584 215.656C54.4027 215.123 54.136 214.648 53.784 214.232C53.4427 213.805 53.032 213.475 52.552 213.24C52.0827 212.995 51.56 212.872 50.984 212.872C50.376 212.872 49.832 213 49.352 213.256C48.872 213.501 48.4613 213.837 48.12 214.264C47.7893 214.691 47.5333 215.171 47.352 215.704C47.1707 216.227 47.08 216.765 47.08 217.32ZM62.0408 223.16C60.6648 223.16 59.6248 222.744 58.9208 221.912C58.2168 221.08 57.8648 219.907 57.8648 218.392C57.8648 217.357 57.9501 216.488 58.1208 215.784C58.2914 215.069 58.5474 214.483 58.8888 214.024C59.2301 213.555 59.6514 213.176 60.1528 212.888C60.6541 212.589 61.2301 212.344 61.8808 212.152L65.4167 211.08L65.4968 212.296L62.0568 213.336C61.4701 213.528 60.9794 213.773 60.5848 214.072C60.1901 214.371 59.8808 214.755 59.6568 215.224C59.4328 215.693 59.2834 216.296 59.2088 217.032C59.4861 216.467 59.9021 216.029 60.4568 215.72C61.0114 215.4 61.6568 215.24 62.3928 215.24C63.1821 215.24 63.8594 215.405 64.4248 215.736C65.0008 216.056 65.4381 216.509 65.7368 217.096C66.0461 217.672 66.2008 218.339 66.2008 219.096C66.2008 219.907 66.0408 220.616 65.7208 221.224C65.4008 221.832 64.9314 222.307 64.3128 222.648C63.6941 222.989 62.9368 223.16 62.0408 223.16ZM62.0408 221.944C62.9048 221.944 63.5714 221.693 64.0408 221.192C64.5208 220.68 64.7608 220.003 64.7608 219.16C64.7608 218.339 64.5261 217.672 64.0568 217.16C63.5874 216.648 62.9154 216.392 62.0408 216.392C61.5288 216.392 61.0648 216.499 60.6488 216.712C60.2434 216.925 59.9181 217.24 59.6728 217.656C59.4381 218.061 59.3207 218.563 59.3207 219.16C59.3207 219.693 59.4221 220.173 59.6248 220.6C59.8381 221.016 60.1474 221.347 60.5528 221.592C60.9581 221.827 61.4541 221.944 62.0408 221.944ZM71.5653 223.16C70.9359 223.16 70.3653 223.048 69.8533 222.824C69.3413 222.589 68.8986 222.275 68.5253 221.88C68.1519 221.475 67.8639 221.011 67.6613 220.488C67.4586 219.965 67.3573 219.416 67.3573 218.84C67.3573 218.253 67.4586 217.699 67.6613 217.176C67.8639 216.653 68.1519 216.195 68.5253 215.8C68.8986 215.395 69.3413 215.08 69.8533 214.856C70.3759 214.621 70.9519 214.504 71.5813 214.504C72.1999 214.504 72.7653 214.621 73.2773 214.856C73.7893 215.08 74.2319 215.395 74.6053 215.8C74.9893 216.195 75.2826 216.653 75.4853 217.176C75.6879 217.699 75.7893 218.253 75.7893 218.84C75.7893 219.416 75.6879 219.965 75.4853 220.488C75.2826 221.011 74.9946 221.475 74.6213 221.88C74.2479 222.275 73.7999 222.589 73.2773 222.824C72.7653 223.048 72.1946 223.16 71.5653 223.16ZM68.7973 218.856C68.7973 219.432 68.9199 219.955 69.1653 220.424C69.4213 220.893 69.7573 221.267 70.1733 221.544C70.5893 221.811 71.0533 221.944 71.5653 221.944C72.0773 221.944 72.5413 221.805 72.9573 221.528C73.3839 221.251 73.7199 220.877 73.9653 220.408C74.2213 219.928 74.3493 219.4 74.3493 218.824C74.3493 218.248 74.2213 217.725 73.9653 217.256C73.7199 216.787 73.3839 216.413 72.9573 216.136C72.5413 215.859 72.0773 215.72 71.5653 215.72C71.0533 215.72 70.5893 215.864 70.1733 216.152C69.7573 216.429 69.4213 216.803 69.1653 217.272C68.9199 217.741 68.7973 218.269 68.7973 218.856ZM81.9914 223.16C81.3087 223.16 80.7007 222.989 80.1674 222.648C79.634 222.307 79.2127 221.875 78.9034 221.352V226.408H77.4954V214.648H78.7434V216.216C79.074 215.704 79.506 215.293 80.0394 214.984C80.5727 214.664 81.154 214.504 81.7834 214.504C82.3594 214.504 82.8874 214.621 83.3674 214.856C83.8474 215.091 84.2634 215.411 84.6154 215.816C84.9674 216.221 85.2394 216.685 85.4314 217.208C85.634 217.72 85.7354 218.259 85.7354 218.824C85.7354 219.613 85.5754 220.339 85.2554 221C84.946 221.661 84.5087 222.189 83.9434 222.584C83.378 222.968 82.7274 223.16 81.9914 223.16ZM81.5594 221.944C81.9754 221.944 82.3487 221.859 82.6794 221.688C83.0207 221.507 83.3087 221.272 83.5434 220.984C83.7887 220.685 83.9754 220.349 84.1034 219.976C84.2314 219.603 84.2954 219.219 84.2954 218.824C84.2954 218.408 84.2207 218.013 84.0714 217.64C83.9327 217.267 83.73 216.936 83.4634 216.648C83.2074 216.36 82.9034 216.136 82.5514 215.976C82.21 215.805 81.8367 215.72 81.4314 215.72C81.1754 215.72 80.9087 215.768 80.6314 215.864C80.3647 215.96 80.1087 216.099 79.8634 216.28C79.618 216.451 79.41 216.648 79.2394 216.872C79.0687 217.096 78.9567 217.336 78.9034 217.592V219.976C79.0634 220.339 79.2767 220.669 79.5434 220.968C79.81 221.267 80.1194 221.507 80.4714 221.688C80.8234 221.859 81.186 221.944 81.5594 221.944ZM88.2229 226.504C88.0415 226.504 87.8549 226.477 87.6629 226.424C87.4815 226.371 87.2949 226.291 87.1029 226.184L87.5829 225.224C87.6789 225.277 87.7695 225.315 87.8549 225.336C87.9509 225.368 88.0415 225.384 88.1269 225.384C88.3829 225.384 88.6229 225.261 88.8469 225.016C89.0815 224.781 89.3002 224.419 89.5029 223.928L89.9029 222.92L86.2389 214.648H87.7269L90.5429 221.576L93.0869 214.648H94.4789L90.5749 224.36C90.3829 224.84 90.1642 225.235 89.9189 225.544C89.6735 225.864 89.4069 226.104 89.1189 226.264C88.8309 226.424 88.5322 226.504 88.2229 226.504ZM94.9736 224.968V221.752H95.1496C95.3843 221.752 95.5976 221.683 95.7896 221.544C95.9923 221.405 96.1683 221.165 96.3176 220.824C96.4776 220.472 96.6056 219.992 96.7016 219.384C96.7976 218.776 96.8616 218.003 96.8936 217.064L96.9736 214.648H102.654V221.752H103.79V224.968H102.542V223H96.2216V224.968H94.9736ZM97.1176 221.752H101.246V215.896H98.2216L98.1736 217.192C98.1416 218.099 98.0776 218.861 97.9816 219.48C97.8963 220.088 97.779 220.573 97.6296 220.936C97.491 221.299 97.3203 221.571 97.1176 221.752ZM109.003 223.16C108.373 223.16 107.803 223.048 107.291 222.824C106.779 222.589 106.336 222.275 105.963 221.88C105.589 221.475 105.301 221.011 105.099 220.488C104.896 219.965 104.795 219.416 104.795 218.84C104.795 218.253 104.896 217.699 105.099 217.176C105.301 216.653 105.589 216.195 105.963 215.8C106.336 215.395 106.779 215.08 107.291 214.856C107.813 214.621 108.389 214.504 109.019 214.504C109.637 214.504 110.203 214.621 110.715 214.856C111.227 215.08 111.669 215.395 112.043 215.8C112.427 216.195 112.72 216.653 112.923 217.176C113.125 217.699 113.227 218.253 113.227 218.84C113.227 219.416 113.125 219.965 112.923 220.488C112.72 221.011 112.432 221.475 112.059 221.88C111.685 222.275 111.237 222.589 110.715 222.824C110.203 223.048 109.632 223.16 109.003 223.16ZM106.235 218.856C106.235 219.432 106.357 219.955 106.603 220.424C106.859 220.893 107.195 221.267 107.611 221.544C108.027 221.811 108.491 221.944 109.003 221.944C109.515 221.944 109.979 221.805 110.395 221.528C110.821 221.251 111.157 220.877 111.403 220.408C111.659 219.928 111.787 219.4 111.787 218.824C111.787 218.248 111.659 217.725 111.403 217.256C111.157 216.787 110.821 216.413 110.395 216.136C109.979 215.859 109.515 215.72 109.003 215.72C108.491 215.72 108.027 215.864 107.611 216.152C107.195 216.429 106.859 216.803 106.603 217.272C106.357 217.741 106.235 218.269 106.235 218.856ZM114.917 223V214.648H119.237C119.738 214.648 120.154 214.749 120.485 214.952C120.816 215.144 121.061 215.395 121.221 215.704C121.392 216.013 121.477 216.344 121.477 216.696C121.477 217.144 121.37 217.549 121.157 217.912C120.944 218.264 120.634 218.531 120.229 218.712C120.709 218.851 121.098 219.101 121.397 219.464C121.696 219.816 121.845 220.253 121.845 220.776C121.845 221.245 121.733 221.645 121.509 221.976C121.285 222.307 120.97 222.563 120.565 222.744C120.16 222.915 119.69 223 119.157 223H114.917ZM116.261 222.008H119.125C119.381 222.008 119.61 221.944 119.813 221.816C120.026 221.688 120.192 221.517 120.309 221.304C120.426 221.091 120.485 220.867 120.485 220.632C120.485 220.376 120.426 220.147 120.309 219.944C120.202 219.731 120.048 219.565 119.845 219.448C119.653 219.32 119.429 219.256 119.173 219.256H116.261V222.008ZM116.261 218.328H118.869C119.125 218.328 119.349 218.264 119.541 218.136C119.733 217.997 119.882 217.821 119.989 217.608C120.096 217.395 120.149 217.171 120.149 216.936C120.149 216.584 120.032 216.28 119.797 216.024C119.573 215.768 119.28 215.64 118.917 215.64H116.261V218.328ZM122.98 220.584C122.98 220.051 123.129 219.592 123.428 219.208C123.737 218.813 124.159 218.509 124.692 218.296C125.225 218.083 125.844 217.976 126.548 217.976C126.921 217.976 127.316 218.008 127.732 218.072C128.148 218.125 128.516 218.211 128.836 218.328V217.72C128.836 217.08 128.644 216.579 128.26 216.216C127.876 215.843 127.332 215.656 126.628 215.656C126.169 215.656 125.727 215.741 125.3 215.912C124.884 216.072 124.441 216.307 123.972 216.616L123.46 215.624C124.004 215.251 124.548 214.973 125.092 214.792C125.636 214.6 126.201 214.504 126.788 214.504C127.855 214.504 128.697 214.803 129.316 215.4C129.935 215.987 130.244 216.808 130.244 217.864V221.4C130.244 221.571 130.276 221.699 130.34 221.784C130.415 221.859 130.532 221.901 130.692 221.912V223C130.553 223.021 130.431 223.037 130.324 223.048C130.228 223.059 130.148 223.064 130.084 223.064C129.753 223.064 129.503 222.973 129.332 222.792C129.172 222.611 129.081 222.419 129.06 222.216L129.028 221.688C128.665 222.157 128.191 222.52 127.604 222.776C127.017 223.032 126.436 223.16 125.86 223.16C125.305 223.16 124.809 223.048 124.372 222.824C123.935 222.589 123.593 222.28 123.348 221.896C123.103 221.501 122.98 221.064 122.98 220.584ZM128.42 221.176C128.548 221.027 128.649 220.877 128.724 220.728C128.799 220.568 128.836 220.435 128.836 220.328V219.288C128.505 219.16 128.159 219.064 127.796 219C127.433 218.925 127.076 218.888 126.724 218.888C126.009 218.888 125.428 219.032 124.98 219.32C124.543 219.597 124.324 219.981 124.324 220.472C124.324 220.739 124.393 221 124.532 221.256C124.681 221.501 124.895 221.704 125.172 221.864C125.46 222.024 125.812 222.104 126.228 222.104C126.665 222.104 127.081 222.019 127.476 221.848C127.871 221.667 128.185 221.443 128.42 221.176ZM132.479 223V214.648H133.887V218.104H138.239V214.648H139.647V223H138.239V219.352H133.887V223H132.479ZM141.901 223V214.664H143.309V221.112L147.981 214.648H149.261V223H147.853V216.68L143.245 223H141.901ZM155.207 223.16C154.578 223.16 154.002 223.048 153.479 222.824C152.967 222.589 152.519 222.275 152.135 221.88C151.762 221.475 151.468 221.011 151.255 220.488C151.052 219.965 150.951 219.411 150.951 218.824C150.951 218.035 151.132 217.315 151.495 216.664C151.858 216.013 152.359 215.491 152.999 215.096C153.65 214.701 154.391 214.504 155.223 214.504C156.066 214.504 156.796 214.707 157.415 215.112C158.044 215.507 158.53 216.029 158.871 216.68C159.223 217.32 159.399 218.013 159.399 218.76C159.399 218.867 159.394 218.973 159.383 219.08C159.383 219.176 159.378 219.251 159.367 219.304H152.439C152.482 219.848 152.631 220.333 152.887 220.76C153.154 221.176 153.495 221.507 153.911 221.752C154.327 221.987 154.775 222.104 155.255 222.104C155.767 222.104 156.247 221.976 156.695 221.72C157.154 221.464 157.468 221.128 157.639 220.712L158.855 221.048C158.674 221.453 158.402 221.816 158.039 222.136C157.687 222.456 157.266 222.707 156.775 222.888C156.295 223.069 155.772 223.16 155.207 223.16ZM152.391 218.328H158.087C158.044 217.784 157.89 217.304 157.623 216.888C157.356 216.472 157.015 216.147 156.599 215.912C156.183 215.677 155.724 215.56 155.223 215.56C154.732 215.56 154.279 215.677 153.863 215.912C153.447 216.147 153.106 216.472 152.839 216.888C152.583 217.304 152.434 217.784 152.391 218.328Z" fill="#262626"/>
<path d="M49.384 242.144C48.8187 242.144 48.2853 242.064 47.784 241.904C47.2933 241.744 46.856 241.509 46.472 241.2C46.0987 240.88 45.7947 240.507 45.56 240.08L47.272 239.28C47.4853 239.664 47.7627 239.957 48.104 240.16C48.4453 240.352 48.8293 240.448 49.256 240.448C49.6507 240.448 50.008 240.363 50.328 240.192C50.648 240.011 50.9147 239.771 51.128 239.472C51.352 239.173 51.496 238.837 51.56 238.464H48.616V237.072H51.544C51.4693 236.731 51.3307 236.416 51.128 236.128C50.9253 235.84 50.664 235.611 50.344 235.44C50.0347 235.269 49.672 235.184 49.256 235.184C48.84 235.184 48.4667 235.269 48.136 235.44C47.8053 235.611 47.528 235.888 47.304 236.272L45.688 235.424C46.0187 234.827 46.4987 234.352 47.128 234C47.7573 233.648 48.504 233.472 49.368 233.472C50.0827 233.472 50.712 233.589 51.256 233.824C51.8 234.059 52.2587 234.384 52.632 234.8C53.0053 235.205 53.288 235.669 53.48 236.192C53.672 236.704 53.768 237.237 53.768 237.792C53.768 238.357 53.672 238.901 53.48 239.424C53.288 239.936 53 240.4 52.616 240.816C52.2427 241.221 51.784 241.547 51.24 241.792C50.696 242.027 50.0773 242.144 49.384 242.144ZM55.1948 242V233.616H57.3388V236.784H58.0588L60.3308 233.616H62.6667L59.6908 237.664L62.9868 242H60.5388L58.0268 238.672H57.3388V242H55.1948ZM67.7863 242.16C67.1036 242.16 66.4903 242.048 65.9463 241.824C65.4023 241.589 64.9383 241.269 64.5543 240.864C64.1703 240.448 63.8716 239.979 63.6583 239.456C63.4556 238.933 63.3543 238.384 63.3543 237.808C63.3543 237.019 63.5303 236.299 63.8823 235.648C64.2449 234.987 64.7569 234.459 65.4183 234.064C66.0796 233.669 66.8636 233.472 67.7703 233.472C68.6769 233.472 69.4556 233.669 70.1063 234.064C70.7569 234.459 71.2423 234.976 71.5623 235.616L69.4663 236.256C69.2849 235.947 69.0449 235.712 68.7463 235.552C68.4476 235.381 68.1169 235.296 67.7543 235.296C67.3489 235.296 66.9756 235.403 66.6343 235.616C66.3036 235.819 66.0423 236.112 65.8503 236.496C65.6583 236.869 65.5623 237.307 65.5623 237.808C65.5623 238.299 65.6583 238.736 65.8503 239.12C66.0529 239.493 66.3196 239.792 66.6503 240.016C66.9809 240.229 67.3489 240.336 67.7543 240.336C68.0103 240.336 68.2503 240.293 68.4743 240.208C68.7089 240.123 68.9169 240.005 69.0983 239.856C69.2796 239.707 69.4129 239.536 69.4983 239.344L71.5943 239.984C71.4023 240.4 71.1196 240.773 70.7463 241.104C70.3836 241.435 69.9516 241.696 69.4503 241.888C68.9596 242.069 68.4049 242.16 67.7863 242.16ZM72.9135 242V233.616H80.4335V242H78.2895V235.488H75.0575V242H72.9135ZM86.2703 242.16C85.5983 242.16 84.9903 242.048 84.4463 241.824C83.9023 241.589 83.4383 241.275 83.0543 240.88C82.6703 240.475 82.3716 240.016 82.1583 239.504C81.9556 238.981 81.8543 238.432 81.8543 237.856C81.8543 237.056 82.0303 236.325 82.3823 235.664C82.7449 235.003 83.2569 234.475 83.9183 234.08C84.5903 233.675 85.3796 233.472 86.2863 233.472C87.2036 233.472 87.9876 233.675 88.6383 234.08C89.2889 234.475 89.7849 235.003 90.1263 235.664C90.4783 236.315 90.6543 237.019 90.6543 237.776C90.6543 237.904 90.6489 238.037 90.6383 238.176C90.6276 238.304 90.6169 238.411 90.6063 238.496H84.1263C84.1689 238.923 84.2916 239.296 84.4943 239.616C84.7076 239.936 84.9743 240.181 85.2943 240.352C85.6249 240.512 85.9769 240.592 86.3503 240.592C86.7769 240.592 87.1769 240.491 87.5503 240.288C87.9343 240.075 88.1956 239.797 88.3343 239.456L90.1743 239.968C89.9716 240.395 89.6783 240.773 89.2943 241.104C88.9209 241.435 88.4783 241.696 87.9663 241.888C87.4543 242.069 86.8889 242.16 86.2703 242.16ZM84.0783 237.136H88.4623C88.4196 236.709 88.2969 236.341 88.0943 236.032C87.9023 235.712 87.6463 235.467 87.3263 235.296C87.0063 235.115 86.6489 235.024 86.2543 235.024C85.8703 235.024 85.5183 235.115 85.1983 235.296C84.8889 235.467 84.6329 235.712 84.4303 236.032C84.2383 236.341 84.1209 236.709 84.0783 237.136ZM96.9844 242.16C96.3337 242.16 95.7577 242.016 95.2564 241.728C94.7657 241.429 94.3817 241.029 94.1044 240.528V245.408H91.9604V233.616H93.8324V235.056C94.1524 234.565 94.5577 234.181 95.0484 233.904C95.539 233.616 96.099 233.472 96.7284 233.472C97.2937 233.472 97.811 233.584 98.2804 233.808C98.7604 234.032 99.1764 234.347 99.5284 234.752C99.8804 235.147 100.152 235.605 100.344 236.128C100.547 236.64 100.648 237.195 100.648 237.792C100.648 238.603 100.488 239.339 100.168 240C99.859 240.661 99.427 241.189 98.8724 241.584C98.3284 241.968 97.699 242.16 96.9844 242.16ZM96.2644 240.336C96.595 240.336 96.8937 240.267 97.1604 240.128C97.427 239.989 97.6564 239.803 97.8484 239.568C98.051 239.323 98.2004 239.051 98.2964 238.752C98.403 238.443 98.4564 238.123 98.4564 237.792C98.4564 237.44 98.3977 237.115 98.2804 236.816C98.1737 236.517 98.0137 236.256 97.8004 236.032C97.587 235.797 97.3364 235.616 97.0484 235.488C96.771 235.36 96.467 235.296 96.1364 235.296C95.9337 235.296 95.7257 235.333 95.5124 235.408C95.3097 235.472 95.1124 235.568 94.9204 235.696C94.7284 235.824 94.5577 235.973 94.4084 236.144C94.2697 236.315 94.1684 236.501 94.1044 236.704V238.672C94.2324 238.981 94.403 239.264 94.6164 239.52C94.8404 239.776 95.0964 239.979 95.3844 240.128C95.6724 240.267 95.9657 240.336 96.2644 240.336ZM104.037 242V235.488H101.381V233.616H108.853V235.488H106.181V242H104.037ZM110.054 242V233.616H112.198V236.816H115.59V233.616H117.734V242H115.59V238.608H112.198V242H110.054ZM123.567 242.16C122.884 242.16 122.271 242.048 121.727 241.824C121.183 241.589 120.719 241.269 120.335 240.864C119.961 240.459 119.673 239.995 119.471 239.472C119.268 238.949 119.167 238.4 119.167 237.824C119.167 237.237 119.268 236.683 119.471 236.16C119.673 235.637 119.961 235.173 120.335 234.768C120.719 234.363 121.183 234.048 121.727 233.824C122.271 233.589 122.884 233.472 123.567 233.472C124.249 233.472 124.857 233.589 125.391 233.824C125.935 234.048 126.399 234.363 126.783 234.768C127.167 235.173 127.455 235.637 127.647 236.16C127.849 236.683 127.951 237.237 127.951 237.824C127.951 238.4 127.849 238.949 127.647 239.472C127.455 239.995 127.167 240.459 126.783 240.864C126.409 241.269 125.951 241.589 125.407 241.824C124.863 242.048 124.249 242.16 123.567 242.16ZM121.375 237.824C121.375 238.315 121.471 238.752 121.663 239.136C121.855 239.509 122.116 239.803 122.447 240.016C122.777 240.229 123.151 240.336 123.567 240.336C123.972 240.336 124.34 240.229 124.671 240.016C125.001 239.792 125.263 239.493 125.455 239.12C125.657 238.736 125.759 238.299 125.759 237.808C125.759 237.328 125.657 236.896 125.455 236.512C125.263 236.128 125.001 235.829 124.671 235.616C124.34 235.403 123.972 235.296 123.567 235.296C123.151 235.296 122.777 235.408 122.447 235.632C122.116 235.845 121.855 236.144 121.663 236.528C121.471 236.901 121.375 237.333 121.375 237.824ZM129.398 242V233.616H134.95V235.488H131.542V242H129.398ZM140.051 242.16C139.368 242.16 138.755 242.048 138.211 241.824C137.667 241.589 137.203 241.269 136.819 240.864C136.446 240.459 136.158 239.995 135.955 239.472C135.752 238.949 135.651 238.4 135.651 237.824C135.651 237.237 135.752 236.683 135.955 236.16C136.158 235.637 136.446 235.173 136.819 234.768C137.203 234.363 137.667 234.048 138.211 233.824C138.755 233.589 139.368 233.472 140.051 233.472C140.734 233.472 141.342 233.589 141.875 233.824C142.419 234.048 142.883 234.363 143.267 234.768C143.651 235.173 143.939 235.637 144.131 236.16C144.334 236.683 144.435 237.237 144.435 237.824C144.435 238.4 144.334 238.949 144.131 239.472C143.939 239.995 143.651 240.459 143.267 240.864C142.894 241.269 142.435 241.589 141.891 241.824C141.347 242.048 140.734 242.16 140.051 242.16ZM137.859 237.824C137.859 238.315 137.955 238.752 138.147 239.136C138.339 239.509 138.6 239.803 138.931 240.016C139.262 240.229 139.635 240.336 140.051 240.336C140.456 240.336 140.824 240.229 141.155 240.016C141.486 239.792 141.747 239.493 141.939 239.12C142.142 238.736 142.243 238.299 142.243 237.808C142.243 237.328 142.142 236.896 141.939 236.512C141.747 236.128 141.486 235.829 141.155 235.616C140.824 235.403 140.456 235.296 140.051 235.296C139.635 235.296 139.262 235.408 138.931 235.632C138.6 235.845 138.339 236.144 138.147 236.528C137.955 236.901 137.859 237.333 137.859 237.824ZM149.929 242V233.616H152.073V236.784H152.793L155.065 233.616H157.401L154.425 237.664L157.721 242H155.273L152.761 238.672H152.073V242H149.929ZM158.446 242.112V240.208C158.702 240.197 158.931 240.133 159.134 240.016C159.337 239.899 159.513 239.701 159.662 239.424C159.822 239.136 159.945 238.736 160.03 238.224C160.126 237.712 160.19 237.056 160.222 236.256L160.334 233.616H166.622V242H164.478V235.488H162.222L162.19 236.464C162.147 237.563 162.041 238.475 161.87 239.2C161.699 239.925 161.459 240.501 161.15 240.928C160.851 241.344 160.478 241.643 160.03 241.824C159.582 242.005 159.054 242.101 158.446 242.112ZM167.994 239.52C167.994 238.976 168.143 238.501 168.442 238.096C168.751 237.68 169.178 237.36 169.722 237.136C170.266 236.912 170.89 236.8 171.594 236.8C171.946 236.8 172.303 236.827 172.666 236.88C173.028 236.933 173.343 237.019 173.61 237.136V236.688C173.61 236.155 173.45 235.744 173.13 235.456C172.82 235.168 172.356 235.024 171.738 235.024C171.279 235.024 170.842 235.104 170.426 235.264C170.01 235.424 169.572 235.659 169.114 235.968L168.426 234.56C168.98 234.197 169.546 233.925 170.122 233.744C170.708 233.563 171.322 233.472 171.962 233.472C173.156 233.472 174.084 233.771 174.746 234.368C175.418 234.965 175.754 235.819 175.754 236.928V239.6C175.754 239.824 175.791 239.984 175.866 240.08C175.951 240.176 176.084 240.235 176.266 240.256V242C176.074 242.032 175.898 242.059 175.738 242.08C175.588 242.101 175.46 242.112 175.354 242.112C174.927 242.112 174.602 242.016 174.378 241.824C174.164 241.632 174.031 241.397 173.978 241.12L173.93 240.688C173.567 241.157 173.114 241.52 172.57 241.776C172.026 242.032 171.471 242.16 170.906 242.16C170.351 242.16 169.85 242.048 169.402 241.824C168.964 241.589 168.618 241.275 168.362 240.88C168.116 240.475 167.994 240.021 167.994 239.52ZM173.21 239.952C173.327 239.824 173.423 239.696 173.498 239.568C173.572 239.44 173.61 239.323 173.61 239.216V238.368C173.354 238.261 173.076 238.181 172.778 238.128C172.479 238.064 172.196 238.032 171.93 238.032C171.375 238.032 170.916 238.155 170.554 238.4C170.202 238.635 170.026 238.949 170.026 239.344C170.026 239.557 170.084 239.76 170.202 239.952C170.319 240.144 170.49 240.299 170.714 240.416C170.938 240.533 171.204 240.592 171.514 240.592C171.834 240.592 172.148 240.533 172.458 240.416C172.767 240.288 173.018 240.133 173.21 239.952ZM181.661 242.16C180.979 242.16 180.365 242.048 179.821 241.824C179.277 241.589 178.813 241.269 178.429 240.864C178.045 240.448 177.747 239.979 177.533 239.456C177.331 238.933 177.229 238.384 177.229 237.808C177.229 237.019 177.405 236.299 177.757 235.648C178.12 234.987 178.632 234.459 179.293 234.064C179.955 233.669 180.739 233.472 181.645 233.472C182.552 233.472 183.331 233.669 183.981 234.064C184.632 234.459 185.117 234.976 185.437 235.616L183.341 236.256C183.16 235.947 182.92 235.712 182.621 235.552C182.323 235.381 181.992 235.296 181.629 235.296C181.224 235.296 180.851 235.403 180.509 235.616C180.179 235.819 179.917 236.112 179.725 236.496C179.533 236.869 179.437 237.307 179.437 237.808C179.437 238.299 179.533 238.736 179.725 239.12C179.928 239.493 180.195 239.792 180.525 240.016C180.856 240.229 181.224 240.336 181.629 240.336C181.885 240.336 182.125 240.293 182.349 240.208C182.584 240.123 182.792 240.005 182.973 239.856C183.155 239.707 183.288 239.536 183.373 239.344L185.469 239.984C185.277 240.4 184.995 240.773 184.621 241.104C184.259 241.435 183.827 241.696 183.325 241.888C182.835 242.069 182.28 242.16 181.661 242.16ZM190.614 242.16C189.932 242.16 189.318 242.048 188.774 241.824C188.23 241.589 187.766 241.269 187.382 240.864C186.998 240.448 186.7 239.979 186.486 239.456C186.284 238.933 186.182 238.384 186.182 237.808C186.182 237.019 186.358 236.299 186.71 235.648C187.073 234.987 187.585 234.459 188.246 234.064C188.908 233.669 189.692 233.472 190.598 233.472C191.505 233.472 192.284 233.669 192.934 234.064C193.585 234.459 194.07 234.976 194.39 235.616L192.294 236.256C192.113 235.947 191.873 235.712 191.574 235.552C191.276 235.381 190.945 235.296 190.582 235.296C190.177 235.296 189.804 235.403 189.462 235.616C189.132 235.819 188.87 236.112 188.678 236.496C188.486 236.869 188.39 237.307 188.39 237.808C188.39 238.299 188.486 238.736 188.678 239.12C188.881 239.493 189.148 239.792 189.478 240.016C189.809 240.229 190.177 240.336 190.582 240.336C190.838 240.336 191.078 240.293 191.302 240.208C191.537 240.123 191.745 240.005 191.926 239.856C192.108 239.707 192.241 239.536 192.326 239.344L194.422 239.984C194.23 240.4 193.948 240.773 193.574 241.104C193.212 241.435 192.78 241.696 192.278 241.888C191.788 242.069 191.233 242.16 190.614 242.16ZM195.166 239.52C195.166 238.976 195.315 238.501 195.614 238.096C195.923 237.68 196.35 237.36 196.894 237.136C197.438 236.912 198.062 236.8 198.766 236.8C199.118 236.8 199.475 236.827 199.838 236.88C200.2 236.933 200.515 237.019 200.782 237.136V236.688C200.782 236.155 200.622 235.744 200.302 235.456C199.992 235.168 199.528 235.024 198.91 235.024C198.451 235.024 198.014 235.104 197.598 235.264C197.182 235.424 196.744 235.659 196.286 235.968L195.598 234.56C196.152 234.197 196.718 233.925 197.294 233.744C197.88 233.563 198.494 233.472 199.134 233.472C200.328 233.472 201.256 233.771 201.918 234.368C202.59 234.965 202.926 235.819 202.926 236.928V239.6C202.926 239.824 202.963 239.984 203.038 240.08C203.123 240.176 203.256 240.235 203.438 240.256V242C203.246 242.032 203.07 242.059 202.91 242.08C202.76 242.101 202.632 242.112 202.526 242.112C202.099 242.112 201.774 242.016 201.55 241.824C201.336 241.632 201.203 241.397 201.15 241.12L201.102 240.688C200.739 241.157 200.286 241.52 199.742 241.776C199.198 242.032 198.643 242.16 198.078 242.16C197.523 242.16 197.022 242.048 196.574 241.824C196.136 241.589 195.79 241.275 195.534 240.88C195.288 240.475 195.166 240.021 195.166 239.52ZM200.382 239.952C200.499 239.824 200.595 239.696 200.67 239.568C200.744 239.44 200.782 239.323 200.782 239.216V238.368C200.526 238.261 200.248 238.181 199.95 238.128C199.651 238.064 199.368 238.032 199.102 238.032C198.547 238.032 198.088 238.155 197.726 238.4C197.374 238.635 197.198 238.949 197.198 239.344C197.198 239.557 197.256 239.76 197.374 239.952C197.491 240.144 197.662 240.299 197.886 240.416C198.11 240.533 198.376 240.592 198.686 240.592C199.006 240.592 199.32 240.533 199.63 240.416C199.939 240.288 200.19 240.133 200.382 239.952Z" fill="#85A080"/>
<path d="M58.284 185.504C59.292 185.672 60.168 186.056 60.912 186.656C61.68 187.232 62.268 187.976 62.676 188.888C63.084 189.776 63.288 190.784 63.288 191.912C63.288 193.4 62.916 194.696 62.172 195.8C61.452 196.904 60.42 197.756 59.076 198.356C57.732 198.98 56.148 199.292 54.324 199.292C52.5 199.292 50.892 198.968 49.5 198.32C48.108 197.696 46.992 196.784 46.152 195.584L48.564 192.848C49.14 193.712 49.884 194.396 50.796 194.9C51.708 195.428 52.86 195.692 54.252 195.692C55.812 195.692 57.024 195.356 57.888 194.684C58.752 194.012 59.184 193.004 59.184 191.66C59.184 190.268 58.704 189.176 57.744 188.384C56.808 187.592 55.392 187.196 53.496 187.196H52.524V184.1H53.604C55.212 184.1 56.448 183.728 57.312 182.984C58.176 182.216 58.608 181.256 58.608 180.104C58.608 179.336 58.428 178.712 58.068 178.232C57.732 177.728 57.252 177.356 56.628 177.116C56.004 176.876 55.284 176.756 54.468 176.756C53.244 176.756 52.164 177.02 51.228 177.548C50.292 178.076 49.548 178.832 48.996 179.816L46.512 177.116C46.992 176.348 47.652 175.676 48.492 175.1C49.332 174.524 50.292 174.08 51.372 173.768C52.476 173.432 53.64 173.264 54.864 173.264C56.448 173.264 57.84 173.528 59.04 174.056C60.24 174.584 61.164 175.328 61.812 176.288C62.484 177.248 62.82 178.376 62.82 179.672C62.82 180.608 62.64 181.496 62.28 182.336C61.92 183.152 61.392 183.848 60.696 184.424C60 184.976 59.196 185.336 58.284 185.504ZM66.9538 194V189.392H70.2298V194H66.9538Z" fill="#B16BF7" fill-opacity="0.4"/>
</g>
<path d="M132.665 82.2822H120.02C119.257 82.2822 118.64 82.9016 118.64 83.662C118.64 84.4223 119.257 85.0417 120.02 85.0417H132.665C133.428 85.0417 134.044 84.4254 134.044 83.662C134.044 82.8985 133.428 82.2822 132.665 82.2822Z" fill="#85A080"/>
<path d="M154.897 82.2822H142.252C141.492 82.2822 140.872 82.9016 140.872 83.662C140.872 84.4223 141.492 85.0417 142.252 85.0417H154.897C155.66 85.0417 156.276 84.4254 156.276 83.662C156.276 82.8985 155.66 82.2822 154.897 82.2822Z" fill="#85A080"/>
<path d="M99.1711 88.1751V85.0416H110.436C111.196 85.0416 111.816 84.4253 111.816 83.6618C111.816 82.8984 111.196 82.2821 110.436 82.2821H99.1711V70.5483H107.796C108.336 70.5483 108.826 70.2325 109.05 69.7419L110.384 66.8292L112.3 73.8781C112.438 74.3901 112.858 74.7764 113.379 74.8715C113.465 74.8868 113.548 74.896 113.634 74.896C114.066 74.896 114.483 74.6906 114.744 74.3318L117.525 70.5453H126.83C127.37 70.5453 127.86 70.2295 128.084 69.7389L129.418 66.8261L131.334 73.8719C131.472 74.384 131.892 74.7703 132.413 74.8653C132.499 74.8807 132.582 74.8899 132.668 74.8899C133.1 74.8899 133.517 74.6844 133.778 74.3257L136.559 70.5391H145.864C146.404 70.5391 146.894 70.2233 147.118 69.7327L148.452 66.82L150.368 73.8689C150.506 74.3809 150.926 74.7672 151.447 74.8623C151.533 74.8776 151.616 74.8868 151.702 74.8868C152.134 74.8868 152.551 74.6814 152.812 74.3226L155.593 70.5361H164.898C165.438 70.5361 165.928 70.2203 166.152 69.7297L167.486 66.8169L169.402 73.8658C169.54 74.3778 169.96 74.7642 170.481 74.8592C170.567 74.8745 170.65 74.8837 170.736 74.8837C171.168 74.8837 171.585 74.6783 171.846 74.3196L174.627 70.533H177.57V82.3465C177.429 82.2974 177.282 82.2668 177.126 82.2668H164.481C163.721 82.2668 163.101 82.8861 163.101 83.6465C163.101 84.4069 163.721 85.0262 164.481 85.0262H177.126C177.282 85.0262 177.429 84.9956 177.57 84.9465V88.1597H99.1681L99.1711 88.1751ZM177.573 45.0387V49.8617C175.172 50.0916 173.817 51.177 172.606 52.1489C171.407 53.1117 170.463 53.8721 168.424 53.8721C166.385 53.8721 165.441 53.1117 164.242 52.1489C162.881 51.0543 161.342 49.8157 158.331 49.8157C155.32 49.8157 153.781 51.0543 152.419 52.1489C151.22 53.1117 150.276 53.8721 148.237 53.8721C146.198 53.8721 145.254 53.1117 144.055 52.1489C142.694 51.0543 141.155 49.8157 138.144 49.8157C135.133 49.8157 133.594 51.0543 132.232 52.1489C131.034 53.1117 130.089 53.8721 128.05 53.8721C126.011 53.8721 125.067 53.1117 123.871 52.1489C122.51 51.0543 120.971 49.8157 117.96 49.8157C114.949 49.8157 113.41 51.0543 112.052 52.1489C110.853 53.1117 109.908 53.8721 107.873 53.8721C105.837 53.8721 104.889 53.1117 103.694 52.1489C102.559 51.2352 101.296 50.2265 99.165 49.9138V45.0387H177.567H177.573ZM154.897 67.7858C154.866 67.7858 154.835 67.7919 154.805 67.795C154.753 67.7981 154.704 67.8011 154.651 67.8103C154.608 67.8195 154.566 67.8318 154.526 67.841C154.483 67.8533 154.44 67.8655 154.397 67.8809C154.354 67.8962 154.317 67.9176 154.277 67.936C154.237 67.9575 154.198 67.9759 154.158 68.0004C154.121 68.025 154.084 68.0526 154.05 68.0801C154.017 68.1077 153.98 68.1323 153.949 68.1629C153.912 68.1967 153.879 68.2365 153.848 68.2764C153.827 68.3009 153.805 68.3193 153.787 68.3438L152.284 70.3889L150.117 62.4233C149.963 61.8622 149.476 61.4575 148.896 61.4115C148.323 61.3624 147.771 61.6844 147.529 62.2117L144.981 67.7827H135.863C135.832 67.7827 135.801 67.7889 135.771 67.7919C135.719 67.795 135.669 67.7981 135.62 67.8073C135.577 67.8165 135.535 67.8287 135.495 67.8379C135.452 67.8502 135.409 67.8625 135.366 67.8778C135.323 67.8931 135.286 67.9146 135.246 67.933C135.206 67.9544 135.167 67.9728 135.127 67.9974C135.09 68.0219 135.053 68.0495 135.019 68.0771C134.986 68.1047 134.949 68.1292 134.918 68.1599C134.881 68.1936 134.851 68.2335 134.817 68.2733C134.796 68.2978 134.774 68.3162 134.756 68.3408L133.253 70.3858L131.086 62.4202C130.932 61.8591 130.445 61.4544 129.868 61.4084C129.295 61.3594 128.743 61.6813 128.501 62.2087L125.953 67.7797H116.835C116.804 67.7797 116.773 67.7858 116.743 67.7889C116.691 67.7919 116.641 67.795 116.592 67.8042C116.55 67.8134 116.507 67.8257 116.467 67.8349C116.424 67.8471 116.378 67.8594 116.338 67.8747C116.295 67.8901 116.258 67.9115 116.218 67.9299C116.179 67.9514 116.139 67.9698 116.099 67.9943C116.062 68.0188 116.028 68.0464 115.992 68.074C115.955 68.1016 115.921 68.1292 115.887 68.1599C115.85 68.1936 115.82 68.2335 115.786 68.2702C115.765 68.2948 115.743 68.3132 115.725 68.3377L114.222 70.3828L112.055 62.4171C111.901 61.8561 111.414 61.4513 110.837 61.4053C110.261 61.3563 109.712 61.6782 109.47 62.2056L106.922 67.7766H99.1834V52.7069C100.342 52.9706 101.094 53.5746 101.983 54.289C103.341 55.3836 104.883 56.6223 107.891 56.6223C110.899 56.6223 112.441 55.3836 113.799 54.289C114.998 53.3263 115.942 52.5659 117.978 52.5659C120.014 52.5659 120.962 53.3263 122.16 54.289C123.522 55.3836 125.061 56.6223 128.069 56.6223C131.076 56.6223 132.619 55.3836 133.98 54.289C135.179 53.3263 136.123 52.5659 138.159 52.5659C140.195 52.5659 141.142 53.3263 142.341 54.289C143.703 55.3836 145.242 56.6223 148.253 56.6223C151.263 56.6223 152.803 55.3836 154.164 54.289C155.363 53.3263 156.307 52.5659 158.346 52.5659C160.385 52.5659 161.329 53.3263 162.528 54.289C163.889 55.3836 165.429 56.6223 168.439 56.6223C171.45 56.6223 172.989 55.3836 174.351 54.289C175.347 53.4888 176.169 52.8296 177.589 52.6272V67.7735H173.949C173.511 67.7735 173.097 67.982 172.836 68.3377L171.334 70.3828L169.166 62.4171C169.013 61.8561 168.525 61.4513 167.949 61.4053C167.376 61.3563 166.824 61.6782 166.581 62.2056L164.034 67.7766H154.915L154.897 67.7858ZM178.953 42.2793H97.7914C97.031 42.2793 96.4117 42.8986 96.4117 43.659V89.5548C96.4117 90.3152 97.031 90.9345 97.7914 90.9345H178.953C179.713 90.9345 180.333 90.3152 180.333 89.5548V43.659C180.333 42.8986 179.713 42.2793 178.953 42.2793Z" fill="#85A080"/>
<path d="M182.982 98.7345C182.982 100.157 181.823 101.316 180.4 101.316H96.3411C94.9184 101.316 93.7594 100.157 93.7594 98.7345V41.3411C93.7594 39.9184 94.9184 38.7594 96.3411 38.7594H180.4C181.823 38.7594 182.982 39.9184 182.982 41.3411V98.7315V98.7345ZM149.583 110.487C149.727 110.922 150.08 111.256 150.518 111.379C154.05 112.372 154.817 113.445 154.817 113.66C154.817 113.875 154.066 114.933 150.598 115.92C147.351 116.843 143.006 117.352 138.371 117.352C133.735 117.352 129.39 116.843 126.143 115.92C122.675 114.933 121.924 113.872 121.924 113.66C121.924 113.449 122.688 112.372 126.223 111.379C126.664 111.256 127.014 110.919 127.158 110.487L129.286 104.076H147.452L149.58 110.487H149.583ZM180.4 36H96.3411C93.3946 36 91 38.3946 91 41.3411V98.7315C91 101.678 93.3946 104.073 96.3411 104.073H126.379L124.766 108.932C121.047 110.094 119.165 111.682 119.165 113.66C119.165 118.094 129.12 120.111 138.371 120.111C147.621 120.111 157.576 118.091 157.576 113.66C157.576 111.682 155.694 110.094 151.975 108.932L150.362 104.073H180.4C183.347 104.073 185.741 101.678 185.741 98.7315V41.3411C185.741 38.3946 183.347 36 180.4 36Z" fill="#85A080"/>
<defs>
<filter id="filter0_d_0_457" x="0" y="0" width="285" height="342" filterUnits="userSpaceOnUse" color-interpolation-filters="sRGB">
<feFlood flood-opacity="0" result="BackgroundImageFix"/>
<feColorMatrix in="SourceAlpha" type="matrix" values="0 0 0 0 0 0 0 0 0 0 0 0 0 0 0 0 0 0 127 0" result="hardAlpha"/>
<feOffset dx="4" dy="11"/>
<feGaussianBlur stdDeviation="8.5"/>
<feComposite in2="hardAlpha" operator="out"/>
<feColorMatrix type="matrix" values="0 0 0 0 0.300245 0 0 0 0 0.580139 0 0 0 0 0.248412 0 0 0 0.2 0"/>
<feBlend mode="normal" in2="BackgroundImageFix" result="effect1_dropShadow_0_457"/>
<feBlend mode="normal" in="SourceGraphic" in2="effect1_dropShadow_0_457" result="shape"/>
</filter>
</defs>
</svg>
