<svg width="64" height="88" viewBox="0 0 64 88" fill="none" xmlns="http://www.w3.org/2000/svg">
<path d="M35.2308 39.3333H22.4615C21.357 39.3333 20.4615 38.4379 20.4615 37.3333V22.6667C20.4615 21.5621 21.357 20.6667 22.4615 20.6667H35.2308C37.6789 20.6667 40.0268 21.65 41.7579 23.4003C43.489 25.1507 44.4615 27.5246 44.4615 30C44.4615 32.4754 43.489 34.8493 41.7579 36.5997C40.0268 38.35 37.6789 39.3333 35.2308 39.3333ZM34.3077 2H4C2.89543 2 2 2.89543 2 4V84C2 85.1046 2.89543 86 4 86H18.4615C19.5661 86 20.4615 85.1046 20.4615 84V60C20.4615 58.8954 21.357 58 22.4615 58H34.3077C41.6521 58 48.6958 55.05 53.8891 49.799C59.0824 44.548 62 37.4261 62 30C62 14.5067 49.5846 2 34.3077 2Z" stroke="#85A080" stroke-width="3"/>
</svg>
