<svg width="264" height="342" viewBox="0 0 264 342" fill="none" xmlns="http://www.w3.org/2000/svg">
<g filter="url(#filter0_d_0_475)">
<rect x="13" y="50" width="251" height="264" rx="20" fill="#DEDEDE"/>
<rect x="66" y="6" width="144" height="144" rx="15" fill="white"/>
<path d="M46.216 223V211.64H54.408V213.544H48.408V216.28H51.496C52.7653 216.28 53.72 216.579 54.36 217.176C55 217.773 55.32 218.573 55.32 219.576C55.32 220.248 55.1813 220.84 54.904 221.352C54.6267 221.864 54.216 222.269 53.672 222.568C53.128 222.856 52.44 223 51.608 223H46.216ZM48.408 221.096H51.304C51.7307 221.096 52.072 221.021 52.328 220.872C52.584 220.712 52.7707 220.515 52.888 220.28C53.0053 220.035 53.064 219.779 53.064 219.512C53.064 219.245 53.0107 219 52.904 218.776C52.808 218.541 52.632 218.355 52.376 218.216C52.12 218.067 51.752 217.992 51.272 217.992H48.408V221.096ZM60.5515 223.16C59.8795 223.16 59.2715 223.048 58.7275 222.824C58.1835 222.589 57.7195 222.275 57.3355 221.88C56.9515 221.475 56.6528 221.016 56.4395 220.504C56.2368 219.981 56.1355 219.432 56.1355 218.856C56.1355 218.056 56.3115 217.325 56.6635 216.664C57.0262 216.003 57.5382 215.475 58.1995 215.08C58.8715 214.675 59.6608 214.472 60.5675 214.472C61.4848 214.472 62.2688 214.675 62.9195 215.08C63.5702 215.475 64.0662 216.003 64.4075 216.664C64.7595 217.315 64.9355 218.019 64.9355 218.776C64.9355 218.904 64.9302 219.037 64.9195 219.176C64.9088 219.304 64.8982 219.411 64.8875 219.496H58.4075C58.4502 219.923 58.5728 220.296 58.7755 220.616C58.9888 220.936 59.2555 221.181 59.5755 221.352C59.9062 221.512 60.2582 221.592 60.6315 221.592C61.0582 221.592 61.4582 221.491 61.8315 221.288C62.2155 221.075 62.4768 220.797 62.6155 220.456L64.4555 220.968C64.2528 221.395 63.9595 221.773 63.5755 222.104C63.2022 222.435 62.7595 222.696 62.2475 222.888C61.7355 223.069 61.1702 223.16 60.5515 223.16ZM58.3595 218.136H62.7435C62.7008 217.709 62.5782 217.341 62.3755 217.032C62.1835 216.712 61.9275 216.467 61.6075 216.296C61.2875 216.115 60.9302 216.024 60.5355 216.024C60.1515 216.024 59.7995 216.115 59.4795 216.296C59.1702 216.467 58.9142 216.712 58.7115 217.032C58.5195 217.341 58.4022 217.709 58.3595 218.136ZM70.1456 223.16C69.463 223.16 68.8496 223.048 68.3056 222.824C67.7616 222.589 67.2976 222.269 66.9136 221.864C66.5296 221.448 66.231 220.979 66.0176 220.456C65.815 219.933 65.7136 219.384 65.7136 218.808C65.7136 218.019 65.8896 217.299 66.2416 216.648C66.6043 215.987 67.1163 215.459 67.7776 215.064C68.439 214.669 69.223 214.472 70.1296 214.472C71.0363 214.472 71.815 214.669 72.4656 215.064C73.1163 215.459 73.6016 215.976 73.9216 216.616L71.8256 217.256C71.6443 216.947 71.4043 216.712 71.1056 216.552C70.807 216.381 70.4763 216.296 70.1136 216.296C69.7083 216.296 69.335 216.403 68.9936 216.616C68.663 216.819 68.4016 217.112 68.2096 217.496C68.0176 217.869 67.9216 218.307 67.9216 218.808C67.9216 219.299 68.0176 219.736 68.2096 220.12C68.4123 220.493 68.679 220.792 69.0096 221.016C69.3403 221.229 69.7083 221.336 70.1136 221.336C70.3696 221.336 70.6096 221.293 70.8336 221.208C71.0683 221.123 71.2763 221.005 71.4576 220.856C71.639 220.707 71.7723 220.536 71.8576 220.344L73.9536 220.984C73.7616 221.4 73.479 221.773 73.1056 222.104C72.743 222.435 72.311 222.696 71.8096 222.888C71.319 223.069 70.7643 223.16 70.1456 223.16ZM75.2729 223V214.616H82.7929V223H80.6489V216.488H77.4169V223H75.2729ZM84.1336 223.112V221.208C84.3896 221.197 84.619 221.133 84.8216 221.016C85.0243 220.899 85.2003 220.701 85.3496 220.424C85.5096 220.136 85.6323 219.736 85.7176 219.224C85.8136 218.712 85.8776 218.056 85.9096 217.256L86.0216 214.616H92.3096V223H90.1656V216.488H87.9096L87.8776 217.464C87.835 218.563 87.7283 219.475 87.5576 220.2C87.387 220.925 87.147 221.501 86.8376 221.928C86.539 222.344 86.1656 222.643 85.7176 222.824C85.2696 223.005 84.7416 223.101 84.1336 223.112ZM93.6813 220.52C93.6813 219.976 93.8306 219.501 94.1293 219.096C94.4386 218.68 94.8653 218.36 95.4093 218.136C95.9533 217.912 96.5773 217.8 97.2812 217.8C97.6333 217.8 97.9906 217.827 98.3533 217.88C98.7159 217.933 99.0306 218.019 99.2973 218.136V217.688C99.2973 217.155 99.1373 216.744 98.8173 216.456C98.5079 216.168 98.0439 216.024 97.4253 216.024C96.9666 216.024 96.5293 216.104 96.1133 216.264C95.6973 216.424 95.2599 216.659 94.8013 216.968L94.1133 215.56C94.6679 215.197 95.2333 214.925 95.8093 214.744C96.3959 214.563 97.0093 214.472 97.6493 214.472C98.8439 214.472 99.7719 214.771 100.433 215.368C101.105 215.965 101.441 216.819 101.441 217.928V220.6C101.441 220.824 101.479 220.984 101.553 221.08C101.639 221.176 101.772 221.235 101.953 221.256V223C101.761 223.032 101.585 223.059 101.425 223.08C101.276 223.101 101.148 223.112 101.041 223.112C100.615 223.112 100.289 223.016 100.065 222.824C99.8519 222.632 99.7186 222.397 99.6653 222.12L99.6173 221.688C99.2546 222.157 98.8013 222.52 98.2573 222.776C97.7133 223.032 97.1586 223.16 96.5933 223.16C96.0386 223.16 95.5373 223.048 95.0893 222.824C94.6519 222.589 94.3053 222.275 94.0493 221.88C93.8039 221.475 93.6813 221.021 93.6813 220.52ZM98.8973 220.952C99.0146 220.824 99.1106 220.696 99.1853 220.568C99.2599 220.44 99.2973 220.323 99.2973 220.216V219.368C99.0413 219.261 98.7639 219.181 98.4653 219.128C98.1666 219.064 97.8839 219.032 97.6173 219.032C97.0626 219.032 96.6039 219.155 96.2413 219.4C95.8893 219.635 95.7133 219.949 95.7133 220.344C95.7133 220.557 95.7719 220.76 95.8893 220.952C96.0066 221.144 96.1773 221.299 96.4013 221.416C96.6253 221.533 96.8919 221.592 97.2013 221.592C97.5213 221.592 97.8359 221.533 98.1453 221.416C98.4546 221.288 98.7053 221.133 98.8973 220.952ZM105.287 223V216.488H102.631V214.616H110.103V216.488H107.431V223H105.287ZM111.304 223V214.616H113.448V217.816H116.84V214.616H118.984V223H116.84V219.608H113.448V223H111.304ZM120.369 220.52C120.369 219.976 120.518 219.501 120.817 219.096C121.126 218.68 121.553 218.36 122.097 218.136C122.641 217.912 123.265 217.8 123.969 217.8C124.321 217.8 124.678 217.827 125.041 217.88C125.403 217.933 125.718 218.019 125.985 218.136V217.688C125.985 217.155 125.825 216.744 125.505 216.456C125.195 216.168 124.731 216.024 124.113 216.024C123.654 216.024 123.217 216.104 122.801 216.264C122.385 216.424 121.947 216.659 121.489 216.968L120.801 215.56C121.355 215.197 121.921 214.925 122.497 214.744C123.083 214.563 123.697 214.472 124.337 214.472C125.531 214.472 126.459 214.771 127.121 215.368C127.793 215.965 128.129 216.819 128.129 217.928V220.6C128.129 220.824 128.166 220.984 128.241 221.08C128.326 221.176 128.459 221.235 128.641 221.256V223C128.449 223.032 128.273 223.059 128.113 223.08C127.963 223.101 127.835 223.112 127.729 223.112C127.302 223.112 126.977 223.016 126.753 222.824C126.539 222.632 126.406 222.397 126.353 222.12L126.305 221.688C125.942 222.157 125.489 222.52 124.945 222.776C124.401 223.032 123.846 223.16 123.281 223.16C122.726 223.16 122.225 223.048 121.777 222.824C121.339 222.589 120.993 222.275 120.737 221.88C120.491 221.475 120.369 221.021 120.369 220.52ZM125.585 220.952C125.702 220.824 125.798 220.696 125.873 220.568C125.947 220.44 125.985 220.323 125.985 220.216V219.368C125.729 219.261 125.451 219.181 125.153 219.128C124.854 219.064 124.571 219.032 124.305 219.032C123.75 219.032 123.291 219.155 122.929 219.4C122.577 219.635 122.401 219.949 122.401 220.344C122.401 220.557 122.459 220.76 122.577 220.952C122.694 221.144 122.865 221.299 123.089 221.416C123.313 221.533 123.579 221.592 123.889 221.592C124.209 221.592 124.523 221.533 124.833 221.416C125.142 221.288 125.393 221.133 125.585 220.952ZM129.684 223L131.812 219.736C131.311 219.597 130.911 219.325 130.612 218.92C130.324 218.515 130.18 217.981 130.18 217.32C130.18 216.765 130.308 216.285 130.564 215.88C130.82 215.475 131.172 215.16 131.62 214.936C132.068 214.701 132.586 214.584 133.172 214.584H137.156V223H135.012V220.104H133.876L132.036 223H129.684ZM133.428 218.568H135.012V216.232H133.508C133.124 216.232 132.82 216.339 132.596 216.552C132.372 216.765 132.26 217.043 132.26 217.384C132.26 217.725 132.356 218.008 132.548 218.232C132.751 218.456 133.044 218.568 133.428 218.568ZM142.945 223V214.616H150.465V223H148.321V216.488H145.089V223H142.945ZM151.838 220.52C151.838 219.976 151.987 219.501 152.286 219.096C152.595 218.68 153.022 218.36 153.566 218.136C154.11 217.912 154.734 217.8 155.438 217.8C155.79 217.8 156.147 217.827 156.51 217.88C156.872 217.933 157.187 218.019 157.454 218.136V217.688C157.454 217.155 157.294 216.744 156.974 216.456C156.664 216.168 156.2 216.024 155.582 216.024C155.123 216.024 154.686 216.104 154.27 216.264C153.854 216.424 153.416 216.659 152.958 216.968L152.27 215.56C152.824 215.197 153.39 214.925 153.966 214.744C154.552 214.563 155.166 214.472 155.806 214.472C157 214.472 157.928 214.771 158.59 215.368C159.262 215.965 159.598 216.819 159.598 217.928V220.6C159.598 220.824 159.635 220.984 159.71 221.08C159.795 221.176 159.928 221.235 160.11 221.256V223C159.918 223.032 159.742 223.059 159.582 223.08C159.432 223.101 159.304 223.112 159.198 223.112C158.771 223.112 158.446 223.016 158.222 222.824C158.008 222.632 157.875 222.397 157.822 222.12L157.774 221.688C157.411 222.157 156.958 222.52 156.414 222.776C155.87 223.032 155.315 223.16 154.75 223.16C154.195 223.16 153.694 223.048 153.246 222.824C152.808 222.589 152.462 222.275 152.206 221.88C151.96 221.475 151.838 221.021 151.838 220.52ZM157.054 220.952C157.171 220.824 157.267 220.696 157.342 220.568C157.416 220.44 157.454 220.323 157.454 220.216V219.368C157.198 219.261 156.92 219.181 156.622 219.128C156.323 219.064 156.04 219.032 155.774 219.032C155.219 219.032 154.76 219.155 154.398 219.4C154.046 219.635 153.87 219.949 153.87 220.344C153.87 220.557 153.928 220.76 154.046 220.952C154.163 221.144 154.334 221.299 154.558 221.416C154.782 221.533 155.048 221.592 155.358 221.592C155.678 221.592 155.992 221.533 156.302 221.416C156.611 221.288 156.862 221.133 157.054 220.952ZM166.625 223.16C165.974 223.16 165.398 223.016 164.897 222.728C164.406 222.429 164.022 222.029 163.745 221.528V226.408H161.601V214.616H163.473V216.056C163.793 215.565 164.198 215.181 164.689 214.904C165.18 214.616 165.74 214.472 166.369 214.472C166.934 214.472 167.452 214.584 167.921 214.808C168.401 215.032 168.817 215.347 169.169 215.752C169.521 216.147 169.793 216.605 169.985 217.128C170.188 217.64 170.289 218.195 170.289 218.792C170.289 219.603 170.129 220.339 169.809 221C169.5 221.661 169.068 222.189 168.513 222.584C167.969 222.968 167.34 223.16 166.625 223.16ZM165.905 221.336C166.236 221.336 166.534 221.267 166.801 221.128C167.068 220.989 167.297 220.803 167.489 220.568C167.692 220.323 167.841 220.051 167.937 219.752C168.044 219.443 168.097 219.123 168.097 218.792C168.097 218.44 168.038 218.115 167.921 217.816C167.814 217.517 167.654 217.256 167.441 217.032C167.228 216.797 166.977 216.616 166.689 216.488C166.412 216.36 166.108 216.296 165.777 216.296C165.574 216.296 165.366 216.333 165.153 216.408C164.95 216.472 164.753 216.568 164.561 216.696C164.369 216.824 164.198 216.973 164.049 217.144C163.91 217.315 163.809 217.501 163.745 217.704V219.672C163.873 219.981 164.044 220.264 164.257 220.52C164.481 220.776 164.737 220.979 165.025 221.128C165.313 221.267 165.606 221.336 165.905 221.336ZM171.742 223V214.616H173.886V217.784H174.606L176.878 214.616H179.214L176.238 218.664L179.534 223H177.086L174.574 219.672H173.886V223H171.742ZM184.301 223.16C183.618 223.16 183.005 223.048 182.461 222.824C181.917 222.589 181.453 222.269 181.069 221.864C180.696 221.459 180.408 220.995 180.205 220.472C180.002 219.949 179.901 219.4 179.901 218.824C179.901 218.237 180.002 217.683 180.205 217.16C180.408 216.637 180.696 216.173 181.069 215.768C181.453 215.363 181.917 215.048 182.461 214.824C183.005 214.589 183.618 214.472 184.301 214.472C184.984 214.472 185.592 214.589 186.125 214.824C186.669 215.048 187.133 215.363 187.517 215.768C187.901 216.173 188.189 216.637 188.381 217.16C188.584 217.683 188.685 218.237 188.685 218.824C188.685 219.4 188.584 219.949 188.381 220.472C188.189 220.995 187.901 221.459 187.517 221.864C187.144 222.269 186.685 222.589 186.141 222.824C185.597 223.048 184.984 223.16 184.301 223.16ZM182.109 218.824C182.109 219.315 182.205 219.752 182.397 220.136C182.589 220.509 182.85 220.803 183.181 221.016C183.512 221.229 183.885 221.336 184.301 221.336C184.706 221.336 185.074 221.229 185.405 221.016C185.736 220.792 185.997 220.493 186.189 220.12C186.392 219.736 186.493 219.299 186.493 218.808C186.493 218.328 186.392 217.896 186.189 217.512C185.997 217.128 185.736 216.829 185.405 216.616C185.074 216.403 184.706 216.296 184.301 216.296C183.885 216.296 183.512 216.408 183.181 216.632C182.85 216.845 182.589 217.144 182.397 217.528C182.205 217.901 182.109 218.333 182.109 218.824ZM190.132 223V214.616H194.804C195.38 214.616 195.844 214.712 196.196 214.904C196.559 215.096 196.826 215.347 196.996 215.656C197.167 215.965 197.252 216.296 197.252 216.648C197.252 217.117 197.146 217.528 196.932 217.88C196.73 218.232 196.41 218.504 195.972 218.696C196.463 218.835 196.863 219.075 197.172 219.416C197.482 219.747 197.636 220.184 197.636 220.728C197.636 221.251 197.514 221.683 197.268 222.024C197.023 222.355 196.671 222.6 196.212 222.76C195.754 222.92 195.21 223 194.58 223H190.132ZM192.164 221.544H194.516C194.708 221.544 194.884 221.496 195.044 221.4C195.204 221.304 195.327 221.176 195.412 221.016C195.508 220.856 195.556 220.68 195.556 220.488C195.556 220.285 195.514 220.109 195.428 219.96C195.343 219.8 195.22 219.677 195.06 219.592C194.911 219.496 194.735 219.448 194.532 219.448H192.164V221.544ZM192.164 218.104H194.26C194.452 218.104 194.623 218.056 194.772 217.96C194.922 217.864 195.034 217.736 195.108 217.576C195.194 217.416 195.236 217.24 195.236 217.048C195.236 216.771 195.146 216.541 194.964 216.36C194.794 216.168 194.564 216.072 194.276 216.072H192.164V218.104ZM199.195 223V214.616H201.339V217.784H202.059L204.331 214.616H206.667L203.691 218.664L206.987 223H204.539L202.027 219.672H201.339V223H199.195ZM207.666 220.52C207.666 219.976 207.815 219.501 208.114 219.096C208.423 218.68 208.85 218.36 209.394 218.136C209.938 217.912 210.562 217.8 211.266 217.8C211.618 217.8 211.975 217.827 212.338 217.88C212.7 217.933 213.015 218.019 213.282 218.136V217.688C213.282 217.155 213.122 216.744 212.802 216.456C212.492 216.168 212.028 216.024 211.41 216.024C210.951 216.024 210.514 216.104 210.098 216.264C209.682 216.424 209.244 216.659 208.786 216.968L208.098 215.56C208.652 215.197 209.218 214.925 209.794 214.744C210.38 214.563 210.994 214.472 211.634 214.472C212.828 214.472 213.756 214.771 214.418 215.368C215.09 215.965 215.426 216.819 215.426 217.928V220.6C215.426 220.824 215.463 220.984 215.538 221.08C215.623 221.176 215.756 221.235 215.938 221.256V223C215.746 223.032 215.57 223.059 215.41 223.08C215.26 223.101 215.132 223.112 215.026 223.112C214.599 223.112 214.274 223.016 214.05 222.824C213.836 222.632 213.703 222.397 213.65 222.12L213.602 221.688C213.239 222.157 212.786 222.52 212.242 222.776C211.698 223.032 211.143 223.16 210.578 223.16C210.023 223.16 209.522 223.048 209.074 222.824C208.636 222.589 208.29 222.275 208.034 221.88C207.788 221.475 207.666 221.021 207.666 220.52ZM212.882 220.952C212.999 220.824 213.095 220.696 213.17 220.568C213.244 220.44 213.282 220.323 213.282 220.216V219.368C213.026 219.261 212.748 219.181 212.45 219.128C212.151 219.064 211.868 219.032 211.602 219.032C211.047 219.032 210.588 219.155 210.226 219.4C209.874 219.635 209.698 219.949 209.698 220.344C209.698 220.557 209.756 220.76 209.874 220.952C209.991 221.144 210.162 221.299 210.386 221.416C210.61 221.533 210.876 221.592 211.186 221.592C211.506 221.592 211.82 221.533 212.13 221.416C212.439 221.288 212.69 221.133 212.882 220.952Z" fill="#85A080"/>
<path d="M45.208 243.968V240.752H45.384C45.6187 240.752 45.832 240.683 46.024 240.544C46.2267 240.405 46.4027 240.165 46.552 239.824C46.712 239.472 46.84 238.992 46.936 238.384C47.032 237.776 47.096 237.003 47.128 236.064L47.208 233.648H52.888V240.752H54.024V243.968H52.776V242H46.456V243.968H45.208ZM47.352 240.752H51.48V234.896H48.456L48.408 236.192C48.376 237.099 48.312 237.861 48.216 238.48C48.1307 239.088 48.0133 239.573 47.864 239.936C47.7253 240.299 47.5547 240.571 47.352 240.752ZM54.8531 242.064V240.8C55.1305 240.8 55.3758 240.731 55.5891 240.592C55.8131 240.443 56.0105 240.197 56.1811 239.856C56.3518 239.504 56.4851 239.024 56.5811 238.416C56.6878 237.797 56.7571 237.013 56.7891 236.064L56.8851 233.648H62.5651V242H61.1571V234.896H58.1331L58.1011 236.192C58.0585 237.333 57.9625 238.283 57.8131 239.04C57.6638 239.797 57.4558 240.395 57.1891 240.832C56.9225 241.269 56.5918 241.584 56.1971 241.776C55.8131 241.968 55.3651 242.064 54.8531 242.064ZM64.2151 242L66.5831 238.64C66.0391 238.533 65.6018 238.277 65.2711 237.872C64.9405 237.456 64.7751 236.901 64.7751 236.208C64.7751 235.707 64.8925 235.264 65.1271 234.88C65.3618 234.496 65.6871 234.192 66.1031 233.968C66.5298 233.744 67.0258 233.632 67.5911 233.632H71.0151V242H69.6071V238.864H67.9751L65.7671 242H64.2151ZM67.6871 237.824H69.6071V234.736H67.8471C67.3458 234.736 66.9458 234.88 66.6471 235.168C66.3485 235.445 66.1991 235.803 66.1991 236.24C66.1991 236.677 66.3218 237.051 66.5671 237.36C66.8231 237.669 67.1965 237.824 67.6871 237.824ZM77.3231 242V233.648H84.2511V242H82.8431V234.896H78.7311V242H77.3231ZM85.8706 239.584C85.8706 239.051 86.02 238.592 86.3186 238.208C86.628 237.813 87.0493 237.509 87.5826 237.296C88.116 237.083 88.7346 236.976 89.4386 236.976C89.812 236.976 90.2066 237.008 90.6226 237.072C91.0386 237.125 91.4066 237.211 91.7266 237.328V236.72C91.7266 236.08 91.5346 235.579 91.1506 235.216C90.7666 234.843 90.2226 234.656 89.5186 234.656C89.06 234.656 88.6173 234.741 88.1906 234.912C87.7746 235.072 87.332 235.307 86.8626 235.616L86.3506 234.624C86.8946 234.251 87.4386 233.973 87.9826 233.792C88.5266 233.6 89.092 233.504 89.6786 233.504C90.7453 233.504 91.588 233.803 92.2066 234.4C92.8253 234.987 93.1346 235.808 93.1346 236.864V240.4C93.1346 240.571 93.1666 240.699 93.2306 240.784C93.3053 240.859 93.4226 240.901 93.5826 240.912V242C93.444 242.021 93.3213 242.037 93.2146 242.048C93.1186 242.059 93.0386 242.064 92.9746 242.064C92.644 242.064 92.3933 241.973 92.2226 241.792C92.0626 241.611 91.972 241.419 91.9506 241.216L91.9186 240.688C91.556 241.157 91.0813 241.52 90.4946 241.776C89.908 242.032 89.3266 242.16 88.7506 242.16C88.196 242.16 87.7 242.048 87.2626 241.824C86.8253 241.589 86.484 241.28 86.2386 240.896C85.9933 240.501 85.8706 240.064 85.8706 239.584ZM91.3106 240.176C91.4386 240.027 91.54 239.877 91.6146 239.728C91.6893 239.568 91.7266 239.435 91.7266 239.328V238.288C91.396 238.16 91.0493 238.064 90.6866 238C90.324 237.925 89.9666 237.888 89.6146 237.888C88.9 237.888 88.3186 238.032 87.8706 238.32C87.4333 238.597 87.2146 238.981 87.2146 239.472C87.2146 239.739 87.284 240 87.4226 240.256C87.572 240.501 87.7853 240.704 88.0626 240.864C88.3506 241.024 88.7026 241.104 89.1186 241.104C89.556 241.104 89.972 241.019 90.3666 240.848C90.7613 240.667 91.076 240.443 91.3106 240.176ZM101.962 243.968V242H95.37V233.648H96.778V240.768H100.65V233.648H102.058V240.768H103.21V243.968H101.962ZM104.761 242V233.664H106.169V240.112L110.841 233.648H112.121V242H110.713V235.68L106.105 242H104.761ZM118.066 242.16C117.437 242.16 116.861 242.048 116.338 241.824C115.826 241.589 115.378 241.275 114.994 240.88C114.621 240.475 114.328 240.011 114.114 239.488C113.912 238.965 113.81 238.411 113.81 237.824C113.81 237.035 113.992 236.315 114.354 235.664C114.717 235.013 115.218 234.491 115.858 234.096C116.509 233.701 117.25 233.504 118.082 233.504C118.925 233.504 119.656 233.707 120.274 234.112C120.904 234.507 121.389 235.029 121.73 235.68C122.082 236.32 122.258 237.013 122.258 237.76C122.258 237.867 122.253 237.973 122.242 238.08C122.242 238.176 122.237 238.251 122.226 238.304H115.298C115.341 238.848 115.49 239.333 115.746 239.76C116.013 240.176 116.354 240.507 116.77 240.752C117.186 240.987 117.634 241.104 118.114 241.104C118.626 241.104 119.106 240.976 119.554 240.72C120.013 240.464 120.328 240.128 120.498 239.712L121.714 240.048C121.533 240.453 121.261 240.816 120.898 241.136C120.546 241.456 120.125 241.707 119.634 241.888C119.154 242.069 118.632 242.16 118.066 242.16ZM115.25 237.328H120.946C120.904 236.784 120.749 236.304 120.482 235.888C120.216 235.472 119.874 235.147 119.458 234.912C119.042 234.677 118.584 234.56 118.082 234.56C117.592 234.56 117.138 234.677 116.722 234.912C116.306 235.147 115.965 235.472 115.698 235.888C115.442 236.304 115.293 236.784 115.25 237.328ZM123.808 242V233.648H125.216V237.104H129.568V233.648H130.976V242H129.568V238.352H125.216V242H123.808ZM135.277 242V234.896H132.397V233.648H139.565V234.896H136.685V242H135.277ZM144.628 242.16C143.998 242.16 143.428 242.048 142.916 241.824C142.404 241.589 141.961 241.275 141.588 240.88C141.214 240.475 140.926 240.011 140.724 239.488C140.521 238.965 140.42 238.416 140.42 237.84C140.42 237.253 140.521 236.699 140.724 236.176C140.926 235.653 141.214 235.195 141.588 234.8C141.961 234.395 142.404 234.08 142.916 233.856C143.438 233.621 144.014 233.504 144.644 233.504C145.262 233.504 145.828 233.621 146.34 233.856C146.852 234.08 147.294 234.395 147.668 234.8C148.052 235.195 148.345 235.653 148.548 236.176C148.75 236.699 148.852 237.253 148.852 237.84C148.852 238.416 148.75 238.965 148.548 239.488C148.345 240.011 148.057 240.475 147.684 240.88C147.31 241.275 146.862 241.589 146.34 241.824C145.828 242.048 145.257 242.16 144.628 242.16ZM141.86 237.856C141.86 238.432 141.982 238.955 142.228 239.424C142.484 239.893 142.82 240.267 143.236 240.544C143.652 240.811 144.116 240.944 144.628 240.944C145.14 240.944 145.604 240.805 146.02 240.528C146.446 240.251 146.782 239.877 147.028 239.408C147.284 238.928 147.412 238.4 147.412 237.824C147.412 237.248 147.284 236.725 147.028 236.256C146.782 235.787 146.446 235.413 146.02 235.136C145.604 234.859 145.14 234.72 144.628 234.72C144.116 234.72 143.652 234.864 143.236 235.152C142.82 235.429 142.484 235.803 142.228 236.272C141.982 236.741 141.86 237.269 141.86 237.856ZM150.542 242V233.648H154.862C155.363 233.648 155.779 233.749 156.11 233.952C156.441 234.144 156.686 234.395 156.846 234.704C157.017 235.013 157.102 235.344 157.102 235.696C157.102 236.144 156.995 236.549 156.782 236.912C156.569 237.264 156.259 237.531 155.854 237.712C156.334 237.851 156.723 238.101 157.022 238.464C157.321 238.816 157.47 239.253 157.47 239.776C157.47 240.245 157.358 240.645 157.134 240.976C156.91 241.307 156.595 241.563 156.19 241.744C155.785 241.915 155.315 242 154.782 242H150.542ZM151.886 241.008H154.75C155.006 241.008 155.235 240.944 155.438 240.816C155.651 240.688 155.817 240.517 155.934 240.304C156.051 240.091 156.11 239.867 156.11 239.632C156.11 239.376 156.051 239.147 155.934 238.944C155.827 238.731 155.673 238.565 155.47 238.448C155.278 238.32 155.054 238.256 154.798 238.256H151.886V241.008ZM151.886 237.328H154.494C154.75 237.328 154.974 237.264 155.166 237.136C155.358 236.997 155.507 236.821 155.614 236.608C155.721 236.395 155.774 236.171 155.774 235.936C155.774 235.584 155.657 235.28 155.422 235.024C155.198 234.768 154.905 234.64 154.542 234.64H151.886V237.328Z" fill="#262626"/>
<path d="M65.304 185.504C65.304 187.136 64.896 188.624 64.08 189.968C63.288 191.312 62.184 192.38 60.768 193.172C59.376 193.964 57.816 194.36 56.088 194.36C54.216 194.36 52.572 193.916 51.156 193.028C49.764 192.116 48.672 190.808 47.88 189.104C47.112 187.4 46.728 185.372 46.728 183.02C46.728 179.756 47.124 177.032 47.916 174.848C48.732 172.664 49.872 171.02 51.336 169.916C52.8 168.812 54.516 168.26 56.484 168.26C58.116 168.26 59.604 168.644 60.948 169.412C62.316 170.156 63.42 171.2 64.26 172.544L61.92 174.992C61.368 173.984 60.6 173.192 59.616 172.616C58.656 172.016 57.588 171.716 56.412 171.716C55.236 171.716 54.192 172.064 53.28 172.76C52.392 173.432 51.696 174.416 51.192 175.712C50.712 177.008 50.46 178.58 50.436 180.428C50.796 179.708 51.264 179.096 51.84 178.592C52.44 178.064 53.136 177.656 53.928 177.368C54.72 177.08 55.56 176.936 56.448 176.936C58.128 176.936 59.628 177.32 60.948 178.088C62.292 178.856 63.348 179.888 64.116 181.184C64.908 182.456 65.304 183.896 65.304 185.504ZM56.088 190.976C57.072 190.976 57.972 190.736 58.788 190.256C59.628 189.752 60.288 189.08 60.768 188.24C61.272 187.4 61.524 186.488 61.524 185.504C61.524 184.52 61.272 183.62 60.768 182.804C60.288 181.988 59.64 181.34 58.824 180.86C58.008 180.356 57.096 180.104 56.088 180.104C55.128 180.104 54.228 180.356 53.388 180.86C52.548 181.34 51.876 181.988 51.372 182.804C50.892 183.62 50.652 184.52 50.652 185.504C50.652 186.488 50.904 187.4 51.408 188.24C51.912 189.056 52.572 189.716 53.388 190.22C54.228 190.724 55.128 190.976 56.088 190.976ZM69.0632 194V189.392H72.3392V194H69.0632Z" fill="#B16BF7" fill-opacity="0.4"/>
</g>
<path d="M141.231 73.3333H128.462C127.357 73.3333 126.462 72.4379 126.462 71.3333V56.6667C126.462 55.5621 127.357 54.6667 128.462 54.6667H141.231C143.679 54.6667 146.027 55.65 147.758 57.4003C149.489 59.1507 150.462 61.5246 150.462 64C150.462 66.4754 149.489 68.8493 147.758 70.5997C146.027 72.35 143.679 73.3333 141.231 73.3333ZM140.308 36H110C108.895 36 108 36.8954 108 38V118C108 119.105 108.895 120 110 120H124.462C125.566 120 126.462 119.105 126.462 118V94C126.462 92.8954 127.357 92 128.462 92H140.308C147.652 92 154.696 89.05 159.889 83.799C165.082 78.548 168 71.4261 168 64C168 48.5067 155.585 36 140.308 36Z" stroke="#85A080" stroke-width="3"/>
<defs>
<filter id="filter0_d_0_475" x="0" y="0" width="285" height="342" filterUnits="userSpaceOnUse" color-interpolation-filters="sRGB">
<feFlood flood-opacity="0" result="BackgroundImageFix"/>
<feColorMatrix in="SourceAlpha" type="matrix" values="0 0 0 0 0 0 0 0 0 0 0 0 0 0 0 0 0 0 127 0" result="hardAlpha"/>
<feOffset dx="4" dy="11"/>
<feGaussianBlur stdDeviation="8.5"/>
<feComposite in2="hardAlpha" operator="out"/>
<feColorMatrix type="matrix" values="0 0 0 0 0.300245 0 0 0 0 0.580139 0 0 0 0 0.248412 0 0 0 0.2 0"/>
<feBlend mode="normal" in2="BackgroundImageFix" result="effect1_dropShadow_0_475"/>
<feBlend mode="normal" in="SourceGraphic" in2="effect1_dropShadow_0_475" result="shape"/>
</filter>
</defs>
</svg>
