<svg width="285" height="342" viewBox="0 0 285 342" fill="none" xmlns="http://www.w3.org/2000/svg">
<g filter="url(#filter0_d_0_468)">
<rect x="13" y="50" width="251" height="264" rx="20" fill="#DEDEDE"/>
<rect x="66" y="6" width="144" height="144" rx="15" fill="white"/>
<path d="M45.496 217.24C45.496 216.547 45.6187 215.869 45.864 215.208C46.12 214.536 46.488 213.928 46.968 213.384C47.448 212.829 48.0347 212.392 48.728 212.072C49.4213 211.741 50.2107 211.576 51.096 211.576C52.1413 211.576 53.0427 211.805 53.8 212.264C54.568 212.723 55.1387 213.32 55.512 214.056L53.816 215.224C53.624 214.797 53.3733 214.461 53.064 214.216C52.7547 213.96 52.424 213.784 52.072 213.688C51.72 213.581 51.3733 213.528 51.032 213.528C50.4773 213.528 49.992 213.64 49.576 213.864C49.1707 214.088 48.8293 214.381 48.552 214.744C48.2747 215.107 48.0667 215.512 47.928 215.96C47.8 216.408 47.736 216.856 47.736 217.304C47.736 217.805 47.816 218.291 47.976 218.76C48.136 219.219 48.36 219.629 48.648 219.992C48.9467 220.344 49.2987 220.627 49.704 220.84C50.12 221.043 50.5733 221.144 51.064 221.144C51.416 221.144 51.7733 221.085 52.136 220.968C52.4987 220.851 52.8347 220.664 53.144 220.408C53.4533 220.152 53.6933 219.821 53.864 219.416L55.672 220.456C55.448 221.021 55.08 221.501 54.568 221.896C54.0667 222.291 53.5013 222.589 52.872 222.792C52.2427 222.995 51.6187 223.096 51 223.096C50.1893 223.096 49.448 222.931 48.776 222.6C48.104 222.259 47.5227 221.811 47.032 221.256C46.552 220.691 46.1733 220.061 45.896 219.368C45.6293 218.664 45.496 217.955 45.496 217.24ZM56.9448 223V214.632H59.0888V220.136L62.8488 214.616H64.8008V223H62.6568V217.624L58.9448 223H56.9448ZM66.7573 223V214.616H68.9013V217.816H72.2933V214.616H74.4373V223H72.2933V219.608H68.9013V223H66.7573ZM80.2859 223.16C79.6139 223.16 79.0059 223.048 78.4619 222.824C77.9179 222.589 77.4539 222.275 77.0699 221.88C76.6859 221.475 76.3872 221.016 76.1739 220.504C75.9712 219.981 75.8699 219.432 75.8699 218.856C75.8699 218.056 76.0459 217.325 76.3979 216.664C76.7605 216.003 77.2725 215.475 77.9339 215.08C78.6059 214.675 79.3952 214.472 80.3019 214.472C81.2192 214.472 82.0032 214.675 82.6539 215.08C83.3045 215.475 83.8005 216.003 84.1419 216.664C84.4939 217.315 84.6699 218.019 84.6699 218.776C84.6699 218.904 84.6645 219.037 84.6539 219.176C84.6432 219.304 84.6325 219.411 84.6219 219.496H78.1419C78.1845 219.923 78.3072 220.296 78.5099 220.616C78.7232 220.936 78.9899 221.181 79.3099 221.352C79.6405 221.512 79.9925 221.592 80.3659 221.592C80.7925 221.592 81.1925 221.491 81.5659 221.288C81.9499 221.075 82.2112 220.797 82.3499 220.456L84.1899 220.968C83.9872 221.395 83.6939 221.773 83.3099 222.104C82.9365 222.435 82.4939 222.696 81.9819 222.888C81.4699 223.069 80.9045 223.16 80.2859 223.16ZM78.0939 218.136H82.4779C82.4352 217.709 82.3125 217.341 82.1099 217.032C81.9179 216.712 81.6619 216.467 81.3419 216.296C81.0219 216.115 80.6645 216.024 80.2699 216.024C79.8859 216.024 79.5339 216.115 79.2139 216.296C78.9045 216.467 78.6485 216.712 78.4459 217.032C78.2539 217.341 78.1365 217.709 78.0939 218.136ZM91 223.16C90.3493 223.16 89.7733 223.016 89.272 222.728C88.7813 222.429 88.3973 222.029 88.12 221.528V226.408H85.976V214.616H87.848V216.056C88.168 215.565 88.5733 215.181 89.064 214.904C89.5547 214.616 90.1147 214.472 90.744 214.472C91.3093 214.472 91.8267 214.584 92.296 214.808C92.776 215.032 93.192 215.347 93.544 215.752C93.896 216.147 94.168 216.605 94.36 217.128C94.5627 217.64 94.664 218.195 94.664 218.792C94.664 219.603 94.504 220.339 94.184 221C93.8747 221.661 93.4427 222.189 92.888 222.584C92.344 222.968 91.7147 223.16 91 223.16ZM90.28 221.336C90.6107 221.336 90.9093 221.267 91.176 221.128C91.4427 220.989 91.672 220.803 91.864 220.568C92.0667 220.323 92.216 220.051 92.312 219.752C92.4187 219.443 92.472 219.123 92.472 218.792C92.472 218.44 92.4133 218.115 92.296 217.816C92.1893 217.517 92.0293 217.256 91.816 217.032C91.6027 216.797 91.352 216.616 91.064 216.488C90.7867 216.36 90.4827 216.296 90.152 216.296C89.9493 216.296 89.7413 216.333 89.528 216.408C89.3253 216.472 89.128 216.568 88.936 216.696C88.744 216.824 88.5733 216.973 88.424 217.144C88.2853 217.315 88.184 217.501 88.12 217.704V219.672C88.248 219.981 88.4187 220.264 88.632 220.52C88.856 220.776 89.112 220.979 89.4 221.128C89.688 221.267 89.9813 221.336 90.28 221.336ZM96.1166 223V214.616H101.669V216.488H98.2606V223H96.1166ZM102.898 223V214.632H105.042V220.136L108.802 214.616H110.754V223H108.61V217.624L104.898 223H102.898ZM112.262 223L114.39 219.736C113.889 219.597 113.489 219.325 113.19 218.92C112.902 218.515 112.758 217.981 112.758 217.32C112.758 216.765 112.886 216.285 113.142 215.88C113.398 215.475 113.75 215.16 114.198 214.936C114.646 214.701 115.164 214.584 115.75 214.584H119.734V223H117.59V220.104H116.454L114.614 223H112.262ZM116.006 218.568H117.59V216.232H116.086C115.702 216.232 115.398 216.339 115.174 216.552C114.95 216.765 114.838 217.043 114.838 217.384C114.838 217.725 114.934 218.008 115.126 218.232C115.329 218.456 115.622 218.568 116.006 218.568Z" fill="#85A080"/>
<path d="M45.208 243.968V240.752H45.384C45.6187 240.752 45.832 240.683 46.024 240.544C46.2267 240.405 46.4027 240.165 46.552 239.824C46.712 239.472 46.84 238.992 46.936 238.384C47.032 237.776 47.096 237.003 47.128 236.064L47.208 233.648H52.888V240.752H54.024V243.968H52.776V242H46.456V243.968H45.208ZM47.352 240.752H51.48V234.896H48.456L48.408 236.192C48.376 237.099 48.312 237.861 48.216 238.48C48.1307 239.088 48.0133 239.573 47.864 239.936C47.7253 240.299 47.5547 240.571 47.352 240.752ZM59.2371 242.16C58.6078 242.16 58.0371 242.048 57.5251 241.824C57.0131 241.589 56.5705 241.275 56.1971 240.88C55.8238 240.475 55.5358 240.011 55.3331 239.488C55.1305 238.965 55.0291 238.416 55.0291 237.84C55.0291 237.253 55.1305 236.699 55.3331 236.176C55.5358 235.653 55.8238 235.195 56.1971 234.8C56.5705 234.395 57.0131 234.08 57.5251 233.856C58.0478 233.621 58.6238 233.504 59.2531 233.504C59.8718 233.504 60.4371 233.621 60.9491 233.856C61.4611 234.08 61.9038 234.395 62.2771 234.8C62.6611 235.195 62.9545 235.653 63.1571 236.176C63.3598 236.699 63.4611 237.253 63.4611 237.84C63.4611 238.416 63.3598 238.965 63.1571 239.488C62.9545 240.011 62.6665 240.475 62.2931 240.88C61.9198 241.275 61.4718 241.589 60.9491 241.824C60.4371 242.048 59.8665 242.16 59.2371 242.16ZM56.4691 237.856C56.4691 238.432 56.5918 238.955 56.8371 239.424C57.0931 239.893 57.4291 240.267 57.8451 240.544C58.2611 240.811 58.7251 240.944 59.2371 240.944C59.7491 240.944 60.2131 240.805 60.6291 240.528C61.0558 240.251 61.3918 239.877 61.6371 239.408C61.8931 238.928 62.0211 238.4 62.0211 237.824C62.0211 237.248 61.8931 236.725 61.6371 236.256C61.3918 235.787 61.0558 235.413 60.6291 235.136C60.2131 234.859 59.7491 234.72 59.2371 234.72C58.7251 234.72 58.2611 234.864 57.8451 235.152C57.4291 235.429 57.0931 235.803 56.8371 236.272C56.5918 236.741 56.4691 237.269 56.4691 237.856ZM65.1513 242V233.648H66.5593V237.088H67.4873L70.1113 233.648H71.7113L68.5913 237.696L72.0793 242H70.4473L67.4873 238.384H66.5593V242H65.1513ZM72.8081 239.584C72.8081 239.051 72.9575 238.592 73.2561 238.208C73.5655 237.813 73.9868 237.509 74.5201 237.296C75.0535 237.083 75.6721 236.976 76.3761 236.976C76.7495 236.976 77.1441 237.008 77.5601 237.072C77.9761 237.125 78.3441 237.211 78.6641 237.328V236.72C78.6641 236.08 78.4721 235.579 78.0881 235.216C77.7041 234.843 77.1601 234.656 76.4561 234.656C75.9975 234.656 75.5548 234.741 75.1281 234.912C74.7121 235.072 74.2695 235.307 73.8001 235.616L73.2881 234.624C73.8321 234.251 74.3761 233.973 74.9201 233.792C75.4641 233.6 76.0295 233.504 76.6161 233.504C77.6828 233.504 78.5255 233.803 79.1441 234.4C79.7628 234.987 80.0721 235.808 80.0721 236.864V240.4C80.0721 240.571 80.1041 240.699 80.1681 240.784C80.2428 240.859 80.3601 240.901 80.5201 240.912V242C80.3815 242.021 80.2588 242.037 80.1521 242.048C80.0561 242.059 79.9761 242.064 79.9121 242.064C79.5815 242.064 79.3308 241.973 79.1601 241.792C79.0001 241.611 78.9095 241.419 78.8881 241.216L78.8561 240.688C78.4935 241.157 78.0188 241.52 77.4321 241.776C76.8455 242.032 76.2641 242.16 75.6881 242.16C75.1335 242.16 74.6375 242.048 74.2001 241.824C73.7628 241.589 73.4215 241.28 73.1761 240.896C72.9308 240.501 72.8081 240.064 72.8081 239.584ZM78.2481 240.176C78.3761 240.027 78.4775 239.877 78.5521 239.728C78.6268 239.568 78.6641 239.435 78.6641 239.328V238.288C78.3335 238.16 77.9868 238.064 77.6241 238C77.2615 237.925 76.9041 237.888 76.5521 237.888C75.8375 237.888 75.2561 238.032 74.8081 238.32C74.3708 238.597 74.1521 238.981 74.1521 239.472C74.1521 239.739 74.2215 240 74.3601 240.256C74.5095 240.501 74.7228 240.704 75.0001 240.864C75.2881 241.024 75.6401 241.104 76.0561 241.104C76.4935 241.104 76.9095 241.019 77.3041 240.848C77.6988 240.667 78.0135 240.443 78.2481 240.176ZM84.9315 242.112C84.1208 242.112 83.4328 241.963 82.8675 241.664C82.3128 241.355 81.8862 240.928 81.5875 240.384L82.7395 239.872C82.9315 240.213 83.2035 240.48 83.5555 240.672C83.9182 240.864 84.3555 240.96 84.8675 240.96C85.4755 240.96 85.9555 240.827 86.3075 240.56C86.6595 240.293 86.8355 239.936 86.8355 239.488C86.8355 239.083 86.6915 238.757 86.4035 238.512C86.1262 238.256 85.7315 238.123 85.2195 238.112H84.3715V237.184H85.2675C85.4915 237.184 85.6888 237.131 85.8595 237.024C86.0408 236.907 86.1795 236.752 86.2755 236.56C86.3822 236.368 86.4355 236.155 86.4355 235.92C86.4355 235.547 86.3022 235.248 86.0355 235.024C85.7688 234.789 85.3688 234.672 84.8355 234.672C84.3982 234.672 84.0302 234.757 83.7315 234.928C83.4435 235.099 83.2088 235.355 83.0275 235.696L81.9555 235.12C82.2222 234.619 82.6062 234.229 83.1075 233.952C83.6195 233.664 84.2168 233.52 84.8995 233.52C85.4435 233.52 85.9235 233.611 86.3395 233.792C86.7662 233.963 87.0968 234.213 87.3315 234.544C87.5768 234.875 87.6995 235.275 87.6995 235.744C87.6995 236.139 87.6035 236.507 87.4115 236.848C87.2302 237.179 86.9582 237.429 86.5955 237.6C87.0968 237.749 87.4808 238.011 87.7475 238.384C88.0142 238.747 88.1475 239.179 88.1475 239.68C88.1475 240.192 88.0088 240.629 87.7315 240.992C87.4542 241.355 87.0755 241.632 86.5955 241.824C86.1155 242.016 85.5608 242.112 84.9315 242.112ZM89.1831 239.584C89.1831 239.051 89.3325 238.592 89.6311 238.208C89.9405 237.813 90.3618 237.509 90.8951 237.296C91.4285 237.083 92.0471 236.976 92.7511 236.976C93.1245 236.976 93.5191 237.008 93.9351 237.072C94.3511 237.125 94.7191 237.211 95.0391 237.328V236.72C95.0391 236.08 94.8471 235.579 94.4631 235.216C94.0791 234.843 93.5351 234.656 92.8311 234.656C92.3725 234.656 91.9298 234.741 91.5031 234.912C91.0871 235.072 90.6445 235.307 90.1751 235.616L89.6631 234.624C90.2071 234.251 90.7511 233.973 91.2951 233.792C91.8391 233.6 92.4045 233.504 92.9911 233.504C94.0578 233.504 94.9005 233.803 95.5191 234.4C96.1378 234.987 96.4471 235.808 96.4471 236.864V240.4C96.4471 240.571 96.4791 240.699 96.5431 240.784C96.6178 240.859 96.7351 240.901 96.8951 240.912V242C96.7565 242.021 96.6338 242.037 96.5271 242.048C96.4311 242.059 96.3511 242.064 96.2871 242.064C95.9565 242.064 95.7058 241.973 95.5351 241.792C95.3751 241.611 95.2845 241.419 95.2631 241.216L95.2311 240.688C94.8685 241.157 94.3938 241.52 93.8071 241.776C93.2205 242.032 92.6391 242.16 92.0631 242.16C91.5085 242.16 91.0125 242.048 90.5751 241.824C90.1378 241.589 89.7965 241.28 89.5511 240.896C89.3058 240.501 89.1831 240.064 89.1831 239.584ZM94.6231 240.176C94.7511 240.027 94.8525 239.877 94.9271 239.728C95.0018 239.568 95.0391 239.435 95.0391 239.328V238.288C94.7085 238.16 94.3618 238.064 93.9991 238C93.6365 237.925 93.2791 237.888 92.9271 237.888C92.2125 237.888 91.6311 238.032 91.1831 238.32C90.7458 238.597 90.5271 238.981 90.5271 239.472C90.5271 239.739 90.5965 240 90.7351 240.256C90.8845 240.501 91.0978 240.704 91.3751 240.864C91.6631 241.024 92.0151 241.104 92.4311 241.104C92.8685 241.104 93.2845 241.019 93.6791 240.848C94.0738 240.667 94.3885 240.443 94.6231 240.176ZM100.637 242V234.896H97.7568V233.648H104.925V234.896H102.045V242H100.637ZM110.035 242.16C109.406 242.16 108.83 242.048 108.307 241.824C107.795 241.589 107.347 241.275 106.963 240.88C106.59 240.475 106.296 240.011 106.083 239.488C105.88 238.965 105.779 238.411 105.779 237.824C105.779 237.035 105.96 236.315 106.323 235.664C106.686 235.013 107.187 234.491 107.827 234.096C108.478 233.701 109.219 233.504 110.051 233.504C110.894 233.504 111.624 233.707 112.243 234.112C112.872 234.507 113.358 235.029 113.699 235.68C114.051 236.32 114.227 237.013 114.227 237.76C114.227 237.867 114.222 237.973 114.211 238.08C114.211 238.176 114.206 238.251 114.195 238.304H107.267C107.31 238.848 107.459 239.333 107.715 239.76C107.982 240.176 108.323 240.507 108.739 240.752C109.155 240.987 109.603 241.104 110.083 241.104C110.595 241.104 111.075 240.976 111.523 240.72C111.982 240.464 112.296 240.128 112.467 239.712L113.683 240.048C113.502 240.453 113.23 240.816 112.867 241.136C112.515 241.456 112.094 241.707 111.603 241.888C111.123 242.069 110.6 242.16 110.035 242.16ZM107.219 237.328H112.915C112.872 236.784 112.718 236.304 112.451 235.888C112.184 235.472 111.843 235.147 111.427 234.912C111.011 234.677 110.552 234.56 110.051 234.56C109.56 234.56 109.107 234.677 108.691 234.912C108.275 235.147 107.934 235.472 107.667 235.888C107.411 236.304 107.262 236.784 107.219 237.328ZM115.056 242.064V240.8C115.334 240.8 115.579 240.731 115.792 240.592C116.016 240.443 116.214 240.197 116.384 239.856C116.555 239.504 116.688 239.024 116.784 238.416C116.891 237.797 116.96 237.013 116.992 236.064L117.088 233.648H122.768V242H121.36V234.896H118.336L118.304 236.192C118.262 237.333 118.166 238.283 118.016 239.04C117.867 239.797 117.659 240.395 117.392 240.832C117.126 241.269 116.795 241.584 116.4 241.776C116.016 241.968 115.568 242.064 115.056 242.064ZM125.026 242V233.648H126.434V236.496H128.514C129.496 236.496 130.237 236.747 130.738 237.248C131.25 237.739 131.506 238.384 131.506 239.184C131.506 239.717 131.394 240.197 131.17 240.624C130.957 241.051 130.637 241.387 130.21 241.632C129.784 241.877 129.25 242 128.61 242H125.026ZM126.434 240.896H128.418C128.813 240.896 129.128 240.821 129.362 240.672C129.608 240.512 129.789 240.304 129.906 240.048C130.024 239.792 130.082 239.515 130.082 239.216C130.082 238.928 130.029 238.661 129.922 238.416C129.816 238.171 129.64 237.973 129.394 237.824C129.149 237.675 128.813 237.6 128.386 237.6H126.434V240.896ZM133.026 242V233.648H134.434V237.104H138.786V233.648H140.194V242H138.786V238.352H134.434V242H133.026ZM146.112 242.16C145.483 242.16 144.912 242.048 144.4 241.824C143.888 241.589 143.445 241.275 143.072 240.88C142.699 240.475 142.411 240.011 142.208 239.488C142.005 238.965 141.904 238.416 141.904 237.84C141.904 237.253 142.005 236.699 142.208 236.176C142.411 235.653 142.699 235.195 143.072 234.8C143.445 234.395 143.888 234.08 144.4 233.856C144.923 233.621 145.499 233.504 146.128 233.504C146.747 233.504 147.312 233.621 147.824 233.856C148.336 234.08 148.779 234.395 149.152 234.8C149.536 235.195 149.829 235.653 150.032 236.176C150.235 236.699 150.336 237.253 150.336 237.84C150.336 238.416 150.235 238.965 150.032 239.488C149.829 240.011 149.541 240.475 149.168 240.88C148.795 241.275 148.347 241.589 147.824 241.824C147.312 242.048 146.741 242.16 146.112 242.16ZM143.344 237.856C143.344 238.432 143.467 238.955 143.712 239.424C143.968 239.893 144.304 240.267 144.72 240.544C145.136 240.811 145.6 240.944 146.112 240.944C146.624 240.944 147.088 240.805 147.504 240.528C147.931 240.251 148.267 239.877 148.512 239.408C148.768 238.928 148.896 238.4 148.896 237.824C148.896 237.248 148.768 236.725 148.512 236.256C148.267 235.787 147.931 235.413 147.504 235.136C147.088 234.859 146.624 234.72 146.112 234.72C145.6 234.72 145.136 234.864 144.72 235.152C144.304 235.429 143.968 235.803 143.712 236.272C143.467 236.741 143.344 237.269 143.344 237.856ZM152.026 242V233.664H153.434V240.112L158.106 233.648H159.386V242H157.978V235.68L153.37 242H152.026ZM155.722 232.704C154.954 232.704 154.373 232.523 153.978 232.16C153.584 231.787 153.386 231.328 153.386 230.784H154.378C154.378 231.083 154.48 231.333 154.682 231.536C154.896 231.728 155.242 231.824 155.722 231.824C156.192 231.824 156.522 231.733 156.714 231.552C156.906 231.36 157.024 231.104 157.066 230.784H158.058C158.058 231.328 157.861 231.787 157.466 232.16C157.072 232.523 156.49 232.704 155.722 232.704ZM46.12 261V252.664H47.528V259.112L52.2 252.648H53.48V261H52.072V254.68L47.464 261H46.12ZM61.8086 261V253.896H58.9286V252.648H66.0966V253.896H63.2166V261H61.8086ZM72.007 261.16C71.3243 261.16 70.7163 260.989 70.183 260.648C69.6497 260.307 69.2283 259.875 68.919 259.352V264.408H67.511V252.648H68.759V254.216C69.0897 253.704 69.5217 253.293 70.055 252.984C70.5883 252.664 71.1697 252.504 71.799 252.504C72.375 252.504 72.903 252.621 73.383 252.856C73.863 253.091 74.279 253.411 74.631 253.816C74.983 254.221 75.255 254.685 75.447 255.208C75.6497 255.72 75.751 256.259 75.751 256.824C75.751 257.613 75.591 258.339 75.271 259C74.9617 259.661 74.5243 260.189 73.959 260.584C73.3937 260.968 72.743 261.16 72.007 261.16ZM71.575 259.944C71.991 259.944 72.3643 259.859 72.695 259.688C73.0363 259.507 73.3243 259.272 73.559 258.984C73.8043 258.685 73.991 258.349 74.119 257.976C74.247 257.603 74.311 257.219 74.311 256.824C74.311 256.408 74.2363 256.013 74.087 255.64C73.9483 255.267 73.7457 254.936 73.479 254.648C73.223 254.36 72.919 254.136 72.567 253.976C72.2257 253.805 71.8523 253.72 71.447 253.72C71.191 253.72 70.9243 253.768 70.647 253.864C70.3803 253.96 70.1243 254.099 69.879 254.28C69.6337 254.451 69.4257 254.648 69.255 254.872C69.0843 255.096 68.9723 255.336 68.919 255.592V257.976C69.079 258.339 69.2923 258.669 69.559 258.968C69.8257 259.267 70.135 259.507 70.487 259.688C70.839 259.859 71.2017 259.944 71.575 259.944ZM76.8238 258.584C76.8238 258.051 76.9731 257.592 77.2718 257.208C77.5811 256.813 78.0024 256.509 78.5358 256.296C79.0691 256.083 79.6878 255.976 80.3918 255.976C80.7651 255.976 81.1598 256.008 81.5758 256.072C81.9918 256.125 82.3598 256.211 82.6798 256.328V255.72C82.6798 255.08 82.4878 254.579 82.1038 254.216C81.7198 253.843 81.1758 253.656 80.4718 253.656C80.0131 253.656 79.5704 253.741 79.1438 253.912C78.7278 254.072 78.2851 254.307 77.8158 254.616L77.3038 253.624C77.8478 253.251 78.3918 252.973 78.9358 252.792C79.4798 252.6 80.0451 252.504 80.6318 252.504C81.6984 252.504 82.5411 252.803 83.1598 253.4C83.7784 253.987 84.0878 254.808 84.0878 255.864V259.4C84.0878 259.571 84.1198 259.699 84.1838 259.784C84.2584 259.859 84.3758 259.901 84.5358 259.912V261C84.3971 261.021 84.2744 261.037 84.1678 261.048C84.0718 261.059 83.9918 261.064 83.9278 261.064C83.5971 261.064 83.3464 260.973 83.1758 260.792C83.0158 260.611 82.9251 260.419 82.9038 260.216L82.8718 259.688C82.5091 260.157 82.0344 260.52 81.4478 260.776C80.8611 261.032 80.2798 261.16 79.7038 261.16C79.1491 261.16 78.6531 261.048 78.2158 260.824C77.7784 260.589 77.4371 260.28 77.1918 259.896C76.9464 259.501 76.8238 259.064 76.8238 258.584ZM82.2638 259.176C82.3918 259.027 82.4931 258.877 82.5678 258.728C82.6424 258.568 82.6798 258.435 82.6798 258.328V257.288C82.3491 257.16 82.0024 257.064 81.6398 257C81.2771 256.925 80.9198 256.888 80.5677 256.888C79.8531 256.888 79.2718 257.032 78.8238 257.32C78.3864 257.597 78.1678 257.981 78.1678 258.472C78.1678 258.739 78.2371 259 78.3758 259.256C78.5251 259.501 78.7384 259.704 79.0158 259.864C79.3038 260.024 79.6558 260.104 80.0718 260.104C80.5091 260.104 80.9251 260.019 81.3198 259.848C81.7144 259.667 82.0291 259.443 82.2638 259.176ZM85.4111 262.968V259.752H85.5871C85.8218 259.752 86.0351 259.683 86.2271 259.544C86.4298 259.405 86.6058 259.165 86.7551 258.824C86.9151 258.472 87.0431 257.992 87.1391 257.384C87.2351 256.776 87.2991 256.003 87.3311 255.064L87.4111 252.648H93.0911V259.752H94.2271V262.968H92.9791V261H86.6591V262.968H85.4111ZM87.5551 259.752H91.6831V253.896H88.6591L88.6111 255.192C88.5791 256.099 88.5151 256.861 88.4191 257.48C88.3338 258.088 88.2165 258.573 88.0671 258.936C87.9285 259.299 87.7578 259.571 87.5551 259.752ZM95.7763 261V252.664H97.1843V259.112L101.856 252.648H103.136V261H101.728V254.68L97.1203 261H95.7763ZM111.962 262.968V261H105.37V252.648H106.778V259.768H110.65V252.648H112.058V259.768H113.21V262.968H111.962ZM114.761 261V252.664H116.169V259.112L120.841 252.648H122.121V261H120.713V254.68L116.105 261H114.761ZM128.018 261.16C127.389 261.16 126.818 261.048 126.306 260.824C125.794 260.589 125.352 260.275 124.978 259.88C124.605 259.475 124.317 259.011 124.114 258.488C123.912 257.965 123.81 257.416 123.81 256.84C123.81 256.253 123.912 255.699 124.114 255.176C124.317 254.653 124.605 254.195 124.978 253.8C125.352 253.395 125.794 253.08 126.306 252.856C126.829 252.621 127.405 252.504 128.034 252.504C128.653 252.504 129.218 252.621 129.73 252.856C130.242 253.08 130.685 253.395 131.058 253.8C131.442 254.195 131.736 254.653 131.938 255.176C132.141 255.699 132.242 256.253 132.242 256.84C132.242 257.416 132.141 257.965 131.938 258.488C131.736 259.011 131.448 259.475 131.074 259.88C130.701 260.275 130.253 260.589 129.73 260.824C129.218 261.048 128.648 261.16 128.018 261.16ZM125.25 256.856C125.25 257.432 125.373 257.955 125.618 258.424C125.874 258.893 126.21 259.267 126.626 259.544C127.042 259.811 127.506 259.944 128.018 259.944C128.53 259.944 128.994 259.805 129.41 259.528C129.837 259.251 130.173 258.877 130.418 258.408C130.674 257.928 130.802 257.4 130.802 256.824C130.802 256.248 130.674 255.725 130.418 255.256C130.173 254.787 129.837 254.413 129.41 254.136C128.994 253.859 128.53 253.72 128.018 253.72C127.506 253.72 127.042 253.864 126.626 254.152C126.21 254.429 125.874 254.803 125.618 255.272C125.373 255.741 125.25 256.269 125.25 256.856ZM133.933 261V252.648H135.341V256.104H139.693V252.648H141.101V261H139.693V257.352H135.341V261H133.933ZM143.354 261V252.648H144.762V256.104H149.114V252.648H150.522V261H149.114V257.352H144.762V261H143.354ZM156.44 261.16C155.811 261.16 155.24 261.048 154.728 260.824C154.216 260.589 153.774 260.275 153.4 259.88C153.027 259.475 152.739 259.011 152.536 258.488C152.334 257.965 152.232 257.416 152.232 256.84C152.232 256.253 152.334 255.699 152.536 255.176C152.739 254.653 153.027 254.195 153.4 253.8C153.774 253.395 154.216 253.08 154.728 252.856C155.251 252.621 155.827 252.504 156.456 252.504C157.075 252.504 157.64 252.621 158.152 252.856C158.664 253.08 159.107 253.395 159.48 253.8C159.864 254.195 160.158 254.653 160.36 255.176C160.563 255.699 160.664 256.253 160.664 256.84C160.664 257.416 160.563 257.965 160.36 258.488C160.158 259.011 159.87 259.475 159.496 259.88C159.123 260.275 158.675 260.589 158.152 260.824C157.64 261.048 157.07 261.16 156.44 261.16ZM153.672 256.856C153.672 257.432 153.795 257.955 154.04 258.424C154.296 258.893 154.632 259.267 155.048 259.544C155.464 259.811 155.928 259.944 156.44 259.944C156.952 259.944 157.416 259.805 157.832 259.528C158.259 259.251 158.595 258.877 158.84 258.408C159.096 257.928 159.224 257.4 159.224 256.824C159.224 256.248 159.096 255.725 158.84 255.256C158.595 254.787 158.259 254.413 157.832 254.136C157.416 253.859 156.952 253.72 156.44 253.72C155.928 253.72 155.464 253.864 155.048 254.152C154.632 254.429 154.296 254.803 154.04 255.272C153.795 255.741 153.672 256.269 153.672 256.856ZM162.354 261V252.664H163.762V259.112L168.434 252.648H169.714V261H168.306V254.68L163.698 261H162.354ZM166.05 251.704C165.282 251.704 164.701 251.523 164.306 251.16C163.912 250.787 163.714 250.328 163.714 249.784H164.706C164.706 250.083 164.808 250.333 165.01 250.536C165.224 250.728 165.57 250.824 166.05 250.824C166.52 250.824 166.85 250.733 167.042 250.552C167.234 250.36 167.352 250.104 167.394 249.784H168.386C168.386 250.328 168.189 250.787 167.794 251.16C167.4 251.523 166.818 251.704 166.05 251.704ZM46.12 280V271.648H47.576L50.68 277.12L53.8 271.648H55.224V280H53.88V273.68L51.128 278.512H50.232L47.464 273.68V280H46.12ZM61.1914 280.16C60.562 280.16 59.986 280.048 59.4634 279.824C58.9514 279.589 58.5034 279.275 58.1194 278.88C57.746 278.475 57.4527 278.011 57.2394 277.488C57.0367 276.965 56.9354 276.411 56.9354 275.824C56.9354 275.035 57.1167 274.315 57.4794 273.664C57.842 273.013 58.3434 272.491 58.9834 272.096C59.634 271.701 60.3754 271.504 61.2074 271.504C62.05 271.504 62.7807 271.707 63.3994 272.112C64.0287 272.507 64.514 273.029 64.8554 273.68C65.2074 274.32 65.3834 275.013 65.3834 275.76C65.3834 275.867 65.378 275.973 65.3674 276.08C65.3674 276.176 65.362 276.251 65.3514 276.304H58.4234C58.466 276.848 58.6154 277.333 58.8714 277.76C59.138 278.176 59.4794 278.507 59.8954 278.752C60.3114 278.987 60.7594 279.104 61.2394 279.104C61.7514 279.104 62.2314 278.976 62.6794 278.72C63.138 278.464 63.4527 278.128 63.6234 277.712L64.8394 278.048C64.658 278.453 64.386 278.816 64.0234 279.136C63.6714 279.456 63.25 279.707 62.7594 279.888C62.2794 280.069 61.7567 280.16 61.1914 280.16ZM58.3754 275.328H64.0714C64.0287 274.784 63.874 274.304 63.6074 273.888C63.3407 273.472 62.9994 273.147 62.5834 272.912C62.1674 272.677 61.7087 272.56 61.2074 272.56C60.7167 272.56 60.2634 272.677 59.8474 272.912C59.4314 273.147 59.09 273.472 58.8234 273.888C58.5674 274.304 58.418 274.784 58.3754 275.328ZM66.0205 281.968V278.752H66.1965C66.4312 278.752 66.6445 278.683 66.8365 278.544C67.0392 278.405 67.2152 278.165 67.3645 277.824C67.5245 277.472 67.6525 276.992 67.7485 276.384C67.8445 275.776 67.9085 275.003 67.9405 274.064L68.0205 271.648H73.7005V278.752H74.8365V281.968H73.5885V280H67.2685V281.968H66.0205ZM68.1645 278.752H72.2925V272.896H69.2685L69.2205 274.192C69.1885 275.099 69.1245 275.861 69.0285 276.48C68.9432 277.088 68.8258 277.573 68.6765 277.936C68.5378 278.299 68.3672 278.571 68.1645 278.752ZM76.3856 280V271.664H77.7936V278.112L82.4656 271.648H83.7456V280H82.3376V273.68L77.7296 280H76.3856ZM92.5714 281.968V280H85.9794V271.648H87.3874V278.768H91.2594V271.648H92.6674V278.768H93.8194V281.968H92.5714ZM95.37 280V271.664H96.778V278.112L101.45 271.648H102.73V280H101.322V273.68L96.714 280H95.37ZM104.964 280V271.648H106.372V275.104H110.724V271.648H112.132V280H110.724V276.352H106.372V280H104.964ZM114.386 280V271.648H115.794V274.496H117.49C118.471 274.496 119.212 274.747 119.714 275.248C120.226 275.739 120.482 276.384 120.482 277.184C120.482 277.717 120.37 278.197 120.146 278.624C119.932 279.051 119.612 279.387 119.186 279.632C118.759 279.877 118.226 280 117.586 280H114.386ZM115.794 278.896H117.394C117.788 278.896 118.103 278.821 118.338 278.672C118.583 278.512 118.764 278.304 118.882 278.048C118.999 277.792 119.058 277.515 119.058 277.216C119.058 276.928 119.004 276.661 118.898 276.416C118.791 276.171 118.615 275.973 118.37 275.824C118.124 275.675 117.788 275.6 117.362 275.6H115.794V278.896ZM121.922 280V271.664H123.33V280H121.922Z" fill="#262626"/>
<path d="M56.844 198.572V192.848H45.792V189.32L58.104 173.444H60.804V189.248H63.972V192.848H60.804V198.572H56.844ZM49.824 189.248H57.276V179.492L49.824 189.248ZM67.5163 194V189.392H70.7923V194H67.5163Z" fill="#B16BF7" fill-opacity="0.4"/>
</g>
<path d="M168.995 61.6368C168.517 61.6368 168.047 61.5906 167.594 61.5063C167.387 61.4683 167.184 61.4221 166.986 61.365C166.975 61.3623 166.964 61.3596 166.95 61.3569C163.853 60.4897 161.591 57.6898 161.478 54.4631C161.475 54.3761 161.473 54.2864 161.473 54.1994C161.473 50.0974 164.848 46.7565 168.998 46.7565C173.148 46.7565 176.524 50.0947 176.524 54.1994C176.524 58.3041 173.148 61.6423 168.998 61.6423L168.995 61.6368ZM158.471 63.1428C159.37 62.0799 160.096 60.873 160.607 59.5654C161.102 60.3157 161.693 60.998 162.369 61.5906C160.986 61.8951 159.67 62.4224 158.471 63.1428ZM149.577 96.6303C149.561 96.6466 149.541 96.6629 149.525 96.6765C149.313 96.8668 149.099 97.0489 148.879 97.2283C148.838 97.2636 148.794 97.2963 148.752 97.3316C148.544 97.5001 148.329 97.6687 148.115 97.8291C148.068 97.8617 148.024 97.897 147.977 97.9296C147.755 98.0927 147.529 98.2531 147.298 98.4081C147.287 98.4162 147.277 98.4217 147.266 98.4298C144.094 100.542 140.279 101.779 136.175 101.779C125.203 101.779 116.279 92.9523 116.279 82.1006C116.279 71.2489 125.203 62.4224 136.175 62.4224C147.147 62.4224 156.072 71.2489 156.072 82.1006C156.072 87.85 153.565 93.0312 149.577 96.633V96.6303ZM155.027 101.379C153.131 102.07 151.512 103.334 150.382 104.954C149.758 103.497 148.796 102.189 147.56 101.145C149.173 100.197 150.671 99.0469 152.001 97.7312C152.716 99.1746 153.758 100.42 155.027 101.379ZM165.609 110.391C165.609 114.335 162.363 117.545 158.375 117.545C154.387 117.545 151.141 114.335 151.141 110.391C151.141 110.189 151.152 109.988 151.168 109.793C151.177 109.678 151.19 109.567 151.204 109.455C151.204 109.455 151.204 109.45 151.204 109.447C151.644 106.166 154.368 103.595 157.674 103.271C157.707 103.268 157.743 103.266 157.776 103.263C157.856 103.255 157.938 103.249 158.018 103.247C158.136 103.241 158.254 103.239 158.375 103.239C158.562 103.239 158.749 103.247 158.939 103.263C158.958 103.263 158.98 103.266 158.999 103.268C159.189 103.285 159.381 103.309 159.571 103.339C162.99 103.905 165.606 106.851 165.606 110.393L165.609 110.391ZM118.28 101.869C117.353 99.4084 115.589 97.3479 113.332 96.0268C114.698 95.4097 115.924 94.5018 116.916 93.3546C118.156 95.4233 119.731 97.2827 121.572 98.8566C120.256 99.6177 119.137 100.651 118.28 101.869ZM107.497 114.748C102.519 114.748 98.4709 110.744 98.4709 105.821C98.4709 100.898 102.519 96.894 107.497 96.894C107.739 96.894 107.975 96.9075 108.212 96.9239C108.212 96.9239 108.214 96.9239 108.217 96.9239C112.436 97.2528 115.828 100.49 116.43 104.538C116.43 104.543 116.43 104.552 116.43 104.557C116.449 104.687 116.466 104.818 116.479 104.951C116.485 105 116.488 105.052 116.49 105.101C116.499 105.193 116.507 105.286 116.509 105.378C116.518 105.525 116.52 105.672 116.52 105.818C116.52 105.965 116.518 106.106 116.509 106.248C116.507 106.321 116.499 106.395 116.493 106.468C116.155 111.089 112.249 114.745 107.494 114.745L107.497 114.748ZM117.576 61.3052C119.841 60.5468 121.842 59.193 123.373 57.3962C123.818 59.2365 124.78 60.9382 126.187 62.2974C124.373 63.1972 122.68 64.3416 121.171 65.6899C120.401 63.8931 119.151 62.3844 117.576 61.3052ZM102.651 48.9938C102.651 43.1738 107.437 38.4411 113.321 38.4411C119.206 38.4411 123.991 43.1765 123.991 48.9938C123.991 54.4332 119.808 58.9239 114.459 59.4866C114.426 59.4893 114.393 59.492 114.36 59.4975C114.228 59.5111 114.094 59.5193 113.959 59.5274C113.918 59.5274 113.874 59.5328 113.832 59.5355C113.665 59.5437 113.494 59.5491 113.324 59.5491C113.181 59.5491 113.038 59.5437 112.895 59.5383C112.761 59.5328 112.623 59.5247 112.475 59.5111C112.475 59.5111 112.472 59.5111 112.469 59.5111C106.983 59.0789 102.654 54.5283 102.654 48.9938H102.651ZM155.258 65.8748C154.64 66.606 154.098 67.4106 153.65 68.2832C153.318 67.8728 152.969 67.4732 152.606 67.0844C153.546 66.7773 154.431 66.3695 155.256 65.8748H155.258ZM168.998 44.3046C163.485 44.3046 158.999 48.7409 158.999 54.194C158.999 54.2973 159.004 54.4006 159.007 54.5039C159.007 54.5174 159.007 54.531 159.007 54.5446C159.191 59.6986 155.563 64.1486 150.49 65.1082C146.609 61.9059 141.617 59.9759 136.181 59.9759C133.572 59.9759 131.068 60.4244 128.738 61.24C126.094 59.2827 124.956 55.9609 125.898 52.7967C125.898 52.7886 125.898 52.7804 125.904 52.775C126.272 51.5789 126.47 50.3121 126.47 48.9992C126.47 41.8309 120.575 36 113.327 36C106.079 36 100.183 41.8309 100.183 48.9992C100.183 56.1675 105.496 61.4003 112.233 61.9522C112.247 61.9522 112.26 61.9576 112.277 61.9576C115.633 62.224 118.368 64.4911 119.25 67.6689C115.864 71.548 113.81 76.5905 113.81 82.1034C113.81 85.2403 114.478 88.2224 115.671 90.9299C114.105 93.3329 111.318 94.7138 108.412 94.4909C108.399 94.4909 108.385 94.4909 108.371 94.4909C108.083 94.4692 107.794 94.4556 107.5 94.4556C101.159 94.4556 96 99.5579 96 105.829C96 112.1 101.159 117.203 107.5 117.203C113.459 117.203 118.37 112.698 118.942 106.952C118.942 106.952 118.942 106.949 118.942 106.946C119.228 104.079 121.1 101.608 123.774 100.507C127.325 102.858 131.593 104.231 136.178 104.231C139.35 104.231 142.368 103.57 145.105 102.388C147.549 103.945 148.948 106.715 148.703 109.6C148.703 109.61 148.703 109.624 148.703 109.635C148.684 109.888 148.67 110.14 148.67 110.399C148.67 115.691 153.024 120 158.378 120C163.732 120 168.086 115.694 168.086 110.399C168.086 105.661 164.595 101.714 160.024 100.939C160.016 100.939 160.005 100.933 159.997 100.931C157.108 100.447 154.739 98.4162 153.823 95.6816C156.781 91.9302 158.551 87.2193 158.551 82.1034C158.551 77.9144 157.369 73.9945 155.316 70.6536C157.039 65.8421 162.031 62.9634 167.151 63.9175C167.159 63.9175 167.168 63.9175 167.176 63.9175C167.767 64.0263 168.377 64.0861 169.001 64.0861C174.514 64.0861 179 59.6497 179 54.1967C179 48.7436 174.514 44.3073 169.001 44.3073L168.998 44.3046Z" fill="#85A080"/>
<defs>
<filter id="filter0_d_0_468" x="0" y="0" width="285" height="342" filterUnits="userSpaceOnUse" color-interpolation-filters="sRGB">
<feFlood flood-opacity="0" result="BackgroundImageFix"/>
<feColorMatrix in="SourceAlpha" type="matrix" values="0 0 0 0 0 0 0 0 0 0 0 0 0 0 0 0 0 0 127 0" result="hardAlpha"/>
<feOffset dx="4" dy="11"/>
<feGaussianBlur stdDeviation="8.5"/>
<feComposite in2="hardAlpha" operator="out"/>
<feColorMatrix type="matrix" values="0 0 0 0 0.300245 0 0 0 0 0.580139 0 0 0 0 0.248412 0 0 0 0.2 0"/>
<feBlend mode="normal" in2="BackgroundImageFix" result="effect1_dropShadow_0_468"/>
<feBlend mode="normal" in="SourceGraphic" in2="effect1_dropShadow_0_468" result="shape"/>
</filter>
</defs>
</svg>
