<svg width="83" height="84" viewBox="0 0 83 84" fill="none" xmlns="http://www.w3.org/2000/svg">
<path d="M72.9954 25.6368C72.5172 25.6368 72.0471 25.5906 71.5936 25.5063C71.3875 25.4683 71.1841 25.4221 70.9862 25.365C70.9752 25.3623 70.9642 25.3596 70.9504 25.3569C67.8528 24.4897 65.5908 21.6898 65.4781 18.4631C65.4754 18.3761 65.4726 18.2864 65.4726 18.1994C65.4726 14.0974 68.8479 10.7565 72.9981 10.7565C77.1484 10.7565 80.5236 14.0947 80.5236 18.1994C80.5236 22.3041 77.1484 25.6423 72.9981 25.6423L72.9954 25.6368ZM62.4713 27.1428C63.37 26.0799 64.0957 24.873 64.6069 23.5654C65.1016 24.3157 65.6925 24.998 66.3687 25.5906C64.9862 25.8951 63.6696 26.4224 62.4713 27.1428ZM53.577 60.6303C53.5605 60.6466 53.5413 60.6629 53.5248 60.6765C53.3132 60.8668 53.0988 61.0489 52.8789 61.2283C52.8376 61.2636 52.7937 61.2963 52.7525 61.3316C52.5436 61.5001 52.3292 61.6687 52.1148 61.8291C52.0681 61.8617 52.0241 61.897 51.9773 61.9296C51.7547 62.0927 51.5293 62.2531 51.2985 62.4081C51.2875 62.4162 51.2765 62.4217 51.2655 62.4298C48.0937 64.542 44.2787 65.7788 40.1752 65.7788C29.2031 65.7788 20.2786 56.9523 20.2786 46.1006C20.2786 35.2489 29.2031 26.4224 40.1752 26.4224C51.1473 26.4224 60.0718 35.2489 60.0718 46.1006C60.0718 51.85 57.5651 57.0312 53.577 60.633V60.6303ZM59.0274 65.3792C57.1309 66.0697 55.512 67.3338 54.3823 68.9539C53.7584 67.4969 52.7965 66.1893 51.5596 65.1455C53.173 64.1968 54.6709 63.0469 56.0012 61.7312C56.7158 63.1746 57.7575 64.4197 59.0274 65.3792ZM69.6092 74.3906C69.6092 78.335 66.3632 81.5453 62.375 81.5453C58.3869 81.5453 55.1409 78.335 55.1409 74.3906C55.1409 74.1895 55.1519 73.9883 55.1684 73.7925C55.1767 73.6784 55.1904 73.5669 55.2041 73.4555C55.2041 73.4555 55.2041 73.45 55.2041 73.4473C55.6439 70.1663 58.3677 67.5947 61.6742 67.2712C61.7071 67.2685 61.7429 67.2658 61.7759 67.2631C61.8556 67.2549 61.938 67.2495 62.0177 67.2468C62.1359 67.2413 62.2541 67.2386 62.375 67.2386C62.5619 67.2386 62.7489 67.2467 62.9385 67.2631C62.9577 67.2631 62.9797 67.2658 62.999 67.2685C63.1886 67.2848 63.381 67.3093 63.5707 67.3392C66.9899 67.9046 69.6064 70.8513 69.6064 74.3933L69.6092 74.3906ZM22.2796 65.8685C21.3533 63.4084 19.5888 61.3479 17.3322 60.0268C18.6982 59.4097 19.924 58.5018 20.9162 57.3546C22.1558 59.4233 23.7308 61.2827 25.5723 62.8566C24.2558 63.6177 23.1371 64.6507 22.2796 65.8685ZM11.4971 78.7481C6.51949 78.7481 2.47092 74.744 2.47092 69.821C2.47092 64.8981 6.51949 60.894 11.4971 60.894C11.7389 60.894 11.9753 60.9075 12.2117 60.9239C12.2117 60.9239 12.2144 60.9239 12.2172 60.9239C16.4362 61.2528 19.8279 64.4903 20.4298 68.538C20.4298 68.5434 20.4298 68.5516 20.4298 68.557C20.4491 68.6875 20.4655 68.818 20.4793 68.9512C20.4848 69.0001 20.4875 69.0517 20.4903 69.1007C20.4985 69.1931 20.5067 69.2855 20.5095 69.3779C20.5177 69.5247 20.5205 69.6715 20.5205 69.8183C20.5205 69.9651 20.5177 70.1065 20.5095 70.2478C20.5067 70.3212 20.4985 70.3946 20.493 70.468C20.155 75.0892 16.2493 78.7454 11.4943 78.7454L11.4971 78.7481ZM21.5759 25.3052C23.8407 24.5468 25.8417 23.193 27.3726 21.3962C27.8179 23.2365 28.7798 24.9382 30.1871 26.2974C28.3731 27.1972 26.68 28.3416 25.171 29.6899C24.4014 27.8931 23.1508 26.3844 21.5759 25.3052ZM6.65142 12.9938C6.65142 7.17376 11.4366 2.44108 17.3212 2.44108C23.2058 2.44108 27.991 7.17648 27.991 12.9938C27.991 18.4332 23.8077 22.9239 18.4591 23.4866C18.4261 23.4893 18.3932 23.492 18.3602 23.4975C18.2282 23.5111 18.0936 23.5193 17.9589 23.5274C17.9177 23.5274 17.8736 23.5328 17.8324 23.5355C17.6647 23.5437 17.4944 23.5491 17.324 23.5491C17.181 23.5491 17.0381 23.5437 16.8952 23.5383C16.7605 23.5328 16.6231 23.5247 16.4747 23.5111C16.4747 23.5111 16.4719 23.5111 16.4692 23.5111C10.9831 23.0789 6.65417 18.5283 6.65417 12.9938H6.65142ZM59.2582 29.8748C58.6398 30.606 58.0984 31.4106 57.6503 32.2832C57.3178 31.8728 56.9687 31.4732 56.6059 31.0844C57.5459 30.7773 58.431 30.3695 59.2555 29.8748H59.2582ZM72.9981 8.3046C67.4846 8.3046 62.999 12.7409 62.999 18.194C62.999 18.2973 63.0045 18.4006 63.0072 18.5039C63.0072 18.5174 63.0072 18.531 63.0072 18.5446C63.1914 23.6986 59.5633 28.1486 54.4895 29.1082C50.6086 25.9059 45.6173 23.9759 40.1807 23.9759C37.5723 23.9759 35.0684 24.4244 32.7377 25.24C30.0936 23.2827 28.9557 19.9609 29.8985 16.7967C29.8985 16.7886 29.8985 16.7804 29.904 16.775C30.2723 15.5789 30.4701 14.3121 30.4701 12.9992C30.4701 5.83086 24.5746 0 17.3267 0C10.0789 0 4.18325 5.83086 4.18325 12.9992C4.18325 20.1675 9.49618 25.4003 16.2328 25.9522C16.2466 25.9522 16.2603 25.9576 16.2768 25.9576C19.6327 26.224 22.3675 28.4911 23.2498 31.6689C19.8636 35.548 17.8105 40.5905 17.8105 46.1034C17.8105 49.2403 18.4784 52.2224 19.6712 54.9299C18.1046 57.3329 15.3175 58.7138 12.4123 58.4909C12.3986 58.4909 12.3849 58.4909 12.3711 58.4909C12.0825 58.4692 11.7939 58.4556 11.4998 58.4556C5.15898 58.4556 0 63.5579 0 69.8292C0 76.1004 5.15898 81.2028 11.4998 81.2028C17.4586 81.2028 22.3703 76.6985 22.9419 70.9519C22.9419 70.9519 22.9419 70.9492 22.9419 70.9464C23.2278 68.0786 25.0996 65.6076 27.7739 64.5067C31.325 66.858 35.5934 68.2308 40.1779 68.2308C43.3497 68.2308 46.3676 67.5702 49.1052 66.3877C51.5486 67.9454 52.9476 70.7154 52.703 73.5996C52.703 73.6104 52.703 73.624 52.703 73.6349C52.6838 73.8877 52.67 74.1405 52.67 74.3987C52.67 79.6914 57.0237 84 62.3778 84C67.7319 84 72.0856 79.6941 72.0856 74.3987C72.0856 69.6606 68.595 65.7136 64.0242 64.9389C64.0159 64.9389 64.005 64.9334 63.9967 64.9307C61.108 64.4468 58.7387 62.4162 57.8235 59.6816C60.7809 55.9302 62.551 51.2193 62.551 46.1034C62.551 41.9144 61.3691 37.9945 59.316 34.6536C61.0393 29.8421 66.0306 26.9634 71.1511 27.9175C71.1593 27.9175 71.1676 27.9175 71.1758 27.9175C71.7668 28.0263 72.3769 28.0861 73.0008 28.0861C78.5144 28.0861 83 23.6497 83 18.1967C83 12.7436 78.5144 8.30729 73.0008 8.30729L72.9981 8.3046Z" fill="#85A080"/>
</svg>
