<svg width="285" height="342" viewBox="0 0 285 342" fill="none" xmlns="http://www.w3.org/2000/svg">
<g filter="url(#filter0_d_0_482)">
<rect x="13" y="50" width="251" height="264" rx="20" fill="#DEDEDE"/>
<rect x="66" y="6" width="144" height="144" rx="15" fill="white"/>
<path d="M50.264 223.096C49.5387 223.096 48.8773 222.989 48.28 222.776C47.6827 222.552 47.16 222.243 46.712 221.848C46.264 221.453 45.8853 220.989 45.576 220.456L47.4 219.416C47.592 219.768 47.832 220.077 48.12 220.344C48.408 220.6 48.7333 220.797 49.096 220.936C49.4693 221.075 49.864 221.144 50.28 221.144C50.792 221.144 51.256 221.048 51.672 220.856C52.088 220.653 52.44 220.381 52.728 220.04C53.0267 219.688 53.2507 219.288 53.4 218.84C53.56 218.381 53.64 217.901 53.64 217.4L54.536 218.008H49.304V216.376H54.488L53.624 216.968C53.6027 216.52 53.5173 216.088 53.368 215.672C53.2187 215.256 53 214.888 52.712 214.568C52.424 214.248 52.0773 213.997 51.672 213.816C51.2667 213.624 50.8027 213.528 50.28 213.528C49.8747 213.528 49.4907 213.597 49.128 213.736C48.7653 213.864 48.4453 214.056 48.168 214.312C47.8907 214.568 47.656 214.883 47.464 215.256L45.72 214.056C46.1787 213.331 46.7707 212.739 47.496 212.28C48.232 211.811 49.1653 211.576 50.296 211.576C51.1813 211.576 51.9707 211.736 52.664 212.056C53.3573 212.376 53.944 212.808 54.424 213.352C54.904 213.896 55.2667 214.509 55.512 215.192C55.768 215.875 55.896 216.584 55.896 217.32C55.896 218.088 55.7627 218.819 55.496 219.512C55.24 220.205 54.8613 220.824 54.36 221.368C53.8693 221.901 53.2773 222.323 52.584 222.632C51.8907 222.941 51.1173 223.096 50.264 223.096ZM56.8041 223V214.616H58.9481V217.784H59.6681L61.9401 214.616H64.2761L61.3001 218.664L64.5961 223H62.1481L59.6361 219.672H58.9481V223H56.8041ZM68.8636 223.16C68.181 223.16 67.5676 223.048 67.0236 222.824C66.4796 222.589 66.0156 222.269 65.6316 221.864C65.2583 221.459 64.9703 220.995 64.7676 220.472C64.565 219.949 64.4636 219.4 64.4636 218.824C64.4636 218.237 64.565 217.683 64.7676 217.16C64.9703 216.637 65.2583 216.173 65.6316 215.768C66.0156 215.363 66.4796 215.048 67.0236 214.824C67.5676 214.589 68.181 214.472 68.8636 214.472C69.5463 214.472 70.1543 214.589 70.6876 214.824C71.2316 215.048 71.6956 215.363 72.0796 215.768C72.4636 216.173 72.7516 216.637 72.9436 217.16C73.1463 217.683 73.2476 218.237 73.2476 218.824C73.2476 219.4 73.1463 219.949 72.9436 220.472C72.7516 220.995 72.4636 221.459 72.0796 221.864C71.7063 222.269 71.2476 222.589 70.7036 222.824C70.1596 223.048 69.5463 223.16 68.8636 223.16ZM66.6716 218.824C66.6716 219.315 66.7676 219.752 66.9596 220.136C67.1516 220.509 67.413 220.803 67.7436 221.016C68.0743 221.229 68.4476 221.336 68.8636 221.336C69.269 221.336 69.637 221.229 69.9676 221.016C70.2983 220.792 70.5596 220.493 70.7516 220.12C70.9543 219.736 71.0556 219.299 71.0556 218.808C71.0556 218.328 70.9543 217.896 70.7516 217.512C70.5596 217.128 70.2983 216.829 69.9676 216.616C69.637 216.403 69.269 216.296 68.8636 216.296C68.4476 216.296 68.0743 216.408 67.7436 216.632C67.413 216.845 67.1516 217.144 66.9596 217.528C66.7676 217.901 66.6716 218.333 66.6716 218.824ZM74.1948 223V214.616H76.3388V217.816H79.7308V214.616H81.8748V223H79.7308V219.608H76.3388V223H74.1948ZM87.2074 223.16C86.5247 223.16 85.9114 223.048 85.3674 222.824C84.8234 222.589 84.3594 222.269 83.9754 221.864C83.602 221.459 83.314 220.995 83.1114 220.472C82.9087 219.949 82.8074 219.4 82.8074 218.824C82.8074 218.237 82.9087 217.683 83.1114 217.16C83.314 216.637 83.602 216.173 83.9754 215.768C84.3594 215.363 84.8234 215.048 85.3674 214.824C85.9114 214.589 86.5247 214.472 87.2074 214.472C87.89 214.472 88.498 214.589 89.0314 214.824C89.5754 215.048 90.0394 215.363 90.4234 215.768C90.8074 216.173 91.0954 216.637 91.2874 217.16C91.49 217.683 91.5914 218.237 91.5914 218.824C91.5914 219.4 91.49 219.949 91.2874 220.472C91.0954 220.995 90.8074 221.459 90.4234 221.864C90.05 222.269 89.5914 222.589 89.0474 222.824C88.5034 223.048 87.89 223.16 87.2074 223.16ZM85.0154 218.824C85.0154 219.315 85.1114 219.752 85.3034 220.136C85.4954 220.509 85.7567 220.803 86.0874 221.016C86.418 221.229 86.7914 221.336 87.2074 221.336C87.6127 221.336 87.9807 221.229 88.3114 221.016C88.642 220.792 88.9034 220.493 89.0954 220.12C89.298 219.736 89.3994 219.299 89.3994 218.808C89.3994 218.328 89.298 217.896 89.0954 217.512C88.9034 217.128 88.642 216.829 88.3114 216.616C87.9807 216.403 87.6127 216.296 87.2074 216.296C86.7914 216.296 86.418 216.408 86.0874 216.632C85.7567 216.845 85.4954 217.144 85.3034 217.528C85.1114 217.901 85.0154 218.333 85.0154 218.824ZM92.5385 223V214.616H94.7785L97.4025 219.464L100.043 214.616H102.251V223H100.219V217.576L98.0745 221.512H96.7305L94.5705 217.576V223H92.5385ZM103.726 223V214.632H105.87V220.136L109.63 214.616H111.582V223H109.438V217.624L105.726 223H103.726ZM112.59 223L114.719 219.736C114.217 219.597 113.817 219.325 113.519 218.92C113.231 218.515 113.087 217.981 113.087 217.32C113.087 216.765 113.215 216.285 113.471 215.88C113.727 215.475 114.079 215.16 114.527 214.936C114.975 214.701 115.492 214.584 116.079 214.584H120.062V223H117.919V220.104H116.783L114.943 223H112.59ZM116.335 218.568H117.919V216.232H116.415C116.031 216.232 115.727 216.339 115.503 216.552C115.279 216.765 115.167 217.043 115.167 217.384C115.167 217.725 115.263 218.008 115.455 218.232C115.657 218.456 115.951 218.568 116.335 218.568ZM124.851 223V214.616H129.523C130.099 214.616 130.563 214.712 130.915 214.904C131.278 215.096 131.544 215.347 131.715 215.656C131.886 215.965 131.971 216.296 131.971 216.648C131.971 217.117 131.864 217.528 131.651 217.88C131.448 218.232 131.128 218.504 130.691 218.696C131.182 218.835 131.582 219.075 131.891 219.416C132.2 219.747 132.355 220.184 132.355 220.728C132.355 221.251 132.232 221.683 131.987 222.024C131.742 222.355 131.39 222.6 130.931 222.76C130.472 222.92 129.928 223 129.299 223H124.851ZM126.883 221.544H129.235C129.427 221.544 129.603 221.496 129.763 221.4C129.923 221.304 130.046 221.176 130.131 221.016C130.227 220.856 130.275 220.68 130.275 220.488C130.275 220.285 130.232 220.109 130.147 219.96C130.062 219.8 129.939 219.677 129.779 219.592C129.63 219.496 129.454 219.448 129.251 219.448H126.883V221.544ZM126.883 218.104H128.979C129.171 218.104 129.342 218.056 129.491 217.96C129.64 217.864 129.752 217.736 129.827 217.576C129.912 217.416 129.955 217.24 129.955 217.048C129.955 216.771 129.864 216.541 129.683 216.36C129.512 216.168 129.283 216.072 128.995 216.072H126.883V218.104ZM138.438 223.16C137.787 223.16 137.211 223.016 136.71 222.728C136.219 222.429 135.835 222.029 135.558 221.528V226.408H133.414V214.616H135.286V216.056C135.606 215.565 136.011 215.181 136.502 214.904C136.992 214.616 137.552 214.472 138.182 214.472C138.747 214.472 139.264 214.584 139.734 214.808C140.214 215.032 140.63 215.347 140.982 215.752C141.334 216.147 141.606 216.605 141.798 217.128C142 217.64 142.102 218.195 142.102 218.792C142.102 219.603 141.942 220.339 141.622 221C141.312 221.661 140.88 222.189 140.326 222.584C139.782 222.968 139.152 223.16 138.438 223.16ZM137.718 221.336C138.048 221.336 138.347 221.267 138.614 221.128C138.88 220.989 139.11 220.803 139.302 220.568C139.504 220.323 139.654 220.051 139.75 219.752C139.856 219.443 139.91 219.123 139.91 218.792C139.91 218.44 139.851 218.115 139.734 217.816C139.627 217.517 139.467 217.256 139.254 217.032C139.04 216.797 138.79 216.616 138.502 216.488C138.224 216.36 137.92 216.296 137.59 216.296C137.387 216.296 137.179 216.333 136.966 216.408C136.763 216.472 136.566 216.568 136.374 216.696C136.182 216.824 136.011 216.973 135.862 217.144C135.723 217.315 135.622 217.501 135.558 217.704V219.672C135.686 219.981 135.856 220.264 136.07 220.52C136.294 220.776 136.55 220.979 136.838 221.128C137.126 221.267 137.419 221.336 137.718 221.336ZM146.942 223.16C146.27 223.16 145.662 223.048 145.118 222.824C144.574 222.589 144.11 222.275 143.726 221.88C143.342 221.475 143.043 221.016 142.83 220.504C142.627 219.981 142.526 219.432 142.526 218.856C142.526 218.056 142.702 217.325 143.054 216.664C143.417 216.003 143.929 215.475 144.59 215.08C145.262 214.675 146.051 214.472 146.958 214.472C147.875 214.472 148.659 214.675 149.31 215.08C149.961 215.475 150.457 216.003 150.798 216.664C151.15 217.315 151.326 218.019 151.326 218.776C151.326 218.904 151.321 219.037 151.31 219.176C151.299 219.304 151.289 219.411 151.278 219.496H144.798C144.841 219.923 144.963 220.296 145.166 220.616C145.379 220.936 145.646 221.181 145.966 221.352C146.297 221.512 146.649 221.592 147.022 221.592C147.449 221.592 147.849 221.491 148.222 221.288C148.606 221.075 148.867 220.797 149.006 220.456L150.846 220.968C150.643 221.395 150.35 221.773 149.966 222.104C149.593 222.435 149.15 222.696 148.638 222.888C148.126 223.069 147.561 223.16 146.942 223.16ZM144.75 218.136H149.134C149.091 217.709 148.969 217.341 148.766 217.032C148.574 216.712 148.318 216.467 147.998 216.296C147.678 216.115 147.321 216.024 146.926 216.024C146.542 216.024 146.19 216.115 145.87 216.296C145.561 216.467 145.305 216.712 145.102 217.032C144.91 217.341 144.793 217.709 144.75 218.136ZM152.132 223V214.616H154.372L156.996 219.464L159.636 214.616H161.844V223H159.812V217.576L157.668 221.512H156.324L154.164 217.576V223H152.132ZM167.208 223.16C166.536 223.16 165.928 223.048 165.384 222.824C164.84 222.589 164.376 222.275 163.992 221.88C163.608 221.475 163.309 221.016 163.096 220.504C162.893 219.981 162.792 219.432 162.792 218.856C162.792 218.056 162.968 217.325 163.32 216.664C163.682 216.003 164.194 215.475 164.856 215.08C165.528 214.675 166.317 214.472 167.224 214.472C168.141 214.472 168.925 214.675 169.576 215.08C170.226 215.475 170.722 216.003 171.064 216.664C171.416 217.315 171.592 218.019 171.592 218.776C171.592 218.904 171.586 219.037 171.576 219.176C171.565 219.304 171.554 219.411 171.544 219.496H165.064C165.106 219.923 165.229 220.296 165.432 220.616C165.645 220.936 165.912 221.181 166.232 221.352C166.562 221.512 166.914 221.592 167.288 221.592C167.714 221.592 168.114 221.491 168.488 221.288C168.872 221.075 169.133 220.797 169.272 220.456L171.112 220.968C170.909 221.395 170.616 221.773 170.232 222.104C169.858 222.435 169.416 222.696 168.904 222.888C168.392 223.069 167.826 223.16 167.208 223.16ZM165.016 218.136H169.4C169.357 217.709 169.234 217.341 169.032 217.032C168.84 216.712 168.584 216.467 168.264 216.296C167.944 216.115 167.586 216.024 167.192 216.024C166.808 216.024 166.456 216.115 166.136 216.296C165.826 216.467 165.57 216.712 165.368 217.032C165.176 217.341 165.058 217.709 165.016 218.136ZM172.398 223V214.616H174.542V217.816H177.934V214.616H180.078V223H177.934V219.608H174.542V223H172.398ZM181.539 223V214.632H183.683V220.136L187.443 214.616H189.395V223H187.251V217.624L183.539 223H181.539ZM62.4886 242.16C61.806 242.16 61.1926 242.048 60.6486 241.824C60.1046 241.589 59.6406 241.269 59.2566 240.864C58.8833 240.459 58.5953 239.995 58.3926 239.472C58.19 238.949 58.0886 238.4 58.0886 237.824C58.0886 237.237 58.19 236.683 58.3926 236.16C58.5953 235.637 58.8833 235.173 59.2566 234.768C59.6406 234.363 60.1046 234.048 60.6486 233.824C61.1926 233.589 61.806 233.472 62.4886 233.472C63.1713 233.472 63.7793 233.589 64.3126 233.824C64.8566 234.048 65.3206 234.363 65.7046 234.768C66.0886 235.173 66.3766 235.637 66.5686 236.16C66.7713 236.683 66.8726 237.237 66.8726 237.824C66.8726 238.4 66.7713 238.949 66.5686 239.472C66.3766 239.995 66.0886 240.459 65.7046 240.864C65.3313 241.269 64.8726 241.589 64.3286 241.824C63.7846 242.048 63.1713 242.16 62.4886 242.16ZM60.2966 237.824C60.2966 238.315 60.3926 238.752 60.5846 239.136C60.7766 239.509 61.038 239.803 61.3686 240.016C61.6993 240.229 62.0726 240.336 62.4886 240.336C62.894 240.336 63.262 240.229 63.5926 240.016C63.9233 239.792 64.1846 239.493 64.3766 239.12C64.5793 238.736 64.6806 238.299 64.6806 237.808C64.6806 237.328 64.5793 236.896 64.3766 236.512C64.1846 236.128 63.9233 235.829 63.5926 235.616C63.262 235.403 62.894 235.296 62.4886 235.296C62.0726 235.296 61.6993 235.408 61.3686 235.632C61.038 235.845 60.7766 236.144 60.5846 236.528C60.3926 236.901 60.2966 237.333 60.2966 237.824ZM67.8198 242V233.616H75.3398V242H73.1958V235.488H69.9638V242H67.8198ZM78.7245 242V235.488H76.0685V233.616H83.5405V235.488H80.8685V242H78.7245ZM84.2416 242V233.632H86.3856V239.136L90.1456 233.616H92.0976V242H89.9536V236.624L86.2416 242H84.2416ZM93.5541 242V233.616H95.7941L98.4181 238.464L101.058 233.616H103.266V242H101.234V236.576L99.0901 240.512H97.7461L95.5861 236.576V242H93.5541ZM104.742 242V233.632H106.886V239.136L110.646 233.616H112.598V242H110.454V236.624L106.742 242H104.742ZM117.046 242.128C116.15 242.128 115.403 241.968 114.806 241.648C114.209 241.328 113.739 240.885 113.398 240.32L115.126 239.536C115.307 239.813 115.542 240.032 115.83 240.192C116.129 240.341 116.497 240.416 116.934 240.416C117.435 240.416 117.819 240.32 118.086 240.128C118.363 239.925 118.502 239.664 118.502 239.344C118.502 239.045 118.39 238.805 118.166 238.624C117.942 238.443 117.611 238.352 117.174 238.352H116.31V237.024H117.19C117.393 237.024 117.563 236.987 117.702 236.912C117.851 236.827 117.963 236.715 118.038 236.576C118.123 236.437 118.166 236.277 118.166 236.096C118.166 235.829 118.059 235.611 117.846 235.44C117.643 235.269 117.318 235.184 116.87 235.184C116.497 235.184 116.187 235.253 115.942 235.392C115.707 235.531 115.51 235.739 115.35 236.016L113.734 235.152C114.033 234.629 114.459 234.219 115.014 233.92C115.579 233.621 116.235 233.472 116.982 233.472C117.569 233.472 118.091 233.563 118.55 233.744C119.019 233.925 119.387 234.187 119.654 234.528C119.921 234.869 120.054 235.296 120.054 235.808C120.054 236.171 119.963 236.523 119.782 236.864C119.611 237.205 119.329 237.456 118.934 237.616C119.446 237.765 119.83 238.021 120.086 238.384C120.353 238.747 120.486 239.173 120.486 239.664C120.486 240.197 120.337 240.651 120.038 241.024C119.739 241.387 119.334 241.664 118.822 241.856C118.31 242.037 117.718 242.128 117.046 242.128ZM120.916 239.52C120.916 238.976 121.065 238.501 121.364 238.096C121.673 237.68 122.1 237.36 122.644 237.136C123.188 236.912 123.812 236.8 124.516 236.8C124.868 236.8 125.225 236.827 125.588 236.88C125.95 236.933 126.265 237.019 126.532 237.136V236.688C126.532 236.155 126.372 235.744 126.052 235.456C125.742 235.168 125.278 235.024 124.66 235.024C124.201 235.024 123.764 235.104 123.348 235.264C122.932 235.424 122.494 235.659 122.036 235.968L121.348 234.56C121.902 234.197 122.468 233.925 123.044 233.744C123.63 233.563 124.244 233.472 124.884 233.472C126.078 233.472 127.006 233.771 127.668 234.368C128.34 234.965 128.676 235.819 128.676 236.928V239.6C128.676 239.824 128.713 239.984 128.788 240.08C128.873 240.176 129.006 240.235 129.188 240.256V242C128.996 242.032 128.82 242.059 128.66 242.08C128.51 242.101 128.382 242.112 128.276 242.112C127.849 242.112 127.524 242.016 127.3 241.824C127.086 241.632 126.953 241.397 126.9 241.12L126.852 240.688C126.489 241.157 126.036 241.52 125.492 241.776C124.948 242.032 124.393 242.16 123.828 242.16C123.273 242.16 122.772 242.048 122.324 241.824C121.886 241.589 121.54 241.275 121.284 240.88C121.038 240.475 120.916 240.021 120.916 239.52ZM126.132 239.952C126.249 239.824 126.345 239.696 126.42 239.568C126.494 239.44 126.532 239.323 126.532 239.216V238.368C126.276 238.261 125.998 238.181 125.7 238.128C125.401 238.064 125.118 238.032 124.852 238.032C124.297 238.032 123.838 238.155 123.476 238.4C123.124 238.635 122.948 238.949 122.948 239.344C122.948 239.557 123.006 239.76 123.124 239.952C123.241 240.144 123.412 240.299 123.636 240.416C123.86 240.533 124.126 240.592 124.436 240.592C124.756 240.592 125.07 240.533 125.38 240.416C125.689 240.288 125.94 240.133 126.132 239.952ZM136.707 244.032V242H130.179V233.616H132.323V240.128H135.267V233.616H137.411V240.128H138.595V244.032H136.707ZM139.492 242V233.632H141.636V239.136L145.396 233.616H147.348V242H145.204V236.624L141.492 242H139.492ZM148.356 242L150.484 238.736C149.983 238.597 149.583 238.325 149.284 237.92C148.996 237.515 148.852 236.981 148.852 236.32C148.852 235.765 148.98 235.285 149.236 234.88C149.492 234.475 149.844 234.16 150.292 233.936C150.74 233.701 151.257 233.584 151.844 233.584H155.828V242H153.684V239.104H152.548L150.708 242H148.356ZM152.1 237.568H153.684V235.232H152.18C151.796 235.232 151.492 235.339 151.268 235.552C151.044 235.765 150.932 236.043 150.932 236.384C150.932 236.725 151.028 237.008 151.22 237.232C151.423 237.456 151.716 237.568 152.1 237.568ZM160.82 242V233.616H168.34V242H166.196V235.488H162.964V242H160.82ZM174.813 242.16C174.162 242.16 173.586 242.016 173.085 241.728C172.594 241.429 172.21 241.029 171.933 240.528V245.408H169.789V233.616H171.661V235.056C171.981 234.565 172.386 234.181 172.877 233.904C173.367 233.616 173.927 233.472 174.557 233.472C175.122 233.472 175.639 233.584 176.109 233.808C176.589 234.032 177.005 234.347 177.357 234.752C177.709 235.147 177.981 235.605 178.173 236.128C178.375 236.64 178.477 237.195 178.477 237.792C178.477 238.603 178.317 239.339 177.997 240C177.687 240.661 177.255 241.189 176.701 241.584C176.157 241.968 175.527 242.16 174.813 242.16ZM174.093 240.336C174.423 240.336 174.722 240.267 174.989 240.128C175.255 239.989 175.485 239.803 175.677 239.568C175.879 239.323 176.029 239.051 176.125 238.752C176.231 238.443 176.285 238.123 176.285 237.792C176.285 237.44 176.226 237.115 176.109 236.816C176.002 236.517 175.842 236.256 175.629 236.032C175.415 235.797 175.165 235.616 174.877 235.488C174.599 235.36 174.295 235.296 173.965 235.296C173.762 235.296 173.554 235.333 173.341 235.408C173.138 235.472 172.941 235.568 172.749 235.696C172.557 235.824 172.386 235.973 172.237 236.144C172.098 236.315 171.997 236.501 171.933 236.704V238.672C172.061 238.981 172.231 239.264 172.445 239.52C172.669 239.776 172.925 239.979 173.213 240.128C173.501 240.267 173.794 240.336 174.093 240.336ZM183.301 242.16C182.618 242.16 182.005 242.048 181.461 241.824C180.917 241.589 180.453 241.269 180.069 240.864C179.696 240.459 179.408 239.995 179.205 239.472C179.002 238.949 178.901 238.4 178.901 237.824C178.901 237.237 179.002 236.683 179.205 236.16C179.408 235.637 179.696 235.173 180.069 234.768C180.453 234.363 180.917 234.048 181.461 233.824C182.005 233.589 182.618 233.472 183.301 233.472C183.984 233.472 184.592 233.589 185.125 233.824C185.669 234.048 186.133 234.363 186.517 234.768C186.901 235.173 187.189 235.637 187.381 236.16C187.584 236.683 187.685 237.237 187.685 237.824C187.685 238.4 187.584 238.949 187.381 239.472C187.189 239.995 186.901 240.459 186.517 240.864C186.144 241.269 185.685 241.589 185.141 241.824C184.597 242.048 183.984 242.16 183.301 242.16ZM181.109 237.824C181.109 238.315 181.205 238.752 181.397 239.136C181.589 239.509 181.85 239.803 182.181 240.016C182.512 240.229 182.885 240.336 183.301 240.336C183.706 240.336 184.074 240.229 184.405 240.016C184.736 239.792 184.997 239.493 185.189 239.12C185.392 238.736 185.493 238.299 185.493 237.808C185.493 237.328 185.392 236.896 185.189 236.512C184.997 236.128 184.736 235.829 184.405 235.616C184.074 235.403 183.706 235.296 183.301 235.296C182.885 235.296 182.512 235.408 182.181 235.632C181.85 235.845 181.589 236.144 181.397 236.528C181.205 236.901 181.109 237.333 181.109 237.824ZM195.16 244.032V242H188.632V233.616H190.776V240.128H193.72V233.616H195.864V240.128H197.048V244.032H195.16ZM201.833 242.16C201.161 242.16 200.553 242.048 200.009 241.824C199.465 241.589 199.001 241.275 198.617 240.88C198.233 240.475 197.934 240.016 197.721 239.504C197.518 238.981 197.417 238.432 197.417 237.856C197.417 237.056 197.593 236.325 197.945 235.664C198.307 235.003 198.819 234.475 199.481 234.08C200.153 233.675 200.942 233.472 201.849 233.472C202.766 233.472 203.55 233.675 204.201 234.08C204.851 234.475 205.347 235.003 205.689 235.664C206.041 236.315 206.217 237.019 206.217 237.776C206.217 237.904 206.211 238.037 206.201 238.176C206.19 238.304 206.179 238.411 206.169 238.496H199.689C199.731 238.923 199.854 239.296 200.057 239.616C200.27 239.936 200.537 240.181 200.857 240.352C201.187 240.512 201.539 240.592 201.913 240.592C202.339 240.592 202.739 240.491 203.113 240.288C203.497 240.075 203.758 239.797 203.897 239.456L205.737 239.968C205.534 240.395 205.241 240.773 204.857 241.104C204.483 241.435 204.041 241.696 203.529 241.888C203.017 242.069 202.451 242.16 201.833 242.16ZM199.641 237.136H204.025C203.982 236.709 203.859 236.341 203.657 236.032C203.465 235.712 203.209 235.467 202.889 235.296C202.569 235.115 202.211 235.024 201.817 235.024C201.433 235.024 201.081 235.115 200.761 235.296C200.451 235.467 200.195 235.712 199.993 236.032C199.801 236.341 199.683 236.709 199.641 237.136ZM210.927 242.16C210.244 242.16 209.631 242.048 209.087 241.824C208.543 241.589 208.079 241.269 207.695 240.864C207.311 240.448 207.012 239.979 206.799 239.456C206.596 238.933 206.495 238.384 206.495 237.808C206.495 237.019 206.671 236.299 207.023 235.648C207.386 234.987 207.898 234.459 208.559 234.064C209.22 233.669 210.004 233.472 210.911 233.472C211.818 233.472 212.596 233.669 213.247 234.064C213.898 234.459 214.383 234.976 214.703 235.616L212.607 236.256C212.426 235.947 212.186 235.712 211.887 235.552C211.588 235.381 211.258 235.296 210.895 235.296C210.49 235.296 210.116 235.403 209.775 235.616C209.444 235.819 209.183 236.112 208.991 236.496C208.799 236.869 208.703 237.307 208.703 237.808C208.703 238.299 208.799 238.736 208.991 239.12C209.194 239.493 209.46 239.792 209.791 240.016C210.122 240.229 210.49 240.336 210.895 240.336C211.151 240.336 211.391 240.293 211.615 240.208C211.85 240.123 212.058 240.005 212.239 239.856C212.42 239.707 212.554 239.536 212.639 239.344L214.735 239.984C214.543 240.4 214.26 240.773 213.887 241.104C213.524 241.435 213.092 241.696 212.591 241.888C212.1 242.069 211.546 242.16 210.927 242.16ZM219.38 242.16C218.697 242.16 218.084 242.048 217.54 241.824C216.996 241.589 216.532 241.269 216.148 240.864C215.764 240.448 215.465 239.979 215.252 239.456C215.049 238.933 214.948 238.384 214.948 237.808C214.948 237.019 215.124 236.299 215.476 235.648C215.839 234.987 216.351 234.459 217.012 234.064C217.673 233.669 218.457 233.472 219.364 233.472C220.271 233.472 221.049 233.669 221.7 234.064C222.351 234.459 222.836 234.976 223.156 235.616L221.06 236.256C220.879 235.947 220.639 235.712 220.34 235.552C220.041 235.381 219.711 235.296 219.348 235.296C218.943 235.296 218.569 235.403 218.228 235.616C217.897 235.819 217.636 236.112 217.444 236.496C217.252 236.869 217.156 237.307 217.156 237.808C217.156 238.299 217.252 238.736 217.444 239.12C217.647 239.493 217.913 239.792 218.244 240.016C218.575 240.229 218.943 240.336 219.348 240.336C219.604 240.336 219.844 240.293 220.068 240.208C220.303 240.123 220.511 240.005 220.692 239.856C220.873 239.707 221.007 239.536 221.092 239.344L223.188 239.984C222.996 240.4 222.713 240.773 222.34 241.104C221.977 241.435 221.545 241.696 221.044 241.888C220.553 242.069 219.999 242.16 219.38 242.16ZM223.431 239.52C223.431 238.976 223.581 238.501 223.879 238.096C224.189 237.68 224.615 237.36 225.159 237.136C225.703 236.912 226.327 236.8 227.031 236.8C227.383 236.8 227.741 236.827 228.103 236.88C228.466 236.933 228.781 237.019 229.047 237.136V236.688C229.047 236.155 228.887 235.744 228.567 235.456C228.258 235.168 227.794 235.024 227.175 235.024C226.717 235.024 226.279 235.104 225.863 235.264C225.447 235.424 225.01 235.659 224.551 235.968L223.863 234.56C224.418 234.197 224.983 233.925 225.559 233.744C226.146 233.563 226.759 233.472 227.399 233.472C228.594 233.472 229.522 233.771 230.183 234.368C230.855 234.965 231.191 235.819 231.191 236.928V239.6C231.191 239.824 231.229 239.984 231.303 240.08C231.389 240.176 231.522 240.235 231.703 240.256V242C231.511 242.032 231.335 242.059 231.175 242.08C231.026 242.101 230.898 242.112 230.791 242.112C230.365 242.112 230.039 242.016 229.815 241.824C229.602 241.632 229.469 241.397 229.415 241.12L229.367 240.688C229.005 241.157 228.551 241.52 228.007 241.776C227.463 242.032 226.909 242.16 226.343 242.16C225.789 242.16 225.287 242.048 224.839 241.824C224.402 241.589 224.055 241.275 223.799 240.88C223.554 240.475 223.431 240.021 223.431 239.52ZM228.647 239.952C228.765 239.824 228.861 239.696 228.935 239.568C229.01 239.44 229.047 239.323 229.047 239.216V238.368C228.791 238.261 228.514 238.181 228.215 238.128C227.917 238.064 227.634 238.032 227.367 238.032C226.813 238.032 226.354 238.155 225.991 238.4C225.639 238.635 225.463 238.949 225.463 239.344C225.463 239.557 225.522 239.76 225.639 239.952C225.757 240.144 225.927 240.299 226.151 240.416C226.375 240.533 226.642 240.592 226.951 240.592C227.271 240.592 227.586 240.533 227.895 240.416C228.205 240.288 228.455 240.133 228.647 239.952Z" fill="#85A080"/>
<path d="M46.12 242V233.664H47.528V240.112L52.2 233.648H53.48V242H52.072V235.68L47.464 242H46.12ZM45.4 261.064V259.8C45.6773 259.8 45.9227 259.731 46.136 259.592C46.36 259.443 46.5573 259.197 46.728 258.856C46.8987 258.504 47.032 258.024 47.128 257.416C47.2347 256.797 47.304 256.013 47.336 255.064L47.432 252.648H53.112V261H51.704V253.896H48.68L48.648 255.192C48.6053 256.333 48.5093 257.283 48.36 258.04C48.2107 258.797 48.0027 259.395 47.736 259.832C47.4693 260.269 47.1387 260.584 46.744 260.776C46.36 260.968 45.912 261.064 45.4 261.064ZM58.582 261.16C57.9527 261.16 57.3767 261.048 56.854 260.824C56.342 260.589 55.894 260.275 55.51 259.88C55.1367 259.475 54.8433 259.011 54.63 258.488C54.4273 257.965 54.326 257.411 54.326 256.824C54.326 256.035 54.5073 255.315 54.87 254.664C55.2327 254.013 55.734 253.491 56.374 253.096C57.0247 252.701 57.766 252.504 58.598 252.504C59.4407 252.504 60.1713 252.707 60.79 253.112C61.4193 253.507 61.9047 254.029 62.246 254.68C62.598 255.32 62.774 256.013 62.774 256.76C62.774 256.867 62.7687 256.973 62.758 257.08C62.758 257.176 62.7527 257.251 62.742 257.304H55.814C55.8567 257.848 56.006 258.333 56.262 258.76C56.5287 259.176 56.87 259.507 57.286 259.752C57.702 259.987 58.15 260.104 58.63 260.104C59.142 260.104 59.622 259.976 60.07 259.72C60.5287 259.464 60.8433 259.128 61.014 258.712L62.23 259.048C62.0487 259.453 61.7767 259.816 61.414 260.136C61.062 260.456 60.6407 260.707 60.15 260.888C59.67 261.069 59.1473 261.16 58.582 261.16ZM55.766 256.328H61.462C61.4193 255.784 61.2647 255.304 60.998 254.888C60.7313 254.472 60.39 254.147 59.974 253.912C59.558 253.677 59.0993 253.56 58.598 253.56C58.1073 253.56 57.654 253.677 57.238 253.912C56.822 254.147 56.4807 254.472 56.214 254.888C55.958 255.304 55.8087 255.784 55.766 256.328ZM68.5751 261V257.656C68.2445 257.816 67.8978 257.933 67.5351 258.008C67.1831 258.083 66.7938 258.12 66.3671 258.12C65.4605 258.12 64.7671 257.885 64.2871 257.416C63.8178 256.936 63.5831 256.221 63.5831 255.272V252.648H64.9911V255.08C64.9911 255.752 65.1298 256.243 65.4071 256.552C65.6845 256.861 66.1271 257.016 66.7351 257.016C67.0765 257.016 67.4125 256.979 67.7431 256.904C68.0845 256.829 68.3618 256.728 68.5751 256.6V252.648H69.9991V261H68.5751ZM75.4726 261.16C74.8433 261.16 74.2673 261.048 73.7446 260.824C73.2326 260.589 72.7846 260.275 72.4006 259.88C72.0273 259.475 71.734 259.011 71.5206 258.488C71.318 257.965 71.2166 257.411 71.2166 256.824C71.2166 256.035 71.398 255.315 71.7606 254.664C72.1233 254.013 72.6246 253.491 73.2646 253.096C73.9153 252.701 74.6566 252.504 75.4886 252.504C76.3313 252.504 77.062 252.707 77.6806 253.112C78.31 253.507 78.7953 254.029 79.1366 254.68C79.4886 255.32 79.6646 256.013 79.6646 256.76C79.6646 256.867 79.6593 256.973 79.6486 257.08C79.6486 257.176 79.6433 257.251 79.6326 257.304H72.7046C72.7473 257.848 72.8966 258.333 73.1526 258.76C73.4193 259.176 73.7606 259.507 74.1766 259.752C74.5926 259.987 75.0406 260.104 75.5206 260.104C76.0326 260.104 76.5126 259.976 76.9606 259.72C77.4193 259.464 77.734 259.128 77.9046 258.712L79.1206 259.048C78.9393 259.453 78.6673 259.816 78.3046 260.136C77.9526 260.456 77.5313 260.707 77.0406 260.888C76.5606 261.069 76.038 261.16 75.4726 261.16ZM72.6566 256.328H78.3526C78.31 255.784 78.1553 255.304 77.8886 254.888C77.622 254.472 77.2806 254.147 76.8646 253.912C76.4486 253.677 75.99 253.56 75.4886 253.56C74.998 253.56 74.5446 253.677 74.1286 253.912C73.7126 254.147 73.3713 254.472 73.1046 254.888C72.8486 255.304 72.6993 255.784 72.6566 256.328ZM80.7138 261V252.648H82.1218V256.104H86.4738V252.648H87.8818V261H86.4738V257.352H82.1218V261H80.7138ZM89.6356 261V252.664H91.0436V259.112L95.7156 252.648H96.9956V261H95.5876V254.68L90.9796 261H89.6356ZM98.1214 261L100.489 257.64C99.9454 257.533 99.508 257.277 99.1774 256.872C98.8467 256.456 98.6814 255.901 98.6814 255.208C98.6814 254.707 98.7987 254.264 99.0334 253.88C99.268 253.496 99.5934 253.192 100.009 252.968C100.436 252.744 100.932 252.632 101.497 252.632H104.921V261H103.513V257.864H101.881L99.6734 261H98.1214ZM101.593 256.824H103.513V253.736H101.753C101.252 253.736 100.852 253.88 100.553 254.168C100.255 254.445 100.105 254.803 100.105 255.24C100.105 255.677 100.228 256.051 100.473 256.36C100.729 256.669 101.103 256.824 101.593 256.824ZM112.853 261.112C112.043 261.112 111.355 260.963 110.789 260.664C110.235 260.355 109.808 259.928 109.509 259.384L110.661 258.872C110.853 259.213 111.125 259.48 111.477 259.672C111.84 259.864 112.277 259.96 112.789 259.96C113.397 259.96 113.877 259.827 114.229 259.56C114.581 259.293 114.757 258.936 114.757 258.488C114.757 258.083 114.613 257.757 114.325 257.512C114.048 257.256 113.653 257.123 113.141 257.112H112.293V256.184H113.189C113.413 256.184 113.611 256.131 113.781 256.024C113.963 255.907 114.101 255.752 114.197 255.56C114.304 255.368 114.357 255.155 114.357 254.92C114.357 254.547 114.224 254.248 113.957 254.024C113.691 253.789 113.291 253.672 112.757 253.672C112.32 253.672 111.952 253.757 111.653 253.928C111.365 254.099 111.131 254.355 110.949 254.696L109.877 254.12C110.144 253.619 110.528 253.229 111.029 252.952C111.541 252.664 112.139 252.52 112.821 252.52C113.365 252.52 113.845 252.611 114.261 252.792C114.688 252.963 115.019 253.213 115.253 253.544C115.499 253.875 115.621 254.275 115.621 254.744C115.621 255.139 115.525 255.507 115.333 255.848C115.152 256.179 114.88 256.429 114.517 256.6C115.019 256.749 115.403 257.011 115.669 257.384C115.936 257.747 116.069 258.179 116.069 258.68C116.069 259.192 115.931 259.629 115.653 259.992C115.376 260.355 114.997 260.632 114.517 260.824C114.037 261.016 113.483 261.112 112.853 261.112ZM116.605 258.584C116.605 258.051 116.754 257.592 117.053 257.208C117.362 256.813 117.784 256.509 118.317 256.296C118.85 256.083 119.469 255.976 120.173 255.976C120.546 255.976 120.941 256.008 121.357 256.072C121.773 256.125 122.141 256.211 122.461 256.328V255.72C122.461 255.08 122.269 254.579 121.885 254.216C121.501 253.843 120.957 253.656 120.253 253.656C119.794 253.656 119.352 253.741 118.925 253.912C118.509 254.072 118.066 254.307 117.597 254.616L117.085 253.624C117.629 253.251 118.173 252.973 118.717 252.792C119.261 252.6 119.826 252.504 120.413 252.504C121.48 252.504 122.322 252.803 122.941 253.4C123.56 253.987 123.869 254.808 123.869 255.864V259.4C123.869 259.571 123.901 259.699 123.965 259.784C124.04 259.859 124.157 259.901 124.317 259.912V261C124.178 261.021 124.056 261.037 123.949 261.048C123.853 261.059 123.773 261.064 123.709 261.064C123.378 261.064 123.128 260.973 122.957 260.792C122.797 260.611 122.706 260.419 122.685 260.216L122.653 259.688C122.29 260.157 121.816 260.52 121.229 260.776C120.642 261.032 120.061 261.16 119.485 261.16C118.93 261.16 118.434 261.048 117.997 260.824C117.56 260.589 117.218 260.28 116.973 259.896C116.728 259.501 116.605 259.064 116.605 258.584ZM122.045 259.176C122.173 259.027 122.274 258.877 122.349 258.728C122.424 258.568 122.461 258.435 122.461 258.328V257.288C122.13 257.16 121.784 257.064 121.421 257C121.058 256.925 120.701 256.888 120.349 256.888C119.634 256.888 119.053 257.032 118.605 257.32C118.168 257.597 117.949 257.981 117.949 258.472C117.949 258.739 118.018 259 118.157 259.256C118.306 259.501 118.52 259.704 118.797 259.864C119.085 260.024 119.437 260.104 119.853 260.104C120.29 260.104 120.706 260.019 121.101 259.848C121.496 259.667 121.81 259.443 122.045 259.176ZM132.863 261.16C132.234 261.16 131.658 261.048 131.135 260.824C130.623 260.589 130.175 260.269 129.791 259.864C129.418 259.459 129.125 258.995 128.911 258.472C128.709 257.949 128.607 257.395 128.607 256.808C128.607 256.019 128.783 255.299 129.135 254.648C129.487 253.997 129.983 253.48 130.623 253.096C131.263 252.701 132.005 252.504 132.847 252.504C133.669 252.504 134.383 252.691 134.991 253.064C135.61 253.427 136.069 253.917 136.367 254.536L134.991 254.968C134.778 254.573 134.479 254.269 134.095 254.056C133.711 253.832 133.285 253.72 132.815 253.72C132.303 253.72 131.834 253.853 131.407 254.12C130.991 254.387 130.661 254.755 130.415 255.224C130.17 255.683 130.047 256.211 130.047 256.808C130.047 257.395 130.17 257.928 130.415 258.408C130.671 258.877 131.007 259.251 131.423 259.528C131.85 259.805 132.319 259.944 132.831 259.944C133.162 259.944 133.477 259.885 133.775 259.768C134.085 259.651 134.351 259.496 134.575 259.304C134.81 259.101 134.97 258.883 135.055 258.648L136.431 259.064C136.261 259.469 135.999 259.832 135.647 260.152C135.306 260.461 134.895 260.707 134.415 260.888C133.946 261.069 133.429 261.16 132.863 261.16ZM142.263 261V257.656C141.932 257.816 141.585 257.933 141.223 258.008C140.871 258.083 140.481 258.12 140.055 258.12C139.148 258.12 138.455 257.885 137.975 257.416C137.505 256.936 137.271 256.221 137.271 255.272V252.648H138.679V255.08C138.679 255.752 138.817 256.243 139.095 256.552C139.372 256.861 139.815 257.016 140.423 257.016C140.764 257.016 141.1 256.979 141.431 256.904C141.772 256.829 142.049 256.728 142.263 256.6V252.648H143.687V261H142.263ZM149.16 261.16C148.531 261.16 147.955 261.048 147.432 260.824C146.92 260.589 146.472 260.275 146.088 259.88C145.715 259.475 145.421 259.011 145.208 258.488C145.005 257.965 144.904 257.411 144.904 256.824C144.904 256.035 145.085 255.315 145.448 254.664C145.811 254.013 146.312 253.491 146.952 253.096C147.603 252.701 148.344 252.504 149.176 252.504C150.019 252.504 150.749 252.707 151.368 253.112C151.997 253.507 152.483 254.029 152.824 254.68C153.176 255.32 153.352 256.013 153.352 256.76C153.352 256.867 153.347 256.973 153.336 257.08C153.336 257.176 153.331 257.251 153.32 257.304H146.392C146.435 257.848 146.584 258.333 146.84 258.76C147.107 259.176 147.448 259.507 147.864 259.752C148.28 259.987 148.728 260.104 149.208 260.104C149.72 260.104 150.2 259.976 150.648 259.72C151.107 259.464 151.421 259.128 151.592 258.712L152.808 259.048C152.627 259.453 152.355 259.816 151.992 260.136C151.64 260.456 151.219 260.707 150.728 260.888C150.248 261.069 149.725 261.16 149.16 261.16ZM146.344 256.328H152.04C151.997 255.784 151.843 255.304 151.576 254.888C151.309 254.472 150.968 254.147 150.552 253.912C150.136 253.677 149.677 253.56 149.176 253.56C148.685 253.56 148.232 253.677 147.816 253.912C147.4 254.147 147.059 254.472 146.792 254.888C146.536 255.304 146.387 255.784 146.344 256.328ZM156.449 261V253.896H153.569V252.648H160.737V253.896H157.857V261H156.449ZM49.832 280.16C49.2027 280.16 48.6267 280.048 48.104 279.824C47.592 279.589 47.144 279.269 46.76 278.864C46.3867 278.459 46.0933 277.995 45.88 277.472C45.6773 276.949 45.576 276.395 45.576 275.808C45.576 275.019 45.752 274.299 46.104 273.648C46.456 272.997 46.952 272.48 47.592 272.096C48.232 271.701 48.9733 271.504 49.816 271.504C50.6373 271.504 51.352 271.691 51.96 272.064C52.5787 272.427 53.0373 272.917 53.336 273.536L51.96 273.968C51.7467 273.573 51.448 273.269 51.064 273.056C50.68 272.832 50.2533 272.72 49.784 272.72C49.272 272.72 48.8027 272.853 48.376 273.12C47.96 273.387 47.6293 273.755 47.384 274.224C47.1387 274.683 47.016 275.211 47.016 275.808C47.016 276.395 47.1387 276.928 47.384 277.408C47.64 277.877 47.976 278.251 48.392 278.528C48.8187 278.805 49.288 278.944 49.8 278.944C50.1307 278.944 50.4453 278.885 50.744 278.768C51.0533 278.651 51.32 278.496 51.544 278.304C51.7787 278.101 51.9387 277.883 52.024 277.648L53.4 278.064C53.2293 278.469 52.968 278.832 52.616 279.152C52.2747 279.461 51.864 279.707 51.384 279.888C50.9147 280.069 50.3973 280.16 49.832 280.16ZM58.0653 280.16C57.4359 280.16 56.8653 280.048 56.3533 279.824C55.8413 279.589 55.3986 279.275 55.0253 278.88C54.6519 278.475 54.3639 278.011 54.1613 277.488C53.9586 276.965 53.8573 276.416 53.8573 275.84C53.8573 275.253 53.9586 274.699 54.1613 274.176C54.3639 273.653 54.6519 273.195 55.0253 272.8C55.3986 272.395 55.8413 272.08 56.3533 271.856C56.8759 271.621 57.4519 271.504 58.0813 271.504C58.6999 271.504 59.2653 271.621 59.7773 271.856C60.2893 272.08 60.7319 272.395 61.1053 272.8C61.4893 273.195 61.7826 273.653 61.9853 274.176C62.1879 274.699 62.2893 275.253 62.2893 275.84C62.2893 276.416 62.1879 276.965 61.9853 277.488C61.7826 278.011 61.4946 278.475 61.1213 278.88C60.7479 279.275 60.2999 279.589 59.7773 279.824C59.2653 280.048 58.6946 280.16 58.0653 280.16ZM55.2973 275.856C55.2973 276.432 55.4199 276.955 55.6653 277.424C55.9213 277.893 56.2573 278.267 56.6733 278.544C57.0893 278.811 57.5533 278.944 58.0653 278.944C58.5773 278.944 59.0413 278.805 59.4573 278.528C59.8839 278.251 60.2199 277.877 60.4653 277.408C60.7213 276.928 60.8493 276.4 60.8493 275.824C60.8493 275.248 60.7213 274.725 60.4653 274.256C60.2199 273.787 59.8839 273.413 59.4573 273.136C59.0413 272.859 58.5773 272.72 58.0653 272.72C57.5533 272.72 57.0893 272.864 56.6733 273.152C56.2573 273.429 55.9213 273.803 55.6653 274.272C55.4199 274.741 55.2973 275.269 55.2973 275.856ZM63.4794 280V271.648H70.4074V280H68.9994V272.896H64.8874V280H63.4794ZM76.6789 280.16C75.9962 280.16 75.3882 279.989 74.8549 279.648C74.3215 279.307 73.9002 278.875 73.5909 278.352V283.408H72.1829V271.648H73.4309V273.216C73.7615 272.704 74.1935 272.293 74.7269 271.984C75.2602 271.664 75.8415 271.504 76.4709 271.504C77.0469 271.504 77.5749 271.621 78.0549 271.856C78.5349 272.091 78.9509 272.411 79.3029 272.816C79.6549 273.221 79.9269 273.685 80.1189 274.208C80.3215 274.72 80.4229 275.259 80.4229 275.824C80.4229 276.613 80.2629 277.339 79.9429 278C79.6335 278.661 79.1962 279.189 78.6309 279.584C78.0655 279.968 77.4149 280.16 76.6789 280.16ZM76.2469 278.944C76.6629 278.944 77.0362 278.859 77.3669 278.688C77.7082 278.507 77.9962 278.272 78.2309 277.984C78.4762 277.685 78.6629 277.349 78.7909 276.976C78.9189 276.603 78.9829 276.219 78.9829 275.824C78.9829 275.408 78.9082 275.013 78.7589 274.64C78.6202 274.267 78.4175 273.936 78.1509 273.648C77.8949 273.36 77.5909 273.136 77.2389 272.976C76.8975 272.805 76.5242 272.72 76.1189 272.72C75.8629 272.72 75.5962 272.768 75.3189 272.864C75.0522 272.96 74.7962 273.099 74.5509 273.28C74.3055 273.451 74.0975 273.648 73.9269 273.872C73.7562 274.096 73.6442 274.336 73.5909 274.592V276.976C73.7509 277.339 73.9642 277.669 74.2309 277.968C74.4975 278.267 74.8069 278.507 75.1589 278.688C75.5109 278.859 75.8735 278.944 76.2469 278.944ZM85.2996 280.16C84.6703 280.16 84.0996 280.048 83.5876 279.824C83.0756 279.589 82.633 279.275 82.2596 278.88C81.8863 278.475 81.5983 278.011 81.3956 277.488C81.193 276.965 81.0916 276.416 81.0916 275.84C81.0916 275.253 81.193 274.699 81.3956 274.176C81.5983 273.653 81.8863 273.195 82.2596 272.8C82.633 272.395 83.0756 272.08 83.5876 271.856C84.1103 271.621 84.6863 271.504 85.3156 271.504C85.9343 271.504 86.4996 271.621 87.0116 271.856C87.5236 272.08 87.9663 272.395 88.3396 272.8C88.7236 273.195 89.017 273.653 89.2196 274.176C89.4223 274.699 89.5236 275.253 89.5236 275.84C89.5236 276.416 89.4223 276.965 89.2196 277.488C89.017 278.011 88.729 278.475 88.3556 278.88C87.9823 279.275 87.5343 279.589 87.0116 279.824C86.4996 280.048 85.929 280.16 85.2996 280.16ZM82.5316 275.856C82.5316 276.432 82.6543 276.955 82.8996 277.424C83.1556 277.893 83.4916 278.267 83.9076 278.544C84.3236 278.811 84.7876 278.944 85.2996 278.944C85.8116 278.944 86.2756 278.805 86.6916 278.528C87.1183 278.251 87.4543 277.877 87.6996 277.408C87.9556 276.928 88.0836 276.4 88.0836 275.824C88.0836 275.248 87.9556 274.725 87.6996 274.256C87.4543 273.787 87.1183 273.413 86.6916 273.136C86.2756 272.859 85.8116 272.72 85.2996 272.72C84.7876 272.72 84.3236 272.864 83.9076 273.152C83.4916 273.429 83.1556 273.803 82.8996 274.272C82.6543 274.741 82.5316 275.269 82.5316 275.856ZM90.7138 280V271.648H95.0338C95.5351 271.648 95.9511 271.749 96.2818 271.952C96.6124 272.144 96.8578 272.395 97.0178 272.704C97.1884 273.013 97.2738 273.344 97.2738 273.696C97.2738 274.144 97.1671 274.549 96.9538 274.912C96.7404 275.264 96.4311 275.531 96.0258 275.712C96.5058 275.851 96.8951 276.101 97.1938 276.464C97.4924 276.816 97.6418 277.253 97.6418 277.776C97.6418 278.245 97.5298 278.645 97.3058 278.976C97.0818 279.307 96.7671 279.563 96.3618 279.744C95.9564 279.915 95.4871 280 94.9538 280H90.7138ZM92.0578 279.008H94.9218C95.1778 279.008 95.4071 278.944 95.6098 278.816C95.8231 278.688 95.9884 278.517 96.1058 278.304C96.2231 278.091 96.2818 277.867 96.2818 277.632C96.2818 277.376 96.2231 277.147 96.1058 276.944C95.9991 276.731 95.8444 276.565 95.6418 276.448C95.4498 276.32 95.2258 276.256 94.9698 276.256H92.0578V279.008ZM92.0578 275.328H94.6658C94.9218 275.328 95.1458 275.264 95.3378 275.136C95.5298 274.997 95.6791 274.821 95.7858 274.608C95.8924 274.395 95.9458 274.171 95.9458 273.936C95.9458 273.584 95.8284 273.28 95.5938 273.024C95.3698 272.768 95.0764 272.64 94.7138 272.64H92.0578V275.328ZM102.581 280.16C101.952 280.16 101.381 280.048 100.869 279.824C100.357 279.589 99.9142 279.275 99.5409 278.88C99.1675 278.475 98.8795 278.011 98.6769 277.488C98.4742 276.965 98.3729 276.416 98.3729 275.84C98.3729 275.253 98.4742 274.699 98.6769 274.176C98.8795 273.653 99.1675 273.195 99.5409 272.8C99.9142 272.395 100.357 272.08 100.869 271.856C101.392 271.621 101.968 271.504 102.597 271.504C103.216 271.504 103.781 271.621 104.293 271.856C104.805 272.08 105.248 272.395 105.621 272.8C106.005 273.195 106.298 273.653 106.501 274.176C106.704 274.699 106.805 275.253 106.805 275.84C106.805 276.416 106.704 276.965 106.501 277.488C106.298 278.011 106.01 278.475 105.637 278.88C105.264 279.275 104.816 279.589 104.293 279.824C103.781 280.048 103.21 280.16 102.581 280.16ZM99.8129 275.856C99.8129 276.432 99.9355 276.955 100.181 277.424C100.437 277.893 100.773 278.267 101.189 278.544C101.605 278.811 102.069 278.944 102.581 278.944C103.093 278.944 103.557 278.805 103.973 278.528C104.4 278.251 104.736 277.877 104.981 277.408C105.237 276.928 105.365 276.4 105.365 275.824C105.365 275.248 105.237 274.725 104.981 274.256C104.736 273.787 104.4 273.413 103.973 273.136C103.557 272.859 103.093 272.72 102.581 272.72C102.069 272.72 101.605 272.864 101.189 273.152C100.773 273.429 100.437 273.803 100.181 274.272C99.9355 274.741 99.8129 275.269 99.8129 275.856ZM107.435 280L110.507 275.696L107.707 271.648H109.291L111.691 275.12H112.587V271.648H114.027V275.12H114.955L117.307 271.648H118.907L116.107 275.696L119.195 280H117.579L114.955 276.352H114.027V280H112.587V276.352H111.691L109.051 280H107.435ZM119.458 281.968V278.752H119.634C119.869 278.752 120.082 278.683 120.274 278.544C120.477 278.405 120.653 278.165 120.802 277.824C120.962 277.472 121.09 276.992 121.186 276.384C121.282 275.776 121.346 275.003 121.378 274.064L121.458 271.648H127.138V278.752H128.274V281.968H127.026V280H120.706V281.968H119.458ZM121.602 278.752H125.73V272.896H122.706L122.658 274.192C122.626 275.099 122.562 275.861 122.466 276.48C122.381 277.088 122.263 277.573 122.114 277.936C121.975 278.299 121.805 278.571 121.602 278.752ZM133.035 280.16C132.406 280.16 131.83 280.048 131.307 279.824C130.795 279.589 130.347 279.275 129.963 278.88C129.59 278.475 129.296 278.011 129.083 277.488C128.88 276.965 128.779 276.411 128.779 275.824C128.779 275.035 128.96 274.315 129.323 273.664C129.686 273.013 130.187 272.491 130.827 272.096C131.478 271.701 132.219 271.504 133.051 271.504C133.894 271.504 134.624 271.707 135.243 272.112C135.872 272.507 136.358 273.029 136.699 273.68C137.051 274.32 137.227 275.013 137.227 275.76C137.227 275.867 137.222 275.973 137.211 276.08C137.211 276.176 137.206 276.251 137.195 276.304H130.267C130.31 276.848 130.459 277.333 130.715 277.76C130.982 278.176 131.323 278.507 131.739 278.752C132.155 278.987 132.603 279.104 133.083 279.104C133.595 279.104 134.075 278.976 134.523 278.72C134.982 278.464 135.296 278.128 135.467 277.712L136.683 278.048C136.502 278.453 136.23 278.816 135.867 279.136C135.515 279.456 135.094 279.707 134.603 279.888C134.123 280.069 133.6 280.16 133.035 280.16ZM130.219 275.328H135.915C135.872 274.784 135.718 274.304 135.451 273.888C135.184 273.472 134.843 273.147 134.427 272.912C134.011 272.677 133.552 272.56 133.051 272.56C132.56 272.56 132.107 272.677 131.691 272.912C131.275 273.147 130.934 273.472 130.667 273.888C130.411 274.304 130.262 274.784 130.219 275.328ZM138.276 280V271.648H139.684V275.104H144.036V271.648H145.444V280H144.036V276.352H139.684V280H138.276ZM147.198 280V271.664H148.606V278.112L153.278 271.648H154.558V280H153.15V273.68L148.542 280H147.198ZM155.684 280L158.052 276.64C157.508 276.533 157.071 276.277 156.74 275.872C156.409 275.456 156.244 274.901 156.244 274.208C156.244 273.707 156.361 273.264 156.596 272.88C156.831 272.496 157.156 272.192 157.572 271.968C157.999 271.744 158.495 271.632 159.06 271.632H162.484V280H161.076V276.864H159.444L157.236 280H155.684ZM159.156 275.824H161.076V272.736H159.316C158.815 272.736 158.415 272.88 158.116 273.168C157.817 273.445 157.668 273.803 157.668 274.24C157.668 274.677 157.791 275.051 158.036 275.36C158.292 275.669 158.665 275.824 159.156 275.824ZM167.792 280V271.648H174.72V280H173.312V272.896H169.2V280H167.792ZM175.839 277.584C175.839 277.051 175.989 276.592 176.287 276.208C176.597 275.813 177.018 275.509 177.551 275.296C178.085 275.083 178.703 274.976 179.407 274.976C179.781 274.976 180.175 275.008 180.591 275.072C181.007 275.125 181.375 275.211 181.695 275.328V274.72C181.695 274.08 181.503 273.579 181.119 273.216C180.735 272.843 180.191 272.656 179.487 272.656C179.029 272.656 178.586 272.741 178.159 272.912C177.743 273.072 177.301 273.307 176.831 273.616L176.319 272.624C176.863 272.251 177.407 271.973 177.951 271.792C178.495 271.6 179.061 271.504 179.647 271.504C180.714 271.504 181.557 271.803 182.175 272.4C182.794 272.987 183.103 273.808 183.103 274.864V278.4C183.103 278.571 183.135 278.699 183.199 278.784C183.274 278.859 183.391 278.901 183.551 278.912V280C183.413 280.021 183.29 280.037 183.183 280.048C183.087 280.059 183.007 280.064 182.943 280.064C182.613 280.064 182.362 279.973 182.191 279.792C182.031 279.611 181.941 279.419 181.919 279.216L181.887 278.688C181.525 279.157 181.05 279.52 180.463 279.776C179.877 280.032 179.295 280.16 178.719 280.16C178.165 280.16 177.669 280.048 177.231 279.824C176.794 279.589 176.453 279.28 176.207 278.896C175.962 278.501 175.839 278.064 175.839 277.584ZM181.279 278.176C181.407 278.027 181.509 277.877 181.583 277.728C181.658 277.568 181.695 277.435 181.695 277.328V276.288C181.365 276.16 181.018 276.064 180.655 276C180.293 275.925 179.935 275.888 179.583 275.888C178.869 275.888 178.287 276.032 177.839 276.32C177.402 276.597 177.183 276.981 177.183 277.472C177.183 277.739 177.253 278 177.391 278.256C177.541 278.501 177.754 278.704 178.031 278.864C178.319 279.024 178.671 279.104 179.087 279.104C179.525 279.104 179.941 279.019 180.335 278.848C180.73 278.667 181.045 278.443 181.279 278.176ZM191.431 281.968V280H184.839V271.648H186.247V278.768H190.119V271.648H191.527V278.768H192.679V281.968H191.431ZM193.729 280V271.664H195.137V278.112L199.809 271.648H201.089V280H199.681V273.68L195.073 280H193.729ZM206.535 280.16C205.906 280.16 205.33 280.048 204.807 279.824C204.295 279.589 203.847 279.275 203.463 278.88C203.09 278.475 202.796 278.011 202.583 277.488C202.38 276.965 202.279 276.411 202.279 275.824C202.279 275.035 202.46 274.315 202.823 273.664C203.186 273.013 203.687 272.491 204.327 272.096C204.978 271.701 205.719 271.504 206.551 271.504C207.394 271.504 208.124 271.707 208.743 272.112C209.372 272.507 209.858 273.029 210.199 273.68C210.551 274.32 210.727 275.013 210.727 275.76C210.727 275.867 210.722 275.973 210.711 276.08C210.711 276.176 210.706 276.251 210.695 276.304H203.767C203.81 276.848 203.959 277.333 204.215 277.76C204.482 278.176 204.823 278.507 205.239 278.752C205.655 278.987 206.103 279.104 206.583 279.104C207.095 279.104 207.575 278.976 208.023 278.72C208.482 278.464 208.796 278.128 208.967 277.712L210.183 278.048C210.002 278.453 209.73 278.816 209.367 279.136C209.015 279.456 208.594 279.707 208.103 279.888C207.623 280.069 207.1 280.16 206.535 280.16ZM203.719 275.328H209.415C209.372 274.784 209.218 274.304 208.951 273.888C208.684 273.472 208.343 273.147 207.927 272.912C207.511 272.677 207.052 272.56 206.551 272.56C206.06 272.56 205.607 272.677 205.191 272.912C204.775 273.147 204.434 273.472 204.167 273.888C203.911 274.304 203.762 274.784 203.719 275.328ZM211.776 280V271.648H213.184V275.104H217.536V271.648H218.944V280H217.536V276.352H213.184V280H211.776ZM222.746 280V272.896H219.866V271.648H227.034V272.896H224.154V280H222.746ZM227.293 277.584C227.293 277.051 227.442 276.592 227.741 276.208C228.05 275.813 228.471 275.509 229.005 275.296C229.538 275.083 230.157 274.976 230.861 274.976C231.234 274.976 231.629 275.008 232.045 275.072C232.461 275.125 232.829 275.211 233.149 275.328V274.72C233.149 274.08 232.957 273.579 232.573 273.216C232.189 272.843 231.645 272.656 230.941 272.656C230.482 272.656 230.039 272.741 229.613 272.912C229.197 273.072 228.754 273.307 228.285 273.616L227.773 272.624C228.317 272.251 228.861 271.973 229.405 271.792C229.949 271.6 230.514 271.504 231.101 271.504C232.167 271.504 233.01 271.803 233.629 272.4C234.247 272.987 234.557 273.808 234.557 274.864V278.4C234.557 278.571 234.589 278.699 234.653 278.784C234.727 278.859 234.845 278.901 235.005 278.912V280C234.866 280.021 234.743 280.037 234.637 280.048C234.541 280.059 234.461 280.064 234.397 280.064C234.066 280.064 233.815 279.973 233.645 279.792C233.485 279.611 233.394 279.419 233.373 279.216L233.341 278.688C232.978 279.157 232.503 279.52 231.917 279.776C231.33 280.032 230.749 280.16 230.173 280.16C229.618 280.16 229.122 280.048 228.685 279.824C228.247 279.589 227.906 279.28 227.661 278.896C227.415 278.501 227.293 278.064 227.293 277.584ZM232.733 278.176C232.861 278.027 232.962 277.877 233.037 277.728C233.111 277.568 233.149 277.435 233.149 277.328V276.288C232.818 276.16 232.471 276.064 232.109 276C231.746 275.925 231.389 275.888 231.036 275.888C230.322 275.888 229.741 276.032 229.293 276.32C228.855 276.597 228.637 276.981 228.637 277.472C228.637 277.739 228.706 278 228.845 278.256C228.994 278.501 229.207 278.704 229.485 278.864C229.773 279.024 230.125 279.104 230.541 279.104C230.978 279.104 231.394 279.019 231.789 278.848C232.183 278.667 232.498 278.443 232.733 278.176Z" fill="#262626"/>
<path d="M54.432 199.364C52.584 199.364 50.928 198.944 49.464 198.104C48 197.288 46.884 196.172 46.116 194.756L48.492 192.488C49.164 193.52 50.028 194.336 51.084 194.936C52.14 195.56 53.268 195.872 54.468 195.872C55.452 195.872 56.328 195.656 57.096 195.224C57.864 194.816 58.464 194.24 58.896 193.496C59.352 192.728 59.58 191.852 59.58 190.868C59.58 189.908 59.364 189.068 58.932 188.348C58.5 187.604 57.924 187.04 57.204 186.656C56.484 186.248 55.656 186.044 54.72 186.044C53.808 186.044 52.956 186.248 52.164 186.656C51.372 187.064 50.724 187.64 50.22 188.384H46.728L49.644 173.444H62.136V177.08H52.524L51.228 184.064C51.636 183.632 52.188 183.284 52.884 183.02C53.58 182.732 54.372 182.588 55.26 182.588C56.868 182.588 58.296 182.948 59.544 183.668C60.816 184.364 61.812 185.324 62.532 186.548C63.276 187.772 63.648 189.188 63.648 190.796C63.648 192.5 63.24 193.988 62.424 195.26C61.608 196.556 60.504 197.564 59.112 198.284C57.72 199.004 56.16 199.364 54.432 199.364ZM67.0241 194V189.392H70.3001V194H67.0241Z" fill="#B16BF7" fill-opacity="0.4"/>
</g>
<circle cx="137.5" cy="77.5" r="41" stroke="#85A080" stroke-width="3"/>
<circle cx="137.5" cy="77.5" r="35" stroke="#85A080" stroke-width="3"/>
<path d="M137 54V78.5" stroke="#85A080" stroke-width="3" stroke-linecap="round"/>
<path d="M154.324 61L137 78.3241" stroke="#85A080" stroke-width="3" stroke-linecap="round"/>
<defs>
<filter id="filter0_d_0_482" x="0" y="0" width="285" height="342" filterUnits="userSpaceOnUse" color-interpolation-filters="sRGB">
<feFlood flood-opacity="0" result="BackgroundImageFix"/>
<feColorMatrix in="SourceAlpha" type="matrix" values="0 0 0 0 0 0 0 0 0 0 0 0 0 0 0 0 0 0 127 0" result="hardAlpha"/>
<feOffset dx="4" dy="11"/>
<feGaussianBlur stdDeviation="8.5"/>
<feComposite in2="hardAlpha" operator="out"/>
<feColorMatrix type="matrix" values="0 0 0 0 0.300245 0 0 0 0 0.580139 0 0 0 0 0.248412 0 0 0 0.2 0"/>
<feBlend mode="normal" in2="BackgroundImageFix" result="effect1_dropShadow_0_482"/>
<feBlend mode="normal" in="SourceGraphic" in2="effect1_dropShadow_0_482" result="shape"/>
</filter>
</defs>
</svg>
