<svg width="12" height="12" viewBox="0 0 12 12" fill="none" xmlns="http://www.w3.org/2000/svg">
<path d="M10.9107 8.05449L8.20872 6.84374L8.20126 6.8403C8.06099 6.78031 7.90798 6.75623 7.75606 6.77025C7.60414 6.78427 7.45812 6.83594 7.3312 6.9206C7.31626 6.93047 7.30189 6.94119 7.28819 6.95271L5.89219 8.14281C5.00779 7.71323 4.09472 6.80703 3.66514 5.93411L4.85695 4.51689C4.86842 4.50255 4.87932 4.48821 4.88964 4.47272C4.97248 4.34614 5.02274 4.20105 5.03595 4.05035C5.04915 3.89966 5.0249 3.74803 4.96535 3.60897V3.60209L3.75117 0.89555C3.67244 0.71389 3.53708 0.562561 3.36528 0.464155C3.19349 0.365749 2.99447 0.325543 2.79795 0.34954C2.02078 0.451806 1.30742 0.833475 0.791095 1.42326C0.274768 2.01305 -0.00921247 2.77062 -0.00780731 3.55449C-0.00780731 8.1084 3.69726 11.8135 8.25116 11.8135C9.03502 11.8149 9.79259 11.5309 10.3824 11.0146C10.9722 10.4982 11.3538 9.78487 11.4561 9.00771C11.4801 8.81125 11.44 8.61228 11.3417 8.4405C11.2434 8.26871 11.0922 8.1333 10.9107 8.05449ZM8.25116 10.8958C6.30478 10.8937 4.43872 10.1195 3.06242 8.74324C1.68612 7.36693 0.911981 5.50087 0.909855 3.55449C0.907698 2.99442 1.10948 2.45271 1.47751 2.03053C1.84554 1.60836 2.35466 1.33458 2.90979 1.26032C2.90956 1.26261 2.90956 1.26492 2.90979 1.2672L4.11422 3.96285L2.92871 5.38179C2.91668 5.39563 2.90575 5.4104 2.89602 5.42595C2.80971 5.55839 2.75908 5.71088 2.74903 5.86864C2.73898 6.0264 2.76986 6.18409 2.83867 6.32641C3.35829 7.38918 4.42909 8.45195 5.50333 8.971C5.6467 9.03917 5.80529 9.06898 5.96362 9.05752C6.12195 9.04606 6.2746 8.99372 6.40666 8.90562C6.42138 8.8957 6.43555 8.88498 6.4491 8.8735L7.84337 7.68398L10.539 8.89128H10.5453C10.472 9.44719 10.1986 9.95734 9.77634 10.3263C9.35409 10.6952 8.81188 10.8977 8.25116 10.8958Z" fill="#C2F1C9"/>
</svg>
