<svg width="20" height="20" viewBox="0 0 20 20" fill="none" xmlns="http://www.w3.org/2000/svg">
<path d="M10.3571 0C5.03423 0 0.714233 4.32 0.714233 9.64286C0.714233 14.9657 5.03423 19.2857 10.3571 19.2857C15.6799 19.2857 19.9999 14.9657 19.9999 9.64286C19.9999 4.32 15.6799 0 10.3571 0ZM14.8314 6.55714C14.6867 8.08072 14.0599 11.7836 13.7417 13.4904C13.6067 14.2136 13.3367 14.4546 13.086 14.4836C12.5267 14.5318 12.1024 14.1171 11.5624 13.7604C10.7139 13.2011 10.2317 12.8539 9.41209 12.3139C8.45745 11.6871 9.07459 11.34 9.62423 10.7807C9.76888 10.6361 12.2374 8.38929 12.2857 8.18679C12.2924 8.15612 12.2915 8.12427 12.2831 8.09403C12.2747 8.06378 12.259 8.03604 12.2374 8.01322C12.1796 7.965 12.1024 7.98429 12.0349 7.99393C11.9482 8.01321 10.5982 8.91 7.96566 10.6843C7.57995 10.9446 7.23281 11.0796 6.92423 11.07C6.57709 11.0604 5.92138 10.8771 5.42959 10.7132C4.82209 10.5204 4.34959 10.4143 4.38816 10.0768C4.40745 9.90321 4.64852 9.72964 5.10173 9.54643C7.91745 8.32179 9.78816 7.51179 10.7235 7.12607C13.4042 6.0075 13.9539 5.81464 14.3203 5.81464C14.3974 5.81464 14.5807 5.83393 14.6964 5.93036C14.7928 6.0075 14.8217 6.11357 14.8314 6.19071C14.8217 6.24857 14.841 6.42214 14.8314 6.55714Z" fill="#BEECC5"/>
</svg>
