<svg width="27" height="26" viewBox="0 0 27 26" fill="none" xmlns="http://www.w3.org/2000/svg">
<path d="M13.4514 0C6.27542 0 0.451416 5.824 0.451416 13C0.451416 20.176 6.27542 26 13.4514 26C20.6274 26 26.4514 20.176 26.4514 13C26.4514 5.824 20.6274 0 13.4514 0ZM19.4834 8.84C19.2884 10.894 18.4434 15.886 18.0144 18.187C17.8324 19.162 17.4684 19.487 17.1304 19.526C16.3764 19.591 15.8044 19.032 15.0764 18.551C13.9324 17.797 13.2824 17.329 12.1774 16.601C10.8904 15.756 11.7224 15.288 12.4634 14.534C12.6584 14.339 15.9864 11.31 16.0514 11.037C16.0604 10.9957 16.0592 10.9527 16.0479 10.9119C16.0366 10.8712 16.0155 10.8338 15.9864 10.803C15.9084 10.738 15.8044 10.764 15.7134 10.777C15.5964 10.803 13.7764 12.012 10.2274 14.404C9.70742 14.755 9.23942 14.937 8.82341 14.924C8.35542 14.911 7.47142 14.664 6.80842 14.443C5.98942 14.183 5.35242 14.04 5.40442 13.585C5.43042 13.351 5.75542 13.117 6.36642 12.87C10.1624 11.219 12.6844 10.127 13.9454 9.607C17.5594 8.099 18.3004 7.839 18.7944 7.839C18.8984 7.839 19.1454 7.865 19.3014 7.995C19.4314 8.099 19.4704 8.242 19.4834 8.346C19.4704 8.424 19.4964 8.658 19.4834 8.84Z" fill="#85A080"/>
</svg>
