<svg width="28" height="28" viewBox="0 0 28 28" fill="none" xmlns="http://www.w3.org/2000/svg">
<path d="M0.856534 27.3395L2.65471 20.732C1.46985 18.7009 0.847352 16.3908 0.851214 14.0394C0.851214 6.69372 6.80567 0.739258 14.1513 0.739258C21.497 0.739258 27.4514 6.69372 27.4514 14.0394C27.4514 21.385 21.497 27.3395 14.1513 27.3395C11.8009 27.3433 9.49184 26.7213 7.46137 25.5373L0.856534 27.3395ZM9.35131 7.79896C9.17956 7.80962 9.01173 7.85486 8.85788 7.93196C8.7136 8.01366 8.5819 8.1158 8.46686 8.2352C8.30726 8.38549 8.21682 8.51583 8.11973 8.64218C7.62817 9.28191 7.36376 10.0672 7.36827 10.8739C7.37093 11.5256 7.54117 12.1601 7.80717 12.7532C8.35115 13.9529 9.24624 15.2231 10.4286 16.4001C10.7132 16.6834 10.9912 16.9681 11.2905 17.2327C12.758 18.5248 14.5068 19.4566 16.3977 19.9539L17.1545 20.0696C17.4005 20.0829 17.6466 20.0643 17.894 20.0523C18.2813 20.0324 18.6595 19.9275 19.0019 19.7451C19.2227 19.6281 19.3264 19.5696 19.5113 19.4525C19.5113 19.4525 19.5685 19.4153 19.6775 19.3328C19.8571 19.1998 19.9675 19.1054 20.1164 18.9498C20.2268 18.8354 20.3226 18.7011 20.3957 18.5481C20.4995 18.3313 20.6032 17.9177 20.6458 17.5732C20.6777 17.3099 20.6684 17.1662 20.6644 17.0771C20.6591 16.9348 20.5407 16.7872 20.4117 16.7247L19.6376 16.3775C19.6376 16.3775 18.4805 15.8735 17.7743 15.5516C17.6998 15.5191 17.62 15.5006 17.5389 15.4971C17.4479 15.4877 17.3559 15.498 17.2692 15.5271C17.1825 15.5562 17.103 15.6036 17.0361 15.666V15.6633C17.0295 15.6633 16.9404 15.7391 15.9788 16.9042C15.9236 16.9784 15.8475 17.0344 15.7604 17.0652C15.6732 17.096 15.5788 17.1002 15.4893 17.0771C15.4027 17.0539 15.3178 17.0246 15.2353 16.9893C15.0704 16.9202 15.0132 16.8936 14.9001 16.8444L14.8935 16.8417C14.1326 16.5095 13.4281 16.0608 12.8054 15.5117C12.6378 15.3654 12.4822 15.2058 12.3226 15.0515C11.7993 14.5504 11.3433 13.9835 10.9659 13.3651L10.8875 13.2387C10.8311 13.1538 10.7855 13.0622 10.7518 12.9661C10.7013 12.7705 10.8329 12.6136 10.8329 12.6136C10.8329 12.6136 11.1561 12.2598 11.3064 12.0683C11.4316 11.9091 11.5483 11.7435 11.6562 11.5722C11.8132 11.3195 11.8624 11.0601 11.7799 10.8593C11.4075 9.94958 11.0218 9.04385 10.6255 8.14476C10.547 7.96654 10.3142 7.83886 10.1028 7.81359C10.031 7.80561 9.95913 7.79763 9.88731 7.79231C9.7087 7.78343 9.52972 7.78521 9.35131 7.79763V7.79896Z" fill="#85A080"/>
</svg>
