<svg width="20" height="20" viewBox="0 0 20 20" fill="none" xmlns="http://www.w3.org/2000/svg">
<path d="M0.00387004 19.2857L1.30758 14.4951C0.448538 13.0225 -0.00278739 11.3477 1.29525e-05 9.64285C1.29525e-05 4.3171 4.31712 0 9.64286 0C14.9686 0 19.2857 4.3171 19.2857 9.64285C19.2857 14.9686 14.9686 19.2857 9.64286 19.2857C7.93876 19.2885 6.26464 18.8375 4.79251 17.9791L0.00387004 19.2857ZM6.16276 5.11843C6.03823 5.12616 5.91655 5.15896 5.80501 5.21485C5.70041 5.27409 5.60492 5.34814 5.52151 5.43471C5.4058 5.54368 5.34022 5.63818 5.26983 5.72978C4.91344 6.1936 4.72174 6.76293 4.72501 7.34785C4.72694 7.82035 4.85037 8.28032 5.04322 8.71039C5.43762 9.58017 6.08658 10.5011 6.94383 11.3545C7.15019 11.5598 7.35172 11.7662 7.56869 11.9581C8.63267 12.8949 9.90057 13.5704 11.2715 13.931L11.8202 14.0149C11.9986 14.0246 12.177 14.0111 12.3564 14.0024C12.6372 13.9879 12.9114 13.9118 13.1596 13.7796C13.3197 13.6948 13.3949 13.6523 13.5289 13.5675C13.5289 13.5675 13.5704 13.5405 13.6495 13.4807C13.7796 13.3843 13.8597 13.3158 13.9677 13.203C14.0477 13.1201 14.1171 13.0227 14.1702 12.9118C14.2454 12.7546 14.3206 12.4547 14.3515 12.205C14.3746 12.014 14.3679 11.9099 14.365 11.8453C14.3611 11.7421 14.2753 11.6351 14.1818 11.5897L13.6205 11.3381C13.6205 11.3381 12.7816 10.9726 12.2696 10.7392C12.2156 10.7157 12.1577 10.7023 12.0989 10.6997C12.0329 10.6929 11.9663 10.7004 11.9034 10.7215C11.8405 10.7426 11.7829 10.7769 11.7344 10.8222V10.8202C11.7296 10.8202 11.665 10.8752 10.9678 11.7199C10.9278 11.7737 10.8727 11.8143 10.8095 11.8367C10.7463 11.859 10.6778 11.862 10.6129 11.8453C10.5501 11.8285 10.4886 11.8072 10.4288 11.7816C10.3092 11.7315 10.2677 11.7122 10.1858 11.6765L10.1809 11.6746C9.62928 11.4337 9.11851 11.1084 8.66701 10.7103C8.54551 10.6042 8.43269 10.4885 8.31697 10.3767C7.9376 10.0134 7.60698 9.60236 7.3334 9.15396L7.27651 9.06235C7.23564 9.0008 7.20261 8.93439 7.17815 8.86467C7.14151 8.72292 7.23697 8.60914 7.23697 8.60914C7.23697 8.60914 7.47129 8.35264 7.58026 8.21378C7.67099 8.09838 7.75564 7.97832 7.83386 7.8541C7.94765 7.67089 7.98333 7.48285 7.92354 7.33725C7.65354 6.67767 7.3739 6.021 7.08654 5.36914C7.02965 5.23993 6.8609 5.14735 6.70758 5.12903C6.65551 5.12325 6.60344 5.11746 6.55137 5.1136C6.42187 5.10717 6.2921 5.10846 6.16276 5.11746V5.11843Z" fill="#C2F1C9"/>
</svg>
