<svg width="27" height="26" viewBox="0 0 27 26" fill="none" xmlns="http://www.w3.org/2000/svg">
<path d="M13.4514 0C6.27162 0 0.451416 5.82021 0.451416 13C0.451416 20.1798 6.27162 26 13.4514 26C20.6312 26 26.4514 20.1798 26.4514 13C26.4514 5.82021 20.6312 0 13.4514 0ZM18.451 14.667C18.451 14.667 19.6007 15.8018 19.8837 16.3285C19.8918 16.3394 19.8959 16.3502 19.8986 16.3556C20.0137 16.5493 20.0408 16.6996 19.9839 16.812C19.8891 16.9989 19.5641 17.0909 19.4531 17.0991H17.4218C17.281 17.0991 16.9858 17.0625 16.6283 16.816C16.3534 16.6238 16.0826 16.3082 15.8185 16.0008C15.4244 15.5431 15.0832 15.1477 14.7392 15.1477C14.6955 15.1476 14.6521 15.1545 14.6106 15.168C14.3506 15.252 14.0175 15.623 14.0175 16.6116C14.0175 16.9203 13.7737 17.0977 13.6017 17.0977H12.6714C12.3545 17.0977 10.7038 16.9867 9.24131 15.4443C7.4511 13.5552 5.83964 9.76625 5.8261 9.73104C5.72454 9.48594 5.93444 9.35458 6.16329 9.35458H8.21485C8.48839 9.35458 8.57777 9.52115 8.64006 9.66875C8.71319 9.84073 8.98131 10.5246 9.42142 11.2937C10.1351 12.5477 10.5725 13.0569 10.9232 13.0569C10.989 13.0561 11.0535 13.0394 11.1114 13.0081C11.5691 12.7535 11.4838 11.1218 11.4635 10.7832C11.4635 10.7196 11.4621 10.0533 11.2279 9.73375C11.06 9.50219 10.7742 9.41417 10.6009 9.38167C10.6711 9.28486 10.7635 9.20636 10.8704 9.15281C11.1845 8.99573 11.7506 8.97271 12.3126 8.97271H12.6254C13.2347 8.98083 13.3918 9.0201 13.6126 9.07562C14.0594 9.1826 14.0689 9.47104 14.0296 10.4582C14.0175 10.7385 14.0053 11.0554 14.0053 11.4292C14.0053 11.5104 14.0012 11.5971 14.0012 11.6892C13.9877 12.1916 13.9714 12.7617 14.3262 12.9959C14.3725 13.025 14.426 13.0404 14.4806 13.0406C14.6038 13.0406 14.9749 13.0406 15.9796 11.3168C16.2895 10.7619 16.5588 10.1853 16.7854 9.59156C16.8057 9.55635 16.8653 9.44802 16.9357 9.40604C16.9877 9.37955 17.0453 9.36607 17.1036 9.36677H19.5154C19.7781 9.36677 19.9582 9.40604 19.992 9.5076C20.0516 9.66875 19.9812 10.1603 18.8803 11.6512L18.3887 12.2999C17.3907 13.608 17.3907 13.6744 18.451 14.667Z" fill="#85A080"/>
</svg>
