<svg width="328" height="77" viewBox="0 0 328 77" fill="none" xmlns="http://www.w3.org/2000/svg">
<path d="M19.9519 71.3799L19.9253 59.0056L13.7914 69.2464H12.2447L6.11083 59.1656V71.3799H2.83057V52.7118H5.68413L13.0714 65.0594L20.3786 52.7118H23.2055L23.2589 71.3799H19.9519Z" fill="#85A080"/>
<path d="M40.9107 64.3394C40.9107 64.5705 40.8929 64.8994 40.8574 65.3261H29.6831C29.8787 66.3751 30.3854 67.2107 31.2033 67.833C32.0389 68.4375 33.0701 68.7397 34.2968 68.7397C35.8614 68.7397 37.1504 68.2241 38.1638 67.1929L39.9506 69.2464C39.3106 70.0109 38.5016 70.5887 37.5238 70.9799C36.5459 71.371 35.4436 71.5666 34.2168 71.5666C32.6523 71.5666 31.2744 71.2555 30.0832 70.6332C28.892 70.0109 27.9674 69.1486 27.3096 68.0463C26.6696 66.9262 26.3495 65.6639 26.3495 64.2594C26.3495 62.8726 26.6607 61.628 27.2829 60.5257C27.923 59.4056 28.8031 58.5344 29.9232 57.9122C31.0432 57.2899 32.3056 56.9788 33.7101 56.9788C35.0969 56.9788 36.3326 57.2899 37.4171 57.9122C38.5194 58.5167 39.3728 59.379 39.9773 60.499C40.5996 61.6014 40.9107 62.8815 40.9107 64.3394ZM33.7101 59.6456C32.6434 59.6456 31.7366 59.9657 30.9899 60.6057C30.261 61.228 29.8165 62.0636 29.6565 63.1126H37.7371C37.5949 62.0814 37.1593 61.2458 36.4303 60.6057C35.7014 59.9657 34.7947 59.6456 33.7101 59.6456Z" fill="#85A080"/>
<path d="M59.0424 68.553V74.5535H55.9221V71.3799H44.9346V74.5535H41.841V68.553H42.5077C43.4144 68.5175 44.0278 67.9396 44.3479 66.8196C44.6857 65.6817 44.9079 64.0816 45.0146 62.0192L45.2013 57.1388H56.9355V68.553H59.0424ZM48.0548 62.2592C47.9837 63.8949 47.8504 65.2283 47.6548 66.2595C47.4592 67.2907 47.1036 68.0552 46.588 68.553H53.6019V59.9657H48.1348L48.0548 62.2592Z" fill="#85A080"/>
<path d="M61.4863 57.1388H64.8199V66.5262L72.6872 57.1388H75.7274V71.3799H72.3939V61.9925L64.5532 71.3799H61.4863V57.1388Z" fill="#85A080"/>
<path d="M95.3063 68.553V74.6602H92.1861V71.3799H79.6784V57.1388H83.012V68.553H89.8125V57.1388H93.1461V68.553H95.3063Z" fill="#85A080"/>
<path d="M97.7402 57.1388H101.074V66.5262L108.941 57.1388H111.981V71.3799H108.648V61.9925L100.807 71.3799H97.7402V57.1388Z" fill="#85A080"/>
<path d="M115.932 57.1388H119.266V62.9259H126.44V57.1388H129.773V71.3799H126.44V65.7528H119.266V71.3799H115.932V57.1388Z" fill="#85A080"/>
<path d="M140.188 71.5666C138.713 71.5666 137.388 71.2555 136.215 70.6332C135.041 70.0109 134.126 69.1486 133.468 68.0463C132.81 66.9262 132.481 65.6639 132.481 64.2594C132.481 62.8548 132.81 61.6014 133.468 60.499C134.126 59.3967 135.032 58.5344 136.188 57.9122C137.361 57.2899 138.695 56.9788 140.188 56.9788C141.593 56.9788 142.82 57.2632 143.869 57.8322C144.935 58.4011 145.735 59.2189 146.269 60.2857L143.709 61.7792C143.3 61.1213 142.784 60.6324 142.162 60.3124C141.557 59.9746 140.891 59.8057 140.162 59.8057C138.917 59.8057 137.886 60.2146 137.068 61.0324C136.25 61.8325 135.841 62.9081 135.841 64.2594C135.841 65.6106 136.241 66.6951 137.041 67.5129C137.859 68.313 138.899 68.713 140.162 68.713C140.891 68.713 141.557 68.553 142.162 68.233C142.784 67.8952 143.3 67.3974 143.709 66.7395L146.269 68.233C145.718 69.2998 144.909 70.1265 143.842 70.7132C142.793 71.2821 141.575 71.5666 140.188 71.5666Z" fill="#85A080"/>
<path d="M154.591 65.6728H152.004V71.3799H148.67V57.1388H152.004V62.8992H154.671L158.885 57.1388H162.458L157.284 63.9927L162.805 71.3799H158.885L154.591 65.6728Z" fill="#85A080"/>
<path d="M164.623 57.1388H167.956V66.5262L175.824 57.1388H178.864V71.3799H175.53V61.9925L167.69 71.3799H164.623V57.1388Z" fill="#85A080"/>
<path d="M182.815 57.1388H186.148V66.5262L194.016 57.1388H197.056V71.3799H193.722V61.9925L185.882 71.3799H182.815V57.1388ZM189.722 55.4586C188.282 55.4586 187.18 55.1297 186.415 54.4719C185.668 53.7963 185.286 52.8184 185.268 51.5383H187.482C187.5 52.1784 187.695 52.6851 188.069 53.0585C188.46 53.4318 189.002 53.6185 189.695 53.6185C190.371 53.6185 190.904 53.4318 191.295 53.0585C191.704 52.6851 191.918 52.1784 191.936 51.5383H194.202C194.185 52.8184 193.793 53.7963 193.029 54.4719C192.264 55.1297 191.162 55.4586 189.722 55.4586Z" fill="#85A080"/>
<path d="M223.472 68.553V74.6602H220.352V71.3799H207.844V57.1388H211.178V68.553H217.978V57.1388H221.312V68.553H223.472Z" fill="#85A080"/>
<path d="M239.24 64.3394C239.24 64.5705 239.222 64.8994 239.187 65.3261H228.013C228.208 66.3751 228.715 67.2107 229.533 67.833C230.368 68.4375 231.4 68.7397 232.626 68.7397C234.191 68.7397 235.48 68.2241 236.493 67.1929L238.28 69.2464C237.64 70.0109 236.831 70.5887 235.853 70.9799C234.875 71.371 233.773 71.5666 232.546 71.5666C230.982 71.5666 229.604 71.2555 228.413 70.6332C227.221 70.0109 226.297 69.1486 225.639 68.0463C224.999 66.9262 224.679 65.6639 224.679 64.2594C224.679 62.8726 224.99 61.628 225.612 60.5257C226.252 59.4056 227.133 58.5344 228.253 57.9122C229.373 57.2899 230.635 56.9788 232.04 56.9788C233.426 56.9788 234.662 57.2899 235.747 57.9122C236.849 58.5167 237.702 59.379 238.307 60.499C238.929 61.6014 239.24 62.8815 239.24 64.3394ZM232.04 59.6456C230.973 59.6456 230.066 59.9657 229.319 60.6057C228.59 61.228 228.146 62.0636 227.986 63.1126H236.067C235.924 62.0814 235.489 61.2458 234.76 60.6057C234.031 59.9657 233.124 59.6456 232.04 59.6456Z" fill="#85A080"/>
<path d="M242.353 57.1388H245.687V62.9259H252.86V57.1388H256.194V71.3799H252.86V65.7528H245.687V71.3799H242.353V57.1388Z" fill="#85A080"/>
<path d="M271.409 59.9657H266.422V71.3799H263.089V59.9657H258.075V57.1388H271.409V59.9657Z" fill="#85A080"/>
<path d="M281.188 56.9788C282.575 56.9788 283.81 57.281 284.895 57.8855C285.997 58.49 286.859 59.3434 287.482 60.4457C288.104 61.548 288.415 62.8192 288.415 64.2594C288.415 65.6995 288.104 66.9796 287.482 68.0997C286.859 69.202 285.997 70.0554 284.895 70.6599C283.81 71.2644 282.575 71.5666 281.188 71.5666C279.268 71.5666 277.748 70.9266 276.628 69.6465V76.5537H273.294V57.1388H276.468V59.0056C277.019 58.33 277.694 57.8233 278.494 57.4855C279.312 57.1477 280.21 56.9788 281.188 56.9788ZM280.815 68.713C282.041 68.713 283.046 68.3041 283.828 67.4863C284.628 66.6684 285.028 65.5928 285.028 64.2594C285.028 62.9259 284.628 61.8503 283.828 61.0324C283.046 60.2146 282.041 59.8057 280.815 59.8057C280.014 59.8057 279.294 59.9923 278.654 60.3657C278.014 60.7213 277.508 61.2369 277.134 61.9125C276.761 62.5881 276.574 63.3704 276.574 64.2594C276.574 65.1483 276.761 65.9306 277.134 66.6062C277.508 67.2818 278.014 67.8063 278.654 68.1797C279.294 68.5352 280.014 68.713 280.815 68.713Z" fill="#85A080"/>
<path d="M25.4775 28.0994H9.96394L7.80929 33.7146H0.19043L14.1319 0.0478516H21.3715L35.2889 33.7146H27.6838L25.4775 28.0994ZM12.4909 21.7313H22.9436L17.7724 8.2522L12.4909 21.7313Z" fill="#85A080"/>
<path d="M38.6091 33.7146V0.0478516H55.8084C58.7974 0.0478516 60.8658 0.587702 62.5482 1.61926C65.3889 3.31102 67.2264 6.29567 67.2264 10.1262C67.2544 11.8267 66.8318 13.5044 66.0012 14.9897C65.1707 16.475 63.9617 17.7152 62.4965 18.585C60.8314 19.5994 58.7974 20.1598 55.8084 20.1598H45.935V33.7146H38.6091ZM54.8535 13.6988C56.2497 13.6988 56.922 13.6026 57.5253 13.355C58.9042 12.8151 59.9971 11.732 59.9971 10.1124C59.9971 8.49289 58.9629 7.40976 57.5253 6.8699C56.9358 6.63608 56.2738 6.52605 54.8294 6.52605H45.935V13.6988H54.8535Z" fill="#85A080"/>
<path d="M96.0648 33.7148V12.3787L75.6904 33.7148H71.6362V0.0240697H78.9621V21.3189L99.3709 0H103.391V33.6976L96.0648 33.7148Z" fill="#85A080"/>
<path d="M136.244 13.7546C134.776 9.17448 131.149 6.42365 126.199 6.42365C120.048 6.42365 115.832 10.9832 115.832 16.8802C115.832 22.4954 119.952 27.2887 126.199 27.2887C131.125 27.2887 134.752 24.586 136.269 19.8408L143.253 21.9039C141.147 28.977 134.235 33.7222 126.199 33.7222C116.422 33.7222 108.272 26.5013 108.272 16.8734C108.272 7.42771 116.039 0.00390842 126.199 0.00390842C133.952 0.000469882 140.826 4.08889 143.181 11.5849L136.244 13.7546Z" fill="#85A080"/>
<path d="M174.663 0.0239258V6.53307H163.097V33.7147H155.747V6.53307H144.205V0.0239258H174.663Z" fill="#85A080"/>
<path d="M193.918 33.7155C183.627 33.7155 176.032 26.3398 176.032 16.8666C176.032 7.39348 183.617 0.0178223 193.918 0.0178223C204.219 0.0178223 211.845 7.41755 211.845 16.8666C211.845 26.3157 204.236 33.7155 193.918 33.7155ZM193.918 6.48571C187.623 6.48571 183.555 11.0658 183.555 16.8701C183.555 22.6743 187.623 27.2304 193.918 27.2304C200.213 27.2304 204.308 22.695 204.308 16.8701C204.308 11.0452 200.24 6.48571 193.918 6.48571Z" fill="#85A080"/>
<path d="M220.719 0.0239258L235.74 16.7283L250.76 0.0239258H254.752V33.7216H247.426V13.0147L235.74 26.1981L224.049 13.0147V33.7147H216.723V0.0239258H220.719Z" fill="#85A080"/>
<path d="M286.09 0V6.48508H268.715V12.028H281.97V18.4443H268.715V27.2057H286.09V33.6908H261.365V0H286.09Z" fill="#85A080"/>
<path d="M322.793 27.2062H327.595V40.6474H320.27V33.7153H296.827V40.6474H289.467V27.2062H293.603C295.538 23.7676 296.592 19.8787 297.178 15.859C297.965 10.6187 297.94 5.14453 298.061 0.041748H322.786L322.793 27.2062ZM305.249 6.5337C305.257 9.89979 305.003 13.2614 304.487 16.588C303.903 20.2355 302.883 23.8002 301.45 27.2062H315.44V6.5337H305.249Z" fill="#85A080"/>
</svg>
