<svg width="142" height="18" viewBox="0 0 142 18" fill="none" xmlns="http://www.w3.org/2000/svg">
<path d="M10.9134 12.1275H4.21805L3.28815 14.5509H0L6.01686 0.0209961H9.14134L15.1478 14.5509H11.8656L10.9134 12.1275ZM5.30865 9.37912H9.8198L7.58803 3.56183L5.30865 9.37912Z" fill="#85A080"/>
<path d="M16.5801 14.5509V0.0209961H24.003C25.2929 0.0209961 26.1856 0.253985 26.9117 0.699185C28.1377 1.42931 28.9307 2.71743 28.9307 4.37061C28.9428 5.10449 28.7604 5.82855 28.402 6.46958C28.0435 7.11061 27.5217 7.64587 26.8894 8.02126C26.1708 8.45904 25.2929 8.70093 24.003 8.70093H19.7418V14.5509H16.5801ZM23.5908 5.91249C24.1934 5.91249 24.4835 5.87094 24.7439 5.76409C25.339 5.5311 25.8107 5.06364 25.8107 4.36467C25.8107 3.66571 25.3643 3.19825 24.7439 2.96526C24.4895 2.86435 24.2038 2.81686 23.5804 2.81686H19.7418V5.91249H23.5908Z" fill="#85A080"/>
<path d="M41.3779 14.5507V5.34241L32.5847 14.5507H30.835V0.010388H33.9966V9.20082L42.8047 0H44.5395V14.5432L41.3779 14.5507Z" fill="#85A080"/>
<path d="M58.7179 5.93599C58.0841 3.9593 56.5189 2.7721 54.3823 2.7721C51.728 2.7721 49.9084 4.73989 49.9084 7.28495C49.9084 9.70833 51.6863 11.777 54.3823 11.777C56.5085 11.777 58.0737 10.6106 58.7283 8.56268L61.7427 9.45308C60.8336 12.5057 57.8505 14.5536 54.3823 14.5536C50.1628 14.5536 46.6455 11.4372 46.6455 7.28198C46.6455 3.20543 49.9976 0.00146578 54.3823 0.00146578C57.7285 -1.82237e-05 60.6953 1.76446 61.7115 4.99959L58.7179 5.93599Z" fill="#85A080"/>
<path d="M75.2994 0.0102539V2.81947H70.3077V14.5505H67.1356V2.81947H62.1543V0.0102539H75.2994Z" fill="#85A080"/>
<path d="M83.6086 14.5506C79.1674 14.5506 75.8896 11.3674 75.8896 7.27894C75.8896 3.19051 79.1629 0.00732422 83.6086 0.00732422C88.0543 0.00732422 91.3454 3.2009 91.3454 7.27894C91.3454 11.357 88.0617 14.5506 83.6086 14.5506ZM83.6086 2.79873C80.8918 2.79873 79.1361 4.77543 79.1361 7.28042C79.1361 9.78542 80.8918 11.7517 83.6086 11.7517C86.3254 11.7517 88.093 9.79432 88.093 7.28042C88.093 4.76652 86.3373 2.79873 83.6086 2.79873Z" fill="#85A080"/>
<path d="M95.1756 0.0102539L101.658 7.21954L108.141 0.0102539H109.864V14.5535H106.702V5.61682L101.658 11.3065L96.6129 5.61682V14.5505H93.4512V0.0102539H95.1756Z" fill="#85A080"/>
<path d="M123.389 0.0102539V2.80908H115.89V5.2013H121.611V7.97045H115.89V11.7517H123.389V14.5505H112.718V0.0102539H123.389Z" fill="#85A080"/>
<path d="M139.229 11.7422H141.301V17.5431H138.14V14.5514H128.022V17.5431H124.846V11.7422H126.631C127.466 10.2582 127.921 8.57977 128.174 6.84497C128.513 4.58335 128.503 2.22081 128.555 0.0185547H139.226L139.229 11.7422ZM131.657 2.82035C131.661 4.27309 131.551 5.72389 131.328 7.15958C131.076 8.73376 130.636 10.2722 130.017 11.7422H136.055V2.82035H131.657Z" fill="#85A080"/>
</svg>
